<svg xmlns="http://www.w3.org/2000/svg" width="120" height="60"><g data-name="Ellipse 1628" fill="rgba(222,223,224,0)" stroke="rgba(255,255,255,0)" stroke-width="2"><circle cx="30" cy="30" r="30" stroke="none"/><circle cx="30" cy="30" r="29" fill="none"/></g><g data-name="Group 19261"><g data-name="Group 19260"><g data-name="Group 19257"><g data-name="Group 19241"><g data-name="Group 19240" fill="none" stroke="#050505" stroke-miterlimit="10"><path data-name="Path 9640" d="M43.848 25.331H15.3L13 27.574v9.6h33.149v-9.6z" stroke-linecap="round"/><path data-name="Path 9641" d="M43.555 25.264l-2.167-7.3-1.951-1H19.639l-1.878 1-2.168 7.3" stroke-linecap="round"/><path data-name="Path 9642" d="M20.009 37.526v4.766H13v-4.766" stroke-linecap="square"/><path data-name="Path 9643" d="M46.149 37.526v4.766H39.14v-4.766" stroke-linecap="square"/><path data-name="Path 9644" d="M23.514 32.97h-7.5v-3.925c7.009 0 7.5 3.925 7.5 3.925z" stroke-linecap="round"/><path data-name="Path 9645" d="M35.566 32.97h7.569v-3.925c-7.008 0-7.569 3.925-7.569 3.925z" stroke-linecap="round"/><path data-name="Path 9646" d="M32.397 25.331a3.558 3.558 0 0 1 3.364-2.453 3.5 3.5 0 0 1 3.294 2.313" stroke-linecap="round"/></g></g></g></g></g><g data-name="icon-4"><g data-name="Ellipse 1628" transform="translate(60)" fill="rgba(222,223,224,0)" stroke="rgba(255,255,255,0)" stroke-width="2"><circle cx="30" cy="30" r="30" stroke="none"/><circle cx="30" cy="30" r="29" fill="none"/></g><g data-name="Group 19261"><g data-name="Group 19260"><g data-name="Group 19257"><g data-name="Group 19241"><g data-name="Group 19240" fill="none" stroke="#fff" stroke-miterlimit="10" stroke-width="2"><path data-name="Path 9640" d="M103.848 25.331H75.3L73 27.574v9.6h33.149v-9.6z" stroke-linecap="round"/><path data-name="Path 9641" d="M103.555 25.264l-2.167-7.3-1.951-1H79.639l-1.878 1-2.168 7.3" stroke-linecap="round"/><path data-name="Path 9642" d="M80.009 37.526v4.766H73v-4.766" stroke-linecap="square"/><path data-name="Path 9643" d="M106.149 37.526v4.766H99.14v-4.766" stroke-linecap="square"/><path data-name="Path 9644" d="M83.514 32.97h-7.5v-3.925c7.009 0 7.5 3.925 7.5 3.925z" stroke-linecap="round"/><path data-name="Path 9645" d="M95.566 32.97h7.569v-3.925c-7.008 0-7.569 3.925-7.569 3.925z" stroke-linecap="round"/><path data-name="Path 9646" d="M92.397 25.331a3.558 3.558 0 0 1 3.364-2.453 3.5 3.5 0 0 1 3.294 2.313" stroke-linecap="round"/></g></g></g></g></g></g></svg>