<svg xmlns="http://www.w3.org/2000/svg" width="120" height="60"><path data-name="Path 9726" d="M30 0A30 30 0 1 1 0 30 30 30 0 0 1 30 0z" fill="none"/><g data-name="Group 19492"><path data-name="Path 7558" d="M36.624 14.525H19.771v30.363h22.108v-24.63zm0 0" fill="none" stroke="#050505"/><g data-name="Group 19351"><g data-name="Group 19273" fill="none" stroke="#050505"><g data-name="Rectangle 11800"><path stroke="none" d="M25.696 32.59h25.58v7.871h-25.58z"/><path d="M26.196 33.09h24.58v6.871h-24.58z"/></g><g data-name="Ellipse 1619" transform="translate(45.373 34.558)"><ellipse cx="1.968" cy="1.968" rx="1.968" ry="1.968" stroke="none"/><ellipse cx="1.968" cy="1.968" rx="1.468" ry="1.468"/></g><path data-name="Path 9652" d="M27.981 33.233v1.693M29.948 33.233v1.693M31.916 33.233v2.945M33.884 33.233v1.693M35.851 33.233v1.693M37.819 33.233v2.945M39.787 33.233v1.693M43.722 33.233v2.945"/></g><g data-name="Group 19275"><g data-name="Group 19274" fill="none" stroke="#050505"><path data-name="Path 9653" d="M26.964 24.049l-3.157 2.055 3.157 2.06h17.263s2.688.165 2.688-2.06-2.688-2.055-2.688-2.055z"/><path data-name="Path 9654" d="M27.001 28.167v-4.094"/><path data-name="Path 9655" d="M44.219 28.167v-4.094"/></g></g></g></g><g data-name="icon-1"><path data-name="Path 9726" d="M90 0a30 30 0 1 1-30 30A30 30 0 0 1 90 0z" fill="none"/><g data-name="Group 19492"><path data-name="Path 7558" d="M96.624 14.525H79.771v30.363h22.108v-24.63zm0 0" fill="none" stroke="#fff" stroke-width="2"/><g data-name="Group 19351"><g data-name="Group 19273" fill="none" stroke="#fff" stroke-width="2"><g data-name="Rectangle 11800"><path stroke="none" d="M85.696 32.59h25.58v7.871h-25.58z"/><path d="M86.696 33.59h23.58v5.871h-23.58z"/></g><g data-name="Ellipse 1619" transform="translate(105.373 34.558)"><ellipse cx="1.968" cy="1.968" rx="1.968" ry="1.968" stroke="none"/><ellipse cx="1.968" cy="1.968" rx=".968" ry=".968"/></g><path data-name="Path 9652" d="M87.981 33.233v1.693M89.948 33.233v1.693M91.916 33.233v2.945M93.884 33.233v1.693M95.851 33.233v1.693M97.819 33.233v2.945M99.787 33.233v1.693M103.722 33.233v2.945"/></g><g data-name="Group 19275"><g data-name="Group 19274" fill="none" stroke="#fff" stroke-width="2"><path data-name="Path 9653" d="M86.964 24.049l-3.157 2.055 3.157 2.06h17.263s2.688.165 2.688-2.06-2.688-2.055-2.688-2.055z"/><path data-name="Path 9654" d="M87.001 28.167v-4.094"/><path data-name="Path 9655" d="M104.219 28.167v-4.094"/></g></g></g></g></g></svg>