<svg xmlns="http://www.w3.org/2000/svg" width="120" height="60"><g data-name="Ellipse 1629" fill="rgba(222,223,224,0)" stroke="rgba(255,255,255,0)" stroke-width="2"><circle cx="30" cy="30" r="30" stroke="none"/><circle cx="30" cy="30" r="29" fill="none"/></g><g data-name="Group 303" fill="none" stroke="#050505"><g data-name="Group 303"><path data-name="Path 214" d="M23.669 21.354h3.14l8.718 8.027h9.415s3.1-.06 3.1 2.285c0 2.477-2.288 2.6-3.1 2.6h-9.415l-8.691 9.452-.027.038h-3.14l4.523-9.49h-4.523l-6.359-1.991-2.68-5.281h2.818l3.308 2.39h7.435z"/><path data-name="Path 215" d="M27.268 29.383h11.307"/></g><g data-name="Group 304"><path data-name="Path 216" d="M46.735 43.753H35.901"/><path data-name="Path 217" d="M33.625 43.753h-1.821"/></g><g data-name="Group 305"><path data-name="Path 216" d="M27.072 16.716H16.238"/><path data-name="Path 217" d="M13.962 16.716h-1.821"/></g><g data-name="Group 306"><path data-name="Path 216" d="M31.988 11.8H21.154"/><path data-name="Path 217" d="M18.878 11.8h-1.821"/></g></g><g data-name="icon-3" stroke-width="2"><g data-name="Ellipse 1629" transform="translate(60)" fill="rgba(222,223,224,0)" stroke="rgba(255,255,255,0)"><circle cx="30" cy="30" r="30" stroke="none"/><circle cx="30" cy="30" r="29" fill="none"/></g><g data-name="Group 303" fill="none" stroke="#fff"><g data-name="Group 303"><path data-name="Path 214" d="M83.669 21.354h3.14l8.718 8.027h9.415s3.1-.06 3.1 2.285c0 2.477-2.288 2.6-3.1 2.6h-9.415l-8.691 9.452-.027.038h-3.14l4.523-9.49h-4.523l-6.359-1.991-2.68-5.281h2.818l3.308 2.39h7.435z"/><path data-name="Path 215" d="M87.268 29.383h11.307"/></g><g data-name="Group 304"><path data-name="Path 216" d="M106.735 43.753H95.901"/><path data-name="Path 217" d="M93.625 43.753h-1.821"/></g><g data-name="Group 305"><path data-name="Path 216" d="M87.072 16.716H76.238"/><path data-name="Path 217" d="M73.962 16.716h-1.821"/></g><g data-name="Group 306"><path data-name="Path 216" d="M91.988 11.8H81.154"/><path data-name="Path 217" d="M78.878 11.8h-1.821"/></g></g></g></svg>