<svg xmlns="http://www.w3.org/2000/svg" width="120" height="60"><g data-name="Ellipse 1630" fill="rgba(255,255,255,0)" stroke="rgba(255,255,255,0)" stroke-width="2"><circle cx="30" cy="30" r="30" stroke="none"/><circle cx="30" cy="30" r="29" fill="none"/></g><g data-name="Group 19232" fill="none" stroke="#050505" stroke-linecap="round" stroke-miterlimit="10"><path data-name="Path 9639" d="M33.433 20.499H44.32a1.786 1.786 0 0 1 1.829 1.829v18.228a1.786 1.786 0 0 1-1.829 1.829H14.97a1.786 1.786 0 0 1-1.829-1.829V22.328a1.786 1.786 0 0 1 1.829-1.829h10.886"/><path data-name="Rectangle 6" d="M25.944 17.277h7.403v5.922h-7.403z"/></g><g data-name="Group 19233" fill="none" stroke="#050505"><path data-name="Path 9636" d="M29.653 29.396h11.061"/><path data-name="Path 9637" d="M29.653 33.066h6.579"/></g><g data-name="Group 19231"><g data-name="Group 19230"><g data-name="Group 19229" fill="none" stroke="#050505" stroke-linecap="round" stroke-miterlimit="10" transform="translate(18.687 25.992)"><path data-name="Path 9638" d="M7.108 10.991v-2.5a3.554 3.554 0 0 0-7.108 0v2.5h7.108z"/><ellipse data-name="Ellipse 1296" cx="2.435" cy="2.435" rx="2.435" ry="2.435" transform="translate(1.119)"/></g></g></g><g data-name="icon-2"><g data-name="Ellipse 1630" transform="translate(60)" fill="rgba(255,255,255,0)" stroke="rgba(255,255,255,0)" stroke-width="2"><circle cx="30" cy="30" r="30" stroke="none"/><circle cx="30" cy="30" r="29" fill="none"/></g><g data-name="Group 19232" fill="none" stroke="#fff" stroke-linecap="round" stroke-miterlimit="10" stroke-width="2"><path data-name="Path 9639" d="M93.433 20.499h10.887a1.786 1.786 0 0 1 1.829 1.829v18.228a1.786 1.786 0 0 1-1.829 1.829H74.97a1.786 1.786 0 0 1-1.829-1.829V22.328a1.786 1.786 0 0 1 1.829-1.829h10.886"/><path data-name="Rectangle 6" d="M85.944 17.277h7.403v5.922h-7.403z"/></g><g data-name="Group 19233" fill="none" stroke="#fff"><path data-name="Path 9636" d="M89.653 29.396h11.061"/><path data-name="Path 9637" d="M89.653 33.066h6.579"/></g><g data-name="Group 19231"><g data-name="Group 19230"><g data-name="Group 19229" fill="none" stroke="#fff" stroke-linecap="round" stroke-miterlimit="10" transform="translate(78.687 25.992)"><path data-name="Path 9638" d="M7.108 10.991v-2.5a3.554 3.554 0 0 0-7.108 0v2.5h7.108z"/><ellipse data-name="Ellipse 1296" cx="2.435" cy="2.435" rx="2.435" ry="2.435" transform="translate(1.119)"/></g></g></g></g></svg>