<svg xmlns="http://www.w3.org/2000/svg" width="70" height="70" viewBox="0 0 70 70">
  <g id="icon-initiative" transform="translate(-861 -299)">
    <g id="Path_9648" data-name="Path 9648" transform="translate(861 299)" fill="#dedfe0">
      <path d="M 35 69 C 30.40958976745605 69 25.9570198059082 68.10117340087891 21.7659797668457 66.32851409912109 C 17.71739959716797 64.61611938476562 14.08119964599609 62.16444778442383 10.95837020874023 59.0416259765625 C 7.835549831390381 55.91879653930664 5.383880138397217 52.28259658813477 3.671479940414429 48.23401641845703 C 1.898820042610168 44.04297637939453 1 39.59040451049805 1 34.99999618530273 C 1 30.40958595275879 1.898820042610168 25.95701599121094 3.671479940414429 21.76597595214844 C 5.383880138397217 17.7173957824707 7.835549831390381 14.08119583129883 10.95837020874023 10.95837593078613 C 14.08119964599609 7.835546016693115 17.71739959716797 5.383886337280273 21.7659797668457 3.671486139297485 C 25.9570198059082 1.898816227912903 30.40958976745605 1.000006198883057 35 1.000006198883057 C 39.59040832519531 1.000006198883057 44.0429801940918 1.898816227912903 48.2340202331543 3.671486139297485 C 52.28260040283203 5.383886337280273 55.91880035400391 7.835546016693115 59.04162979125977 10.95837593078613 C 62.16445159912109 14.08119583129883 64.61611938476562 17.7173957824707 66.32852172851562 21.76597595214844 C 68.10118103027344 25.95701599121094 69 30.40958595275879 69 34.99999618530273 C 69 39.59040451049805 68.10118103027344 44.04297637939453 66.32852172851562 48.23401641845703 C 64.61611938476562 52.28259658813477 62.16445159912109 55.91879653930664 59.04162979125977 59.0416259765625 C 55.91880035400391 62.16444778442383 52.28260040283203 64.61611938476562 48.2340202331543 66.32851409912109 C 44.0429801940918 68.10117340087891 39.59040832519531 69 35 69 Z" stroke="none"/>
      <path d="M 35 1.999992370605469 C 30.54414367675781 1.999992370605469 26.2226448059082 2.872230529785156 22.15552139282227 4.592483520507812 C 18.22614288330078 6.254463195800781 14.6967887878418 8.634162902832031 11.66547775268555 11.66547393798828 C 8.634166717529297 14.69678497314453 6.254467010498047 18.22615051269531 4.592475891113281 22.1555290222168 C 2.872230529785156 26.22264099121094 2 30.54413986206055 2 34.99999618530273 C 2 39.45585250854492 2.872230529785156 43.77735137939453 4.592475891113281 47.84447479248047 C 6.254467010498047 51.77384948730469 8.634166717529297 55.30320739746094 11.66547775268555 58.33451843261719 C 14.6967887878418 61.36582946777344 18.22614288330078 63.74552917480469 22.15552139282227 65.40751647949219 C 26.2226448059082 67.12776184082031 30.54414367675781 68 35 68 C 39.45585632324219 68 43.7773551940918 67.12776184082031 47.84446716308594 65.40751647949219 C 51.77384185791016 63.74552917480469 55.3032112121582 61.36582946777344 58.33452224731445 58.33451843261719 C 61.3658332824707 55.30320739746094 63.74553298950195 51.77384948730469 65.40750885009766 47.84447479248047 C 67.12776947021484 43.77735137939453 68 39.45585250854492 68 34.99999618530273 C 68 30.54415130615234 67.12776947021484 26.22264099121094 65.40750885009766 22.1555290222168 C 63.74553298950195 18.22615051269531 61.3658332824707 14.69678497314453 58.33452224731445 11.66547393798828 C 55.3032112121582 8.634162902832031 51.77384185791016 6.254463195800781 47.84446716308594 4.592483520507812 C 43.7773551940918 2.872230529785156 39.45584487915039 1.999992370605469 35 1.999992370605469 M 35 -7.62939453125e-06 C 54.3299560546875 -7.62939453125e-06 70 15.67004013061523 70 34.99999618530273 C 70 54.32996368408203 54.3299560546875 70 35 70 C 15.6700325012207 70 0 54.32996368408203 0 34.99999618530273 C 0 15.67004013061523 15.6700325012207 -7.62939453125e-06 35 -7.62939453125e-06 Z" stroke="none" fill="#fff"/>
    </g>
    <g id="Group_19326" data-name="Group 19326" transform="translate(880.03 318.056)">
      <g id="Group_18493" data-name="Group 18493" transform="translate(0 0)">
        <g id="Group_3" data-name="Group 3">
          <g id="Group_108" data-name="Group 108">
            <g id="Group_104" data-name="Group 104" transform="translate(0 15.929)">
              <path id="Path_124" data-name="Path 124" d="M-16231.124,3881.581h3.735" transform="translate(16231.124 -3881.581)" fill="none" stroke="#06070c" stroke-width="2"/>
              <path id="Path_125" data-name="Path 125" d="M-16231.124,3881.581h3.735" transform="translate(16259.247 -3881.581)" fill="none" stroke="#06070c" stroke-width="2"/>
            </g>
            <g id="Group_106" data-name="Group 106" transform="translate(24.552 7.308) rotate(-45)">
              <path id="Path_125-2" data-name="Path 125" d="M0,0H3.736" transform="translate(0)" fill="none" stroke="#06070c" stroke-width="2"/>
            </g>
            <path id="Path_125-3" data-name="Path 125" d="M0,0H3.736" transform="translate(15.93 3.736) rotate(-90)" fill="none" stroke="#06070c" stroke-width="2"/>
            <g id="Group_107" data-name="Group 107" transform="translate(4.666 4.665) rotate(45)">
              <path id="Path_124-2" data-name="Path 124" d="M0,0H3.736" transform="translate(0 0)" fill="none" stroke="#06070c" stroke-width="2"/>
            </g>
          </g>
          <g id="Group_115" data-name="Group 115" transform="translate(7.83 7.589)">
            <path id="Union_1" data-name="Union 1" d="M3.95,16.969a9.57,9.57,0,0,0-1.831-3.358,8.136,8.136,0,1,1,12.2-.189A13.17,13.17,0,0,0,12.4,16.969Z" transform="translate(0 0)" fill="none" stroke="#06070c" stroke-width="2"/>
            <g id="Group_103" data-name="Group 103" transform="translate(3.634 21.034)">
              <path id="Path_121" data-name="Path 121" d="M-16206.179,3902.5h8.9" transform="translate(16206.179 -3902.5)" fill="none" stroke="#06070c" stroke-width="2"/>
              <path id="Path_122" data-name="Path 122" d="M-16206.179,3902.97h6.645" transform="translate(16207.306 -3899.142)" fill="none" stroke="#06070c" stroke-width="2"/>
            </g>
          </g>
        </g>
      </g>
    </g>
  </g>
</svg>
