<svg xmlns="http://www.w3.org/2000/svg" viewBox="0 0 55 55">
  <defs>
    <style>
      .cls-1 {
        fill: none;
      }

      .cls-2 {
        fill: #f8a508;
        stroke: #f8a508;
      }

      .cls-3 {
        fill: #f9a507;
      }

      .cls-4 {
        fill: #dedfe0;
      }

      .cls-5 {
        stroke: none;
      }
    </style>
  </defs>
  <g id="Group_17619" data-name="Group 17619" transform="translate(-1250.154 -1252.221)">
    <rect id="Rectangle_11812" data-name="Rectangle 11812" class="cls-1" width="55" height="55" transform="translate(1250.154 1252.221)"/>
    <g id="Group_18497" data-name="Group 18497" transform="translate(51.154 -18.779)">
      <g id="Ellipse_1604" data-name="Ellipse 1604" class="cls-2" transform="translate(1215 1283)">
        <circle class="cls-5" cx="11.154" cy="11.154" r="11.154"/>
        <circle class="cls-1" cx="11.154" cy="11.154" r="10.654"/>
      </g>
      <path id="Path_8928" data-name="Path 8928" class="cls-3" d="M-19836.559,9135.141v11.514l4.549-4.547,4.547,4.547v-11.514" transform="translate(21058.15 -7831.718)"/>
      <path id="Path_8929" data-name="Path 8929" class="cls-4" d="M1.439,2.506l1.693-.469L4.128.6l1.593.74L7.4.87l.754,1.593,1.579.725L9.291,4.882l.74,1.579L8.609,7.471,8.168,9.163l-1.75-.142L5,10.031,3.758,8.794l-1.75-.142L1.852,6.916.6,5.678,1.61,4.242Z" transform="translate(1220.991 1288.991)"/>
    </g>
  </g>
</svg>
