<svg xmlns="http://www.w3.org/2000/svg" width="70" height="70" viewBox="0 0 70 70">
  <g id="icon-team" transform="translate(-1364 -299)">
    <g id="Ellipse_1612" data-name="Ellipse 1612" transform="translate(1364 299)" fill="#dedfe0" stroke="#fff" stroke-width="2">
      <ellipse cx="35" cy="35" rx="35" ry="35" stroke="none"/>
      <ellipse cx="35" cy="35" rx="34" ry="34" fill="none"/>
    </g>
    <g id="Group_19331" data-name="Group 19331" transform="translate(1380.185 319.542)">
      <g id="Group_18498" data-name="Group 18498" transform="translate(0 0)">
        <g id="Group_6" data-name="Group 6">
          <g id="Group_149" data-name="Group 149">
            <g id="Group_148" data-name="Group 148">
              <g id="Group_144" data-name="Group 144">
                <g id="Ellipse_6" data-name="Ellipse 6" transform="translate(3.781)" fill="none" stroke="#050505" stroke-width="2">
                  <circle cx="3.081" cy="3.081" r="3.081" stroke="none"/>
                  <circle cx="3.081" cy="3.081" r="2.081" fill="none"/>
                </g>
                <path id="Path_8989" data-name="Path 8989" d="M14.189,8.784c0-3.784-.743-6.284-4.6-6.284L7.425,5.581,5.1,2.5C1.431,2.5.5,5,.5,8.784Z" transform="translate(-0.5 4.591)" fill="none" stroke="#050505" stroke-miterlimit="10" stroke-width="2"/>
              </g>
              <path id="Path_8991" data-name="Path 8991" d="M1494.62,524.8l4.158,4.158" transform="translate(-1485.26 -508.399)" fill="none" stroke="#050505" stroke-width="2"/>
            </g>
          </g>
          <g id="Group_150" data-name="Group 150" transform="translate(24.573)">
            <g id="Group_147" data-name="Group 147" transform="translate(0)">
              <g id="Group_145" data-name="Group 145">
                <g id="Ellipse_6-2" data-name="Ellipse 6" transform="translate(3.781)" fill="none" stroke="#050505" stroke-width="2">
                  <circle cx="3.081" cy="3.081" r="3.081" stroke="none"/>
                  <circle cx="3.081" cy="3.081" r="2.081" fill="none"/>
                </g>
                <path id="Path_8989-2" data-name="Path 8989" d="M14.189,8.784c0-3.784-.743-6.284-4.6-6.284L7.425,5.581,5.1,2.5C1.431,2.5.5,5,.5,8.784Z" transform="translate(-0.5 4.591)" fill="none" stroke="#050505" stroke-miterlimit="10" stroke-width="2"/>
              </g>
              <path id="Path_8992" data-name="Path 8992" d="M0,0,4.158,4.158" transform="translate(4.46 16.403) rotate(90)" fill="none" stroke="#050505" stroke-width="2"/>
            </g>
          </g>
          <g id="Group_146" data-name="Group 146" transform="translate(12.286 4.067)">
            <g id="Group_143" data-name="Group 143" transform="translate(0 14.655)">
              <g id="Ellipse_6-3" data-name="Ellipse 6" transform="translate(3.781 0)" fill="none" stroke="#050505" stroke-width="2">
                <circle cx="3.081" cy="3.081" r="3.081" stroke="none"/>
                <circle cx="3.081" cy="3.081" r="2.081" fill="none"/>
              </g>
              <path id="Path_8989-3" data-name="Path 8989" d="M14.189,8.784c0-3.784-.743-6.284-4.6-6.284L7.425,5.581,5.1,2.5C1.431,2.5.5,5,.5,8.784Z" transform="translate(-0.5 4.591)" fill="none" stroke="#050505" stroke-miterlimit="10" stroke-width="2"/>
            </g>
            <path id="Path_8993" data-name="Path 8993" d="M0,0,4.158,4.158" transform="translate(9.806 2.94) rotate(135)" fill="none" stroke="#050505" stroke-width="2"/>
          </g>
        </g>
      </g>
    </g>
  </g>
</svg>
