<svg xmlns="http://www.w3.org/2000/svg" viewBox="0 0 50 50">
  <defs>
    <style>
      .cls-1, .cls-2, .cls-3 {
        fill: none;
      }

      .cls-2, .cls-3 {
        stroke: #fff;
        stroke-width: 2px;
      }

      .cls-2 {
        stroke-miterlimit: 10;
      }
    </style>
  </defs>
  <g id="icon-menu-company" transform="translate(-1835 -2688)">
    <rect id="Rectangle_11579" data-name="Rectangle 11579" class="cls-1" width="50" height="50" transform="translate(1835 2688)"/>
    <g id="Group_17061" data-name="Group 17061" transform="translate(1810 2562)">
      <path id="Path_1264" data-name="Path 1264" class="cls-2" d="M40.917,40.218V3a2.479,2.479,0,0,0-2.5-2.5H22.2A2.479,2.479,0,0,0,19.7,3v9.336" transform="translate(26.549 130.5)"/>
      <path id="Path_1265" data-name="Path 1265" class="cls-2" d="M24.465,16.5H3A2.479,2.479,0,0,0,.5,19V43.846H10.746V37.129h6.34v6.644h9.878V19A2.479,2.479,0,0,0,24.465,16.5Z" transform="translate(31.5 126.262)"/>
      <g id="Group_17052" data-name="Group 17052" transform="translate(38.301 147.674)">
        <path id="Path_7594" data-name="Path 7594" class="cls-3" d="M-4350.7,6102.382v3.758" transform="translate(4350.699 -6102.382)"/>
        <path id="Path_7595" data-name="Path 7595" class="cls-3" d="M-4350.7,6102.382v3.758" transform="translate(4357.699 -6102.382)"/>
        <path id="Path_7596" data-name="Path 7596" class="cls-3" d="M-4350.7,6102.382v3.758" transform="translate(4364.699 -6102.382)"/>
      </g>
      <g id="Group_17054" data-name="Group 17054" transform="translate(46.301 135.674)">
        <path id="Path_7595-2" data-name="Path 7595" class="cls-3" d="M-4350.7,6102.382v3.758" transform="translate(4357.699 -6102.382)"/>
        <path id="Path_7596-2" data-name="Path 7596" class="cls-3" d="M-4350.7,6102.382v3.758" transform="translate(4364.699 -6102.382)"/>
      </g>
      <g id="Group_17053" data-name="Group 17053" transform="translate(38.301 155.048)">
        <path id="Path_7594-2" data-name="Path 7594" class="cls-3" d="M-4350.7,6102.382v3.758" transform="translate(4350.699 -6102.382)"/>
        <path id="Path_7595-3" data-name="Path 7595" class="cls-3" d="M-4350.7,6102.382v3.758" transform="translate(4357.699 -6102.382)"/>
        <path id="Path_7596-3" data-name="Path 7596" class="cls-3" d="M-4350.7,6102.382v3.758" transform="translate(4364.699 -6102.382)"/>
      </g>
    </g>
  </g>
</svg>
