<svg xmlns="http://www.w3.org/2000/svg" xmlns:xlink="http://www.w3.org/1999/xlink" viewBox="0 0 32 32">
  <defs>
    <style>
      .cls-1 {
        fill: none;
      }

      .cls-2 {
        clip-path: url(#clip-path);
      }

      .cls-3 {
        fill: #343534;
      }
    </style>
    <clipPath id="clip-path">
      <rect class="cls-1" width="25.8" height="25.8"/>
    </clipPath>
  </defs>
  <g id="icon-header-services" transform="translate(-3886 -2484)">
    <rect id="Rectangle_11584" data-name="Rectangle 11584" class="cls-1" width="32" height="32" transform="translate(3886 2484)"/>
    <g id="Repeat_Grid_86" data-name="Repeat Grid 86" class="cls-2" transform="translate(3889 2487)">
      <g transform="translate(-1343 -37)">
        <rect id="Rectangle_11074" data-name="Rectangle 11074" class="cls-3" width="4.8" height="4.8" transform="translate(1343 37)"/>
      </g>
      <g transform="translate(-1333 -37)">
        <rect id="Rectangle_11074-2" data-name="Rectangle 11074" class="cls-3" width="4.8" height="4.8" transform="translate(1343 37)"/>
      </g>
      <g transform="translate(-1323 -37)">
        <rect id="Rectangle_11074-3" data-name="Rectangle 11074" class="cls-3" width="4.8" height="4.8" transform="translate(1343 37)"/>
      </g>
      <g transform="translate(-1343 -27)">
        <rect id="Rectangle_11074-4" data-name="Rectangle 11074" class="cls-3" width="4.8" height="4.8" transform="translate(1343 37)"/>
      </g>
      <g transform="translate(-1333 -27)">
        <rect id="Rectangle_11074-5" data-name="Rectangle 11074" class="cls-3" width="4.8" height="4.8" transform="translate(1343 37)"/>
      </g>
      <g transform="translate(-1323 -27)">
        <rect id="Rectangle_11074-6" data-name="Rectangle 11074" class="cls-3" width="4.8" height="4.8" transform="translate(1343 37)"/>
      </g>
      <g transform="translate(-1343 -17)">
        <rect id="Rectangle_11074-7" data-name="Rectangle 11074" class="cls-3" width="4.8" height="4.8" transform="translate(1343 37)"/>
      </g>
      <g transform="translate(-1333 -17)">
        <rect id="Rectangle_11074-8" data-name="Rectangle 11074" class="cls-3" width="4.8" height="4.8" transform="translate(1343 37)"/>
      </g>
      <g transform="translate(-1323 -17)">
        <rect id="Rectangle_11074-9" data-name="Rectangle 11074" class="cls-3" width="4.8" height="4.8" transform="translate(1343 37)"/>
      </g>
    </g>
  </g>
</svg>
