<svg xmlns="http://www.w3.org/2000/svg" viewBox="0 0 600 600">
  <defs>
    <style>
      .cls-1 {
        fill: #e4e4e4;
      }

      .cls-2 {
        fill: #fff;
      }
    </style>
  </defs>
  <g id="Group_2" data-name="Group 2" transform="translate(-643 -223)">
    <path id="Path_1" data-name="Path 1" class="cls-1" d="M300,0C465.685,0,600,134.315,600,300S465.685,600,300,600,0,465.685,0,300,134.315,0,300,0Z" transform="translate(643 223)"/>
    <g id="Group_1" data-name="Group 1" transform="translate(5310 3461)">
      <path id="ic_person_24px" class="cls-2" d="M144,144A70,70,0,1,0,74,74,69.981,69.981,0,0,0,144,144Zm0,35C97.275,179,4,202.45,4,249v35H284V249C284,202.45,190.725,179,144,179Z" transform="translate(-4511 -3082)"/>
    </g>
  </g>
</svg>
