<svg xmlns="http://www.w3.org/2000/svg" viewBox="0 0 32 32.993">
  <defs>
    <style>
      .cls-1, .cls-2, .cls-3 {
        fill: none;
      }

      .cls-3 {
        stroke: #717073;
        stroke-width: 3px;
      }

      .cls-4, .cls-5 {
        stroke: none;
      }

      .cls-5 {
        fill: #717073;
      }
    </style>
  </defs>
  <g id="icon-header-search" transform="translate(-1581 55)">
    <rect id="Rectangle_11579" data-name="Rectangle 11579" class="cls-1" width="32" height="32" transform="translate(1581 -55)"/>
    <g id="search" transform="translate(617 -99)">
      <g id="Path_1245" data-name="Path 1245" class="cls-2" transform="translate(965 44)">
        <path class="cls-4" d="M13.1,0A13.1,13.1,0,1,1,0,13.1,13.1,13.1,0,0,1,13.1,0Z"/>
        <path class="cls-5" d="M 13.10361480712891 23.20723533630371 C 18.67476463317871 23.20723533630371 23.20723533630371 18.67476463317871 23.20723533630371 13.10361480712891 C 23.20723533630371 7.532464981079102 18.67476463317871 3.000004768371582 13.10361480712891 3.000004768371582 C 7.532464981079102 3.000004768371582 3.000004768371582 7.532464981079102 3.000004768371582 13.10361480712891 C 3.000004768371582 18.67476463317871 7.532464981079102 23.20723533630371 13.10361480712891 23.20723533630371 M 13.10361480712891 26.20723533630371 C 5.866684913635254 26.20723533630371 4.807128789252602e-06 20.34054565429688 4.807128789252602e-06 13.10361480712891 C 4.807128789252602e-06 5.866684913635254 5.866684913635254 4.807128789252602e-06 13.10361480712891 4.807128789252602e-06 C 20.34054565429688 4.807128789252602e-06 26.20723533630371 5.866684913635254 26.20723533630371 13.10361480712891 C 26.20723533630371 20.34054565429688 20.34054565429688 26.20723533630371 13.10361480712891 26.20723533630371 Z"/>
      </g>
      <path id="Path_24" data-name="Path 24" class="cls-3" d="M3850.835,1498.35l9.583,9.583" transform="translate(-2865.692 -1432.001)"/>
    </g>
  </g>
</svg>
