<svg xmlns="http://www.w3.org/2000/svg" viewBox="0 0 75 75">
  <defs>
    <style>
      .cls-1 {
        fill: none;
      }

      .cls-2 {
        fill: #fe0;
      }

      .cls-3 {
        fill: #717073;
      }
    </style>
  </defs>
  <g id="icon-depart-hr" transform="translate(-2467 169)">
    <rect id="Rectangle_11580" data-name="Rectangle 11580" class="cls-1" width="75" height="75" transform="translate(2467 -169)"/>
    <g id="Group_17668" data-name="Group 17668" transform="translate(1830 -498)">
      <path id="Path_7566" data-name="Path 7566" class="cls-2" d="M83.576,57.963a13.551,13.551,0,0,0-8.5-12.563l-5.051,9.878L65,45.432a13.518,13.518,0,0,0-8.5,12.563V70.366h6.3V75H77.279V70.334h6.3Z" transform="translate(604.101 302.055)"/>
      <g id="Group_16897" data-name="Group 16897" transform="translate(642.539 332.941)">
        <ellipse id="Ellipse_1583" data-name="Ellipse 1583" class="cls-3" cx="1.311" cy="1.311" rx="1.311" ry="1.311" transform="translate(54.887 42.484)"/>
        <ellipse id="Ellipse_1584" data-name="Ellipse 1584" class="cls-3" cx="1.311" cy="1.311" rx="1.311" ry="1.311" transform="translate(5.594 42.484)"/>
        <path id="Path_7567" data-name="Path 7567" class="cls-3" d="M63.039,63.71H51.914L51.85,31.871a1.29,1.29,0,0,0-1.311-1.279h0A1.29,1.29,0,0,0,49.261,31.9l.064,31.839H45.553l-.032-14.161A1.29,1.29,0,0,0,44.21,48.3h0a1.29,1.29,0,0,0-1.279,1.311l.032,14.161H39.831V46.64a7.091,7.091,0,0,0,6.553-7V27.044a13.707,13.707,0,0,0-1.247-5.754,10.708,10.708,0,0,1,6.777,2.973,10.148,10.148,0,0,1,3.133,7.257l.032,7.384a1.29,1.29,0,0,0,1.311,1.279h0a1.29,1.29,0,0,0,1.279-1.311l-.032-7.384a12.654,12.654,0,0,0-3.9-9.111A13.62,13.62,0,0,0,48.75,19.34a6.852,6.852,0,0,0-4.7-11.828h0a6.8,6.8,0,0,0-3.165.767,1.3,1.3,0,0,0,1.215,2.3,4.188,4.188,0,0,1,1.95-.48,4.268,4.268,0,0,1,.032,8.535h-.352a14.99,14.99,0,0,0-7.48-5.37A7.6,7.6,0,0,0,38.84,7.544,7.782,7.782,0,0,0,31.136,0a7.6,7.6,0,0,0-4.763,13.522,14.908,14.908,0,0,0-6.9,5.147h-.959a4.252,4.252,0,0,1,0-8.5,4.613,4.613,0,0,1,2.046.511A1.295,1.295,0,1,0,21.8,8.407a6.912,6.912,0,0,0-10.2,5.978,6.944,6.944,0,0,0,2.366,5.179A12.921,12.921,0,0,0,5.594,31.519v7.352A1.317,1.317,0,0,0,6.9,40.182a1.3,1.3,0,0,0,1.311-1.311V31.519A10.426,10.426,0,0,1,17.933,21.29a14.075,14.075,0,0,0-1.215,5.754V39.607a7.1,7.1,0,0,0,6.777,7V63.742H19.979V49.549a1.317,1.317,0,0,0-1.311-1.311,1.3,1.3,0,0,0-1.311,1.311V63.71h-3.2V31.9a1.311,1.311,0,0,0-2.621,0V63.71H1.311A1.317,1.317,0,0,0,0,65.021a1.3,1.3,0,0,0,1.311,1.311H63.039a1.317,1.317,0,0,0,1.311-1.311A1.36,1.36,0,0,0,63.039,63.71ZM31.136,2.589a5.019,5.019,0,1,1-5.019,5.019A5.027,5.027,0,0,1,31.136,2.589ZM19.276,39.575V27.044a11.365,11.365,0,0,1,1.886-6.3,12.444,12.444,0,0,1,20.715-.032,11.628,11.628,0,0,1,1.886,6.3V39.575A4.476,4.476,0,0,1,39.8,43.955V27.46a1.311,1.311,0,1,0-2.621,0V63.71H32.606v-18a1.311,1.311,0,1,0-2.621,0V63.742H26.053V27.46a1.311,1.311,0,1,0-2.621,0V43.987A4.507,4.507,0,0,1,19.276,39.575Z" transform="translate(0)"/>
      </g>
    </g>
  </g>
</svg>
