<svg xmlns="http://www.w3.org/2000/svg" width="55.91" height="55.91" viewBox="0 0 55.91 55.91">
  <g id="icon-personal-thanks-1" transform="translate(-756 -680)">
    <circle id="Ellipse_1608" data-name="Ellipse 1608" cx="27.955" cy="27.955" r="27.955" transform="translate(756 680)" fill="rgba(222,223,224,0)"/>
    <g id="Group_18493" data-name="Group 18493" transform="translate(768 691.906)">
      <g id="Group_3" data-name="Group 3" transform="translate(0 0)">
        <g id="Group_108" data-name="Group 108" transform="translate(0 0)">
          <g id="Group_104" data-name="Group 104" transform="translate(0 15.929)">
            <path id="Path_124" data-name="Path 124" d="M-16231.124,3881.581h3.735" transform="translate(16231.124 -3881.581)" fill="none" stroke="#06070c" stroke-width="1"/>
            <path id="Path_125" data-name="Path 125" d="M-16231.124,3881.581h3.735" transform="translate(16259.247 -3881.581)" fill="none" stroke="#06070c" stroke-width="1"/>
          </g>
          <g id="Group_106" data-name="Group 106" transform="translate(24.552 7.308) rotate(-45)">
            <path id="Path_125-2" data-name="Path 125" d="M0,0H3.736" transform="translate(0 0)" fill="none" stroke="#06070c" stroke-width="1"/>
          </g>
          <path id="Path_125-3" data-name="Path 125" d="M0,0H3.736" transform="translate(15.93 3.736) rotate(-90)" fill="none" stroke="#06070c" stroke-width="1"/>
          <g id="Group_107" data-name="Group 107" transform="translate(4.666 4.665) rotate(45)">
            <path id="Path_124-2" data-name="Path 124" d="M0,0H3.736" transform="translate(0 0)" fill="none" stroke="#06070c" stroke-width="1"/>
          </g>
        </g>
        <g id="Group_115" data-name="Group 115" transform="translate(7.83 7.589)">
          <path id="Union_1" data-name="Union 1" d="M3.95,16.969a9.57,9.57,0,0,0-1.831-3.358,8.136,8.136,0,1,1,12.2-.189A13.17,13.17,0,0,0,12.4,16.969Z" transform="translate(0 0)" fill="none" stroke="#06070c" stroke-width="1"/>
          <g id="Group_103" data-name="Group 103" transform="translate(3.634 21.034)">
            <path id="Path_121" data-name="Path 121" d="M-16206.179,3902.5h8.9" transform="translate(16206.179 -3902.5)" fill="none" stroke="#06070c" stroke-width="1"/>
            <path id="Path_122" data-name="Path 122" d="M-16206.179,3902.97h6.645" transform="translate(16207.306 -3899.142)" fill="none" stroke="#06070c" stroke-width="1"/>
          </g>
        </g>
      </g>
    </g>
  </g>
</svg>
