<svg xmlns="http://www.w3.org/2000/svg" width="22.308" height="31.937" viewBox="0 0 22.308 31.937">
  <g id="icon-personal-thanks-1" transform="translate(-1215 -1283)">
    <g id="Ellipse_1604" data-name="Ellipse 1604" transform="translate(1215 1283)" fill="#f8a508" stroke="#f8a508" stroke-width="1">
      <circle cx="11.154" cy="11.154" r="11.154" stroke="none"/>
      <circle cx="11.154" cy="11.154" r="10.654" fill="none"/>
    </g>
    <path id="Path_8928" data-name="Path 8928" d="M-19836.559,9135.141v11.514l4.549-4.547,4.547,4.547v-11.514" transform="translate(21058.15 -7831.718)" fill="#f9a507"/>
    <path id="Path_8929" data-name="Path 8929" d="M1.439,2.506l1.693-.469L4.128.6l1.593.74L7.4.87l.754,1.593,1.579.725L9.291,4.882l.74,1.579L8.609,7.471,8.168,9.163l-1.75-.142L5,10.031,3.758,8.794l-1.75-.142L1.852,6.916.6,5.678,1.61,4.242Z" transform="translate(1220.991 1288.991)" fill="#dedfe0"/>
  </g>
</svg>
