<svg xmlns="http://www.w3.org/2000/svg" viewBox="0 0 40.045 53.147">
  <defs>
    <style>
      .cls-1, .cls-2 {
        fill: none;
      }

      .cls-2 {
        stroke: #fdfdfd;
        stroke-width: 2px;
      }

      .cls-3, .cls-4 {
        stroke: none;
      }

      .cls-4 {
        fill: #fdfdfd;
      }
    </style>
  </defs>
  <g id="Group_17339" data-name="Group 17339" transform="translate(-6304 -5055.022)">
    <g id="Path_8898" data-name="Path 8898" class="cls-1" transform="translate(6304 5077.022)">
      <path class="cls-3" d="M6.674,0h26.7a6.674,6.674,0,0,1,6.674,6.674V31.146H0V6.674A6.674,6.674,0,0,1,6.674,0Z"/>
      <path class="cls-4" d="M 6.674152374267578 1.999994277954102 C 4.096809387207031 1.999994277954102 2 4.09681510925293 2 6.674154281616211 L 2 29.14604568481445 L 38.044921875 29.14604568481445 L 38.044921875 6.674154281616211 C 38.044921875 4.09681510925293 35.94811248779297 1.999994277954102 33.37076950073242 1.999994277954102 L 6.674152374267578 1.999994277954102 M 6.674152374267578 -5.7220458984375e-06 L 33.37076950073242 -5.7220458984375e-06 C 37.05680084228516 -5.7220458984375e-06 40.044921875 2.988124847412109 40.044921875 6.674154281616211 L 40.044921875 31.14604568481445 C 25.99020004272461 31.14604568481445 9.344449996948242 31.14604568481445 0 31.14604568481445 L 0 6.674154281616211 C 0 2.988124847412109 2.988121032714844 -5.7220458984375e-06 6.674152374267578 -5.7220458984375e-06 Z"/>
    </g>
    <path id="Path_8899" data-name="Path 8899" class="cls-2" d="M442.56,3485.19s7.246,2.522,11.258-5.785c1.386-.371,6.342,12.549,15.853,0,.507-.292.807,5.785,10.486,5.785" transform="translate(5862.686 1607.406)"/>
    <path id="Path_8900" data-name="Path 8900" class="cls-2" d="M451,3473.279v5.435" transform="translate(5873.022 1599.915)"/>
    <path id="Path_8901" data-name="Path 8901" class="cls-2" d="M452.892,3466s-7.764,13.121,0,13.256S452.892,3466,452.892,3466Z" transform="translate(5871.113 1591)"/>
  </g>
</svg>
