<svg id="Group_19716" data-name="Group 19716" xmlns="http://www.w3.org/2000/svg" width="20.576" height="27.055" viewBox="0 0 20.576 27.055">
  <g id="Union_5" data-name="Union 5" transform="translate(11.536 5.788)" fill="none">
    <path d="M3.6,19.24a.869.869,0,0,1-.869-.869l-.9-8.689h-.7A1.124,1.124,0,0,1,0,8.565L.628,1.117A1.124,1.124,0,0,1,1.758,0h5.4a1.124,1.124,0,0,1,1.13,1.117L9.04,8.565A1.124,1.124,0,0,1,7.91,9.682h-.68l-.9,8.689a.869.869,0,0,1-.869.869Z" stroke="none"/>
    <path d="M 5.338838577270508 18.23996162414551 L 6.234794616699219 9.579192161560059 L 6.32759428024292 8.68209171295166 L 7.229484558105469 8.68209171295166 L 7.909504413604736 8.68209171295166 C 7.972145557403564 8.68209171295166 8.024582862854004 8.641952514648438 8.036811828613281 8.588714599609375 L 7.291284561157227 1.217791795730591 L 7.28620433807373 1.167601823806763 L 7.28620433807373 1.117161750793457 C 7.28620433807373 1.05256175994873 7.227884292602539 1.000001788139343 7.156204223632813 1.000001788139343 L 1.757634401321411 1.000001788139343 C 1.686004400253296 1.000001788139343 1.627734422683716 1.05256175994873 1.627734422683716 1.117161750793457 L 1.627734422683716 1.159231781959534 L 1.624204397201538 1.201151728630066 L 1.001877188682556 8.584820747375488 C 1.012378931045532 8.639982223510742 1.065788745880127 8.68209171295166 1.129894375801086 8.68209171295166 L 1.831924438476563 8.68209171295166 L 2.733814477920532 8.68209171295166 L 2.826614379882813 9.579192161560059 L 3.722560167312622 18.23996162414551 L 5.338838577270508 18.23996162414551 M 5.461694240570068 19.23996162414551 L 3.599714517593384 19.23996162414551 C 3.119894504547119 19.23996162414551 2.73078441619873 18.85096168518066 2.73078441619873 18.37103271484375 L 1.831924438476563 9.68209171295166 L 1.129894375801086 9.68209171295166 C 0.5058544278144836 9.68209171295166 4.409790108184097e-06 9.181941986083984 4.409790108184097e-06 8.564931869506836 L 0.6277344226837158 1.117161750793457 C 0.6277344226837158 0.5001517534255981 1.133584380149841 1.765747015269881e-06 1.757634401321411 1.765747015269881e-06 L 7.156204223632813 1.765747015269881e-06 C 7.78024435043335 1.765747015269881e-06 8.28620433807373 0.5001517534255981 8.28620433807373 1.117161750793457 L 9.039504051208496 8.564931869506836 C 9.039504051208496 9.181941986083984 8.533544540405273 9.68209171295166 7.909504413604736 9.68209171295166 L 7.229484558105469 9.68209171295166 L 6.330614566802979 18.37103271484375 C 6.330614566802979 18.85096168518066 5.941514492034912 19.23996162414551 5.461694240570068 19.23996162414551 Z" stroke="none" fill="#898888"/>
  </g>
  <g id="Union_6" data-name="Union 6" transform="translate(0 5.788)" fill="none">
    <path d="M3.6,19.24a.869.869,0,0,1-.869-.869l-.9-8.689h-.7A1.124,1.124,0,0,1,0,8.565L.628,1.117A1.124,1.124,0,0,1,1.758,0h5.4a1.124,1.124,0,0,1,1.13,1.117L9.04,8.565A1.124,1.124,0,0,1,7.91,9.682h-.68l-.9,8.689a.869.869,0,0,1-.869.869Z" stroke="none"/>
    <path d="M 5.338838577270508 18.23996162414551 L 6.234794616699219 9.579192161560059 L 6.32759428024292 8.68209171295166 L 7.229484558105469 8.68209171295166 L 7.909504413604736 8.68209171295166 C 7.972145557403564 8.68209171295166 8.024582862854004 8.641952514648438 8.036811828613281 8.588714599609375 L 7.291284561157227 1.217791795730591 L 7.28620433807373 1.167601823806763 L 7.28620433807373 1.117161750793457 C 7.28620433807373 1.05256175994873 7.227884292602539 1.000001788139343 7.156204223632813 1.000001788139343 L 1.757634401321411 1.000001788139343 C 1.686004400253296 1.000001788139343 1.627734422683716 1.05256175994873 1.627734422683716 1.117161750793457 L 1.627734422683716 1.159231781959534 L 1.624204397201538 1.201151728630066 L 1.001877188682556 8.584820747375488 C 1.012378931045532 8.639982223510742 1.065788745880127 8.68209171295166 1.129894375801086 8.68209171295166 L 1.831924438476563 8.68209171295166 L 2.733814477920532 8.68209171295166 L 2.826614379882813 9.579192161560059 L 3.722560167312622 18.23996162414551 L 5.338838577270508 18.23996162414551 M 5.461694240570068 19.23996162414551 L 3.599714517593384 19.23996162414551 C 3.119894504547119 19.23996162414551 2.73078441619873 18.85096168518066 2.73078441619873 18.37103271484375 L 1.831924438476563 9.68209171295166 L 1.129894375801086 9.68209171295166 C 0.5058544278144836 9.68209171295166 4.409790108184097e-06 9.181941986083984 4.409790108184097e-06 8.564931869506836 L 0.6277344226837158 1.117161750793457 C 0.6277344226837158 0.5001517534255981 1.133584380149841 1.765747015269881e-06 1.757634401321411 1.765747015269881e-06 L 7.156204223632813 1.765747015269881e-06 C 7.78024435043335 1.765747015269881e-06 8.28620433807373 0.5001517534255981 8.28620433807373 1.117161750793457 L 9.039504051208496 8.564931869506836 C 9.039504051208496 9.181941986083984 8.533544540405273 9.68209171295166 7.909504413604736 9.68209171295166 L 7.229484558105469 9.68209171295166 L 6.330614566802979 18.37103271484375 C 6.330614566802979 18.85096168518066 5.941514492034912 19.23996162414551 5.461694240570068 19.23996162414551 Z" stroke="none" fill="#898888"/>
  </g>
  <g id="Ellipse_1292" data-name="Ellipse 1292" transform="translate(13.771 0.575)" fill="none" stroke="#898888" stroke-width="1">
    <ellipse cx="2.234" cy="2.234" rx="2.234" ry="2.234" stroke="none"/>
    <ellipse cx="2.234" cy="2.234" rx="1.734" ry="1.734" fill="none"/>
  </g>
  <g id="Ellipse_1293" data-name="Ellipse 1293" transform="translate(2.234 0.575)" fill="none" stroke="#898888" stroke-width="1">
    <ellipse cx="2.234" cy="2.234" rx="2.234" ry="2.234" stroke="none"/>
    <ellipse cx="2.234" cy="2.234" rx="1.734" ry="1.734" fill="none"/>
  </g>
  <g id="Union_4" data-name="Union 4" transform="translate(5.273 5.768)" fill="#f7f7f7">
    <path d="M 6.042787551879883 20.7870044708252 L 3.982707500457764 20.7870044708252 C 3.728307485580444 20.7870044708252 3.521337509155273 20.58003425598145 3.521337509155273 20.32563400268555 L 3.521337509155273 20.29984474182129 L 3.51868748664856 20.27418327331543 L 2.524187564849854 10.66077423095703 L 2.477777481079102 10.21222400665283 L 2.026837587356567 10.21222400665283 L 1.250117540359497 10.21222400665283 C 0.8427331447601318 10.21222400665283 0.5101611614227295 9.891898155212402 0.5002262592315674 9.494480133056641 L 1.192747473716736 1.278014183044434 L 1.194517493247986 1.257054090499878 L 1.194517493247986 1.236024141311646 C 1.194517493247986 0.8301841616630554 1.531017541885376 0.5000041723251343 1.944637537002563 0.5000041723251343 L 7.917587757110596 0.5000041723251343 C 8.331267356872559 0.5000041723251343 8.667827606201172 0.8301841616630554 8.667827606201172 1.236024141311646 L 8.667827606201172 1.261244177818298 L 8.670367240905762 1.286344170570374 L 9.500947952270508 9.498151779174805 C 9.489089965820313 9.893894195556641 9.157243728637695 10.21222400665283 8.75103759765625 10.21222400665283 L 7.99866771697998 10.21222400665283 L 7.547727584838867 10.21222400665283 L 7.501317501068115 10.66077423095703 L 6.50681734085083 20.27418327331543 L 6.504167556762695 20.29984474182129 L 6.504167556762695 20.32563400268555 C 6.504167556762695 20.58003425598145 6.297197341918945 20.7870044708252 6.042787551879883 20.7870044708252 Z" stroke="none"/>
    <path d="M 6.004167556762695 20.2870044708252 L 6.004167556762695 20.27404403686523 L 6.009477615356445 20.22273445129395 L 7.003977298736572 10.60932445526123 L 7.096777439117432 9.712224006652832 L 7.99866771697998 9.712224006652832 L 8.75103759765625 9.712224006652832 C 8.878162384033203 9.712224006652832 8.983454704284668 9.622341156005859 8.999236106872559 9.506422996520996 L 8.172907829284668 1.336654186248779 L 8.167827606201172 1.286464095115662 L 8.167827606201172 1.236024141311646 C 8.167827606201172 1.105884194374084 8.055567741394043 1.000004172325134 7.917587757110596 1.000004172325134 L 1.944637537002563 1.000004172325134 C 1.80671751499176 1.000004172325134 1.694517493247986 1.105884194374084 1.694517493247986 1.236024141311646 L 1.694517493247986 1.278094172477722 L 1.690987586975098 1.320014119148254 L 1.001418709754944 9.501450538635254 C 1.014816999435425 9.619759559631348 1.121238470077515 9.712224006652832 1.250117540359497 9.712224006652832 L 2.026837587356567 9.712224006652832 L 2.928727626800537 9.712224006652832 L 3.021527528762817 10.60932445526123 L 4.016027450561523 20.22273445129395 L 4.021337509155273 20.27404403686523 L 4.021337509155273 20.2870044708252 L 6.004167556762695 20.2870044708252 M 6.042787551879883 21.2870044708252 L 3.982707500457764 21.2870044708252 C 3.451837539672852 21.2870044708252 3.021337509155273 20.85662460327148 3.021337509155273 20.32563400268555 L 2.026837587356567 10.71222400665283 L 1.250117540359497 10.71222400665283 C 0.5596675276756287 10.71222400665283 -2.468719458192936e-06 10.15886402130127 -2.468719458192936e-06 9.476203918457031 L 0.6945175528526306 1.236024141311646 C 0.6945175528526306 0.5533641576766968 1.25418758392334 4.142761099501513e-06 1.944637537002563 4.142761099501513e-06 L 7.917587757110596 4.142761099501513e-06 C 8.608027458190918 4.142761099501513e-06 9.167827606201172 0.5533641576766968 9.167827606201172 1.236024141311646 L 10.00127792358398 9.476203918457031 C 10.00127792358398 10.15886402130127 9.44147777557373 10.71222400665283 8.75103759765625 10.71222400665283 L 7.99866771697998 10.71222400665283 L 7.004167556762695 20.32563400268555 C 7.004167556762695 20.85662460327148 6.573657512664795 21.2870044708252 6.042787551879883 21.2870044708252 Z" stroke="none" fill="#898888"/>
  </g>
  <g id="Path_6703" data-name="Path 6703" transform="translate(7.745 0)" fill="#f7f7f7">
    <path d="M 2.472044467926025 4.444082736968994 C 1.384654521942139 4.444082736968994 0.5000044703483582 3.559432506561279 0.5000044703483582 2.472042560577393 C 0.5000044703483582 1.384652614593506 1.384654521942139 0.5000025629997253 2.472044467926025 0.5000025629997253 C 3.559434413909912 0.5000025629997253 4.444084644317627 1.384652614593506 4.444084644317627 2.472042560577393 C 4.444084644317627 3.559432506561279 3.559434413909912 4.444082736968994 2.472044467926025 4.444082736968994 Z" stroke="none"/>
    <path d="M 2.472044467926025 1.00000262260437 C 1.660354375839233 1.00000262260437 1.000004529953003 1.660352468490601 1.000004529953003 2.472042560577393 C 1.000004529953003 3.283732414245605 1.660354375839233 3.944082736968994 2.472044467926025 3.944082736968994 C 3.283734321594238 3.944082736968994 3.944084644317627 3.283732414245605 3.944084644317627 2.472042560577393 C 3.944084644317627 1.660352468490601 3.283734321594238 1.00000262260437 2.472044467926025 1.00000262260437 M 2.472044467926025 2.384185791015625e-06 C 3.837314605712891 2.384185791015625e-06 4.944084644317627 1.106772661209106 4.944084644317627 2.472042560577393 C 4.944084644317627 3.837312698364258 3.837314605712891 4.944082736968994 2.472044467926025 4.944082736968994 C 1.106774568557739 4.944082736968994 4.291534423828125e-06 3.837312698364258 4.291534423828125e-06 2.472042560577393 C 4.291534423828125e-06 1.106772661209106 1.106774568557739 2.384185791015625e-06 2.472044467926025 2.384185791015625e-06 Z" stroke="none" fill="#898888"/>
  </g>
</svg>
