<svg xmlns="http://www.w3.org/2000/svg" width="87.295" height="76.043" viewBox="0 0 87.295 76.043">
  <g id="Group_18682" data-name="Group 18682" transform="translate(-7085 -2535)">
    <path id="Subtraction_184" data-name="Subtraction 184" d="M55.728,76H10A10.011,10.011,0,0,1,0,66V0H65.728V66A10.011,10.011,0,0,1,55.728,76Z" transform="translate(7085 2535)" fill="#edeeee"/>
    <path id="Subtraction_183" data-name="Subtraction 183" d="M8.432,38H8a8.009,8.009,0,0,1-8-8V0H16.432V30A8.009,8.009,0,0,1,8.432,38Z" transform="translate(7155.863 2570.946)" fill="#edeeee"/>
    <path id="Path_871" data-name="Path 871" d="M.5,1.1H22.455v21.56H.5Z" transform="translate(7096.975 2545.902)" fill="#dedfe0"/>
    <path id="Path_867" data-name="Path 867" d="M4977.032,4593.014h44.233" transform="translate(2118.66 -2013.391)" fill="none" stroke="#dedfe0" stroke-width="3"/>
    <path id="Path_872" data-name="Path 872" d="M4977.032,4593.014h44.233" transform="translate(2118.66 -2003.021)" fill="none" stroke="#dedfe0" stroke-width="3"/>
    <path id="Path_869" data-name="Path 869" d="M4977.329,4593.014h14.487" transform="translate(2148.112 -2035.396)" fill="none" stroke="#dedfe0" stroke-width="3"/>
    <path id="Path_870" data-name="Path 870" d="M4977.329,4593.014h14.487" transform="translate(2148.112 -2025.446)" fill="none" stroke="#dedfe0" stroke-width="3"/>
    <path id="Path_869-2" data-name="Path 869" d="M4977.329,4593.014h14.487" transform="translate(2148.112 -2045.347)" fill="none" stroke="#dedfe0" stroke-width="3"/>
    <path id="Path_9407" data-name="Path 9407" d="M7128.106,2606.276l5.9,3.569h20.552s-5.219-1.572-5.219-12.194a55.686,55.686,0,0,0-2.986-18.328l-11.291,26.953Z" transform="translate(1.164 1.197)" fill="#edeeee"/>
  </g>
</svg>
