<svg xmlns="http://www.w3.org/2000/svg" width="100" height="100" viewBox="0 0 100 100">
  <g id="icon-menu-personal" transform="translate(-877 -381)">
    <rect id="Rectangle_3" data-name="Rectangle 3" width="100" height="100" transform="translate(877 381)" fill="none"/>
    <g id="Group_2" data-name="Group 2" transform="translate(-12043 111.493)">
      <path id="Path_8911" data-name="Path 8911" d="M11209.974,10368.837v-6.039a4.874,4.874,0,0,1,2.051-3.4c2.06-1.712,9.9-6.167,9.9-6.167v-5.935a5.207,5.207,0,0,1-1.517-3.24c-.048-1.853,0-1.745,0-7.424s5.475-7.212,7.789-7.212,7.815.811,7.821,7.212,0,7.424,0,7.424-.133,2.648-1.7,3.24v5.935s8.378,5.027,9.694,6.615a5.18,5.18,0,0,1,1.388,4.122c-.049,1.5,0,4.14,0,4.14" transform="translate(1742.026 -10032.912)" fill="none" stroke="#fff" stroke-width="2"/>
      <path id="Path_8912" data-name="Path 8912" d="M11224.848,10354.343s.178,2.651,2.632,2.651,2.444-2.651,2.444-2.651" transform="translate(1742.6 -10033.914)" fill="none" stroke="#fff" stroke-width="2"/>
      <path id="Path_8913" data-name="Path 8913" d="M11226.308,10356.881l-1.044,17.319,2.34,1.843,2.48-1.843-1.044-17.319" transform="translate(1742.216 -10033.801)" fill="none" stroke="#fff" stroke-width="2"/>
    </g>
  </g>
</svg>
