<svg xmlns="http://www.w3.org/2000/svg" viewBox="0 0 50 50">
  <defs>
    <style>
      .cls-1, .cls-2, .cls-3 {
        fill: none;
      }

      .cls-3 {
        stroke: #fff;
        stroke-width: 2px;
      }

      .cls-4 {
        fill: #768692;
      }

      .cls-5, .cls-6 {
        stroke: none;
      }

      .cls-6 {
        fill: #fff;
      }
    </style>
  </defs>
  <g id="icon-menu-employees" transform="translate(-6776 -6885)">
    <rect id="Rectangle_11714" data-name="Rectangle 11714" class="cls-1" width="50" height="50" transform="translate(6776 6885)"/>
    <g id="Group_14614" data-name="Group 14614" transform="translate(6783 6887)">
      <g id="Union_5" data-name="Union 5" class="cls-2" transform="translate(19.866 9.968)">
        <path class="cls-5" d="M6.2,33.132a1.5,1.5,0,0,1-1.5-1.5L3.155,16.673H1.946A1.935,1.935,0,0,1,0,14.749L1.081,1.924A1.935,1.935,0,0,1,3.027,0h9.3a1.935,1.935,0,0,1,1.946,1.924l1.3,12.825a1.935,1.935,0,0,1-1.946,1.924H12.449L10.9,31.636a1.5,1.5,0,0,1-1.5,1.5Z"/>
        <path class="cls-6" d="M 8.943015098571777 31.13199806213379 L 10.46008110046387 16.4671573638916 L 10.64569091796875 14.67295837402344 L 12.44946098327637 14.67295837402344 L 13.54848575592041 14.67295837402344 L 12.27933120727539 2.125058174133301 L 12.26918029785156 2.024688005447388 L 12.26918029785156 1.999998092651367 L 3.080980777740479 1.999998092651367 L 3.080980777740479 2.007938146591187 L 3.073910713195801 2.091768026351929 L 2.013511419296265 14.67295837402344 L 3.154650688171387 14.67295837402344 L 4.958420753479004 14.67295837402344 L 5.144030570983887 16.4671573638916 L 6.661096572875977 31.13199806213379 L 8.943015098571777 31.13199806213379 M 9.405250549316406 33.13199996948242 L 6.198860645294189 33.13199996948242 C 5.3725905418396 33.13199996948242 4.702530860900879 32.46212768554688 4.702530860900879 31.63566780090332 L 3.154650688171387 16.67295837402344 L 1.945730686187744 16.67295837402344 C 0.8710907697677612 16.67295837402344 7.408141868836537e-07 15.81167793273926 7.408141868836537e-07 14.74916839599609 L 1.080980777740479 1.923798084259033 C 1.080980777740479 0.8612880706787109 1.952080726623535 -1.92260745279782e-06 3.026710748672485 -1.92260745279782e-06 L 12.32327079772949 -1.92260745279782e-06 C 13.39790058135986 -1.92260745279782e-06 14.26918029785156 0.8612880706787109 14.26918029785156 1.923798084259033 L 15.5664005279541 14.74916839599609 C 15.5664005279541 15.81167793273926 14.69511032104492 16.67295837402344 13.62048053741455 16.67295837402344 L 12.44946098327637 16.67295837402344 L 10.90158081054688 31.63566780090332 C 10.90158081054688 32.46212768554688 10.231520652771 33.13199996948242 9.405250549316406 33.13199996948242 Z"/>
      </g>
      <g id="Union_6" data-name="Union 6" class="cls-2" transform="translate(0 9.968)">
        <path class="cls-5" d="M6.2,33.132a1.5,1.5,0,0,1-1.5-1.5L3.155,16.673H1.946A1.935,1.935,0,0,1,0,14.749L1.081,1.924A1.935,1.935,0,0,1,3.027,0h9.3a1.935,1.935,0,0,1,1.946,1.924l1.3,12.825a1.935,1.935,0,0,1-1.946,1.924H12.449L10.9,31.636a1.5,1.5,0,0,1-1.5,1.5Z"/>
        <path class="cls-6" d="M 8.943015098571777 31.13199806213379 L 10.46008110046387 16.4671573638916 L 10.64569091796875 14.67295837402344 L 12.44946098327637 14.67295837402344 L 13.54848575592041 14.67295837402344 L 12.27933120727539 2.125058174133301 L 12.26918029785156 2.024688005447388 L 12.26918029785156 1.999998092651367 L 3.080980777740479 1.999998092651367 L 3.080980777740479 2.007938146591187 L 3.073910713195801 2.091768026351929 L 2.013511419296265 14.67295837402344 L 3.154650688171387 14.67295837402344 L 4.958420753479004 14.67295837402344 L 5.144030570983887 16.4671573638916 L 6.661096572875977 31.13199806213379 L 8.943015098571777 31.13199806213379 M 9.405250549316406 33.13199996948242 L 6.198860645294189 33.13199996948242 C 5.3725905418396 33.13199996948242 4.702530860900879 32.46212768554688 4.702530860900879 31.63566780090332 L 3.154650688171387 16.67295837402344 L 1.945730686187744 16.67295837402344 C 0.8710907697677612 16.67295837402344 7.408141868836537e-07 15.81167793273926 7.408141868836537e-07 14.74916839599609 L 1.080980777740479 1.923798084259033 C 1.080980777740479 0.8612880706787109 1.952080726623535 -1.92260745279782e-06 3.026710748672485 -1.92260745279782e-06 L 12.32327079772949 -1.92260745279782e-06 C 13.39790058135986 -1.92260745279782e-06 14.26918029785156 0.8612880706787109 14.26918029785156 1.923798084259033 L 15.5664005279541 14.74916839599609 C 15.5664005279541 15.81167793273926 14.69511032104492 16.67295837402344 13.62048053741455 16.67295837402344 L 12.44946098327637 16.67295837402344 L 10.90158081054688 31.63566780090332 C 10.90158081054688 32.46212768554688 10.231520652771 33.13199996948242 9.405250549316406 33.13199996948242 Z"/>
      </g>
      <g id="Ellipse_1292" data-name="Ellipse 1292" class="cls-3" transform="translate(23.713 0.99)">
        <ellipse class="cls-5" cx="3.848" cy="3.848" rx="3.848" ry="3.848"/>
        <ellipse class="cls-1" cx="3.848" cy="3.848" rx="2.848" ry="2.848"/>
      </g>
      <g id="Ellipse_1293" data-name="Ellipse 1293" class="cls-3" transform="translate(3.848 0.99)">
        <ellipse class="cls-5" cx="3.848" cy="3.848" rx="3.848" ry="3.848"/>
        <ellipse class="cls-1" cx="3.848" cy="3.848" rx="2.848" ry="2.848"/>
      </g>
      <g id="Union_4" data-name="Union 4" class="cls-4" transform="translate(9.08 9.933)">
        <path class="cls-5" d="M 10.405930519104 35.65709686279297 L 6.858390331268311 35.65709686279297 C 6.496930599212646 35.65709686279297 6.202860355377197 35.3630256652832 6.202860355377197 35.00155639648438 L 6.202860355377197 34.94996643066406 L 6.197550296783447 34.89865493774414 L 4.484980583190918 18.34398651123047 L 4.392180442810059 17.44688606262207 L 3.490290403366089 17.44688606262207 L 2.152750492095947 17.44688606262207 C 1.529224753379822 17.44688606262207 1.019739866256714 16.95978355407715 1.000561714172363 16.35385513305664 L 2.192460536956787 2.212466478347778 L 2.195990562438965 2.170546531677246 L 2.195990562438965 2.128476619720459 C 2.195990562438965 1.506226539611816 2.713110446929932 0.999996542930603 3.348740577697754 0.999996542930603 L 13.6344108581543 0.999996542930603 C 14.27015018463135 0.999996542930603 14.78736019134521 1.506226539611816 14.78736019134521 2.128476619720459 L 14.78736019134521 2.178916454315186 L 14.79244041442871 2.229106426239014 L 16.2217960357666 16.36085319519043 C 16.19892501831055 16.96352386474609 15.69086837768555 17.44688606262207 15.06964015960693 17.44688606262207 L 13.77402019500732 17.44688606262207 L 12.87213039398193 17.44688606262207 L 12.77933025360107 18.34398651123047 L 11.06677055358887 34.89865493774414 L 11.06146049499512 34.94996643066406 L 11.06146049499512 35.00155639648438 C 11.06146049499512 35.3630256652832 10.76739025115967 35.65709686279297 10.405930519104 35.65709686279297 Z"/>
        <path class="cls-6" d="M 10.08642482757568 34.65709686279297 L 11.78464031219482 18.24108695983887 L 11.97024059295654 16.44688606262207 L 13.77402019500732 16.44688606262207 L 15.06964015960693 16.44688606262207 C 15.14355373382568 16.44688606262207 15.1978645324707 16.40353965759277 15.21601104736328 16.35416984558105 L 13.79751014709473 2.329736471176147 L 13.78736019134521 2.229366540908813 L 13.78736019134521 2.128476619720459 C 13.78736019134521 2.066426515579224 13.72590065002441 1.999996542930603 13.6344108581543 1.999996542930603 L 3.348740577697754 1.999996542930603 C 3.257370471954346 1.999996542930603 3.195990562438965 2.066426515579224 3.195990562438965 2.128476619720459 L 3.195990562438965 2.212616443634033 L 3.188920497894287 2.296446561813354 L 2.004576206207275 16.34820365905762 C 2.020388841629028 16.39999198913574 2.07598614692688 16.44688606262207 2.152750492095947 16.44688606262207 L 3.490290403366089 16.44688606262207 L 5.294060230255127 16.44688606262207 L 5.479670524597168 18.24108695983887 L 7.177896022796631 34.65709686279297 L 10.08642482757568 34.65709686279297 M 10.405930519104 36.65709686279297 L 6.858390331268311 36.65709686279297 C 5.944210529327393 36.65709686279297 5.202860355377197 35.91595840454102 5.202860355377197 35.00155639648438 L 3.490290403366089 18.44688606262207 L 2.152750492095947 18.44688606262207 C 0.9637804627418518 18.44688606262207 4.684448242642247e-07 17.49396705627441 4.684448242642247e-07 16.31840705871582 L 1.195990443229675 2.128476619720459 C 1.195990443229675 0.9529265165328979 2.159770488739014 -3.47595209859719e-06 3.348740577697754 -3.47595209859719e-06 L 13.6344108581543 -3.47595209859719e-06 C 14.82338047027588 -3.47595209859719e-06 15.78736019134521 0.9529265165328979 15.78736019134521 2.128476619720459 L 17.22260093688965 16.31840705871582 C 17.22260093688965 17.49396705627441 16.25860977172852 18.44688606262207 15.06964015960693 18.44688606262207 L 13.77402019500732 18.44688606262207 L 12.06146049499512 35.00155639648438 C 12.06146049499512 35.91595840454102 11.32011032104492 36.65709686279297 10.405930519104 36.65709686279297 Z"/>
      </g>
      <g id="Path_6703" data-name="Path 6703" class="cls-4" transform="translate(13.337 0)">
        <path class="cls-5" d="M 4.256960868835449 7.513917446136475 C 2.461070775985718 7.513917446136475 1.000000834465027 6.052847385406494 1.000000834465027 4.256957530975342 C 1.000000834465027 2.46106743812561 2.461070775985718 0.9999975562095642 4.256960868835449 0.9999975562095642 C 6.052850723266602 0.9999975562095642 7.513920783996582 2.46106743812561 7.513920783996582 4.256957530975342 C 7.513920783996582 6.052847385406494 6.052850723266602 7.513917446136475 4.256960868835449 7.513917446136475 Z"/>
        <path class="cls-6" d="M 4.256960868835449 6.513917446136475 C 5.501451015472412 6.513917446136475 6.513920783996582 5.501447677612305 6.513920783996582 4.256957530975342 C 6.513920783996582 3.012467622756958 5.501451015472412 1.999997496604919 4.256960868835449 1.999997496604919 C 3.012470960617065 1.999997496604919 2.000000953674316 3.012467622756958 2.000000953674316 4.256957530975342 C 2.000000953674316 5.501447677612305 3.012470960617065 6.513917446136475 4.256960868835449 6.513917446136475 M 4.256960868835449 8.513917922973633 C 1.905910849571228 8.513917922973633 8.688354569130752e-07 6.608007431030273 8.688354569130752e-07 4.256957530975342 C 8.688354569130752e-07 1.905907511711121 1.905910849571228 -2.469024593665381e-06 4.256960868835449 -2.469024593665381e-06 C 6.608010768890381 -2.469024593665381e-06 8.513920783996582 1.905907511711121 8.513920783996582 4.256957530975342 C 8.513920783996582 6.608007431030273 6.608010768890381 8.513917922973633 4.256960868835449 8.513917922973633 Z"/>
      </g>
    </g>
  </g>
</svg>
