<svg xmlns="http://www.w3.org/2000/svg" width="95.795" height="83.809" viewBox="0 0 95.795 83.809">
  <g id="Group_18685" data-name="Group 18685" transform="translate(-1068 -2524)">
    <g id="Group_18683" data-name="Group 18683" transform="translate(1068 2524)">
      <path id="Path_9408" data-name="Path 9408" d="M87.539,67.856H9.256A8.756,8.756,0,0,1,.5,59.1V9.256A8.756,8.756,0,0,1,9.256.5H87.539A8.756,8.756,0,0,1,96.3,9.256V59.1A8.768,8.768,0,0,1,87.539,67.856Z" transform="translate(-0.5 -0.5)" fill="#edeeee"/>
      <path id="Path_9409" data-name="Path 9409" d="M111.97,277.737,104,277.6v32.117l7.97-5.829,7.97,5.829V277.6Z" transform="translate(-83.527 -228.864)" fill="#edeeee" stroke="#dedfe0" stroke-width="3"/>
      <path id="Path_9410" data-name="Path 9410" d="M14.186,0A14.186,14.186,0,1,1,0,14.186,14.186,14.186,0,0,1,14.186,0Z" transform="translate(14.257 27.241)" fill="#edeeee" stroke="#dedfe0" stroke-width="3"/>
    </g>
    <g id="Group_18684" data-name="Group 18684" transform="translate(1084.016 2539.615)">
      <path id="Path_9411" data-name="Path 9411" d="M6091.815,2543.759h63.049" transform="translate(-6091.815 -2543.759)" fill="none" stroke="#dedfe0" stroke-width="3"/>
      <path id="Path_9412" data-name="Path 9412" d="M6126.814,2543.759h23.7" transform="translate(-6087.461 -2529.627)" fill="none" stroke="#dedfe0" stroke-width="3"/>
      <path id="Path_9413" data-name="Path 9413" d="M6126.814,2543.759h23.7" transform="translate(-6087.461 -2515.496)" fill="none" stroke="#dedfe0" stroke-width="3"/>
    </g>
  </g>
</svg>
