<svg xmlns="http://www.w3.org/2000/svg" viewBox="0 0 35 35">
  <defs>
    <style>
      .cls-1, .cls-2, .cls-3 {
        fill: none;
      }

      .cls-3 {
        stroke: #768692;
        stroke-width: 2px;
      }

      .cls-4, .cls-5 {
        stroke: none;
      }

      .cls-5 {
        fill: #768692;
      }
    </style>
  </defs>
  <g id="Group_19171" data-name="Group 19171" transform="translate(995 4034)">
    <rect id="Rectangle_11948" data-name="Rectangle 11948" class="cls-1" width="35" height="35" transform="translate(-995 -4034)"/>
    <g id="Group_19168" data-name="Group 19168" transform="translate(-1024 -4469.579)">
      <g id="Group_17817" data-name="Group 17817" transform="translate(34.032 436)">
        <g id="Path_8989" data-name="Path 8989" class="cls-2" transform="translate(0)">
          <path class="cls-4" d="M12.214,0A12.214,12.214,0,0,1,24.427,12.214c0,6.745-12.214,21.846-12.214,21.846S0,18.959,0,12.214A12.214,12.214,0,0,1,12.214,0Z"/>
          <path class="cls-5" d="M 12.21366882324219 2.000003814697266 C 6.581829071044922 2.000003814697266 1.999998092651367 6.581832885742188 1.999998092651367 12.21367263793945 C 1.999998092651367 13.56133270263672 2.748088836669922 16.95442390441895 7.758258819580078 24.5374641418457 C 9.40007209777832 27.02239990234375 11.05660629272461 29.27701377868652 12.21366786956787 30.8012866973877 C 13.37075233459473 29.27698707580566 15.02726554870605 27.02239990234375 16.6690788269043 24.5374641418457 C 21.67924880981445 16.95442390441895 22.42733955383301 13.56133270263672 22.42733955383301 12.21367263793945 C 22.42733955383301 6.581832885742188 17.84550857543945 2.000003814697266 12.21366882324219 2.000003814697266 M 12.21366882324219 3.814697265625e-06 C 18.95909881591797 3.814697265625e-06 24.42733955383301 5.468242645263672 24.42733955383301 12.21367263793945 C 24.42733955383301 18.95909309387207 12.21366882324219 34.05940246582031 12.21366882324219 34.05940246582031 C 12.21366882324219 34.05940246582031 -1.9073486328125e-06 18.95909309387207 -1.9073486328125e-06 12.21367263793945 C -1.9073486328125e-06 5.468242645263672 5.46824836730957 3.814697265625e-06 12.21366882324219 3.814697265625e-06 Z"/>
        </g>
        <g id="Ellipse_1610" data-name="Ellipse 1610" class="cls-3" transform="translate(6.398 6.398)">
          <circle class="cls-4" cx="5.816" cy="5.816" r="5.816"/>
          <circle class="cls-1" cx="5.816" cy="5.816" r="4.816"/>
        </g>
      </g>
    </g>
  </g>
</svg>
