<svg xmlns="http://www.w3.org/2000/svg" viewBox="0 0 90.879 73.981">
  <defs>
    <style>
      .cls-1 {
        fill: #edeeee;
      }
    </style>
  </defs>
  <path id="Subtraction_183" data-name="Subtraction 183" class="cls-1" d="M10.456,73.981v-21.6a31.516,31.516,0,0,1-7.677-9.37A23.644,23.644,0,0,1,0,31.976,23.914,23.914,0,0,1,3.571,19.53,33.965,33.965,0,0,1,13.309,9.366,49.572,49.572,0,0,1,27.752,2.513a63.5,63.5,0,0,1,35.374,0A49.574,49.574,0,0,1,77.57,9.366,33.966,33.966,0,0,1,87.308,19.53a23.477,23.477,0,0,1,0,24.893A33.966,33.966,0,0,1,77.57,54.587a49.574,49.574,0,0,1-14.444,6.853,61.962,61.962,0,0,1-17.687,2.513A63.153,63.153,0,0,1,31.4,62.4L10.458,73.98Z"/>
</svg>
