<svg xmlns="http://www.w3.org/2000/svg" viewBox="0 0 28.468 15.5">
  <defs>
    <style>
      .cls-1, .cls-2 {
        fill: none;
      }

      .cls-1 {
        stroke: #050505;
      }

      .cls-3, .cls-4 {
        stroke: none;
      }

      .cls-4 {
        fill: #050505;
      }
    </style>
  </defs>
  <g id="Group_17756" data-name="Group 17756" transform="translate(-579.867 -912)">
    <path id="Path_34" data-name="Path 34" class="cls-1" d="M15.1.5c7.967,0,13.6,7.25,13.6,7.25S23.067,15,15.1,15,1.5,7.75,1.5,7.75,7.134.5,15.1.5Z" transform="translate(579 912)"/>
    <g id="Path_6597" data-name="Path 6597" class="cls-2" transform="translate(590 915)">
      <path class="cls-3" d="M4.57,0A4.57,4.57,0,1,1,0,4.57,4.57,4.57,0,0,1,4.57,0Z"/>
      <path class="cls-4" d="M 4.569582462310791 1 C 2.601312637329102 1 1.000002861022949 2.601289749145508 1.000002861022949 4.569549560546875 C 1.000002861022949 6.537809371948242 2.601312637329102 8.13909912109375 4.569582462310791 8.13909912109375 C 6.53785228729248 8.13909912109375 8.139162063598633 6.537809371948242 8.139162063598633 4.569549560546875 C 8.139162063598633 2.601289749145508 6.53785228729248 1 4.569582462310791 1 M 4.569582462310791 0 C 7.093292236328125 0 9.139162063598633 2.045859336853027 9.139162063598633 4.569549560546875 C 9.139162063598633 7.093239784240723 7.093292236328125 9.13909912109375 4.569582462310791 9.13909912109375 C 2.045872688293457 9.13909912109375 2.86102294921875e-06 7.093239784240723 2.86102294921875e-06 4.569549560546875 C 2.86102294921875e-06 2.045859336853027 2.045872688293457 0 4.569582462310791 0 Z"/>
    </g>
  </g>
</svg>
