<svg id="if_Picture3_3289574" xmlns="http://www.w3.org/2000/svg" width="20.969" height="18.966" viewBox="0 0 20.969 18.966">
  <ellipse id="Ellipse_1613" data-name="Ellipse 1613" cx="1.711" cy="1.711" rx="1.711" ry="1.711" transform="translate(14.885 0)" fill="#768692"/>
  <ellipse id="Ellipse_1614" data-name="Ellipse 1614" cx="1.711" cy="1.711" rx="1.711" ry="1.711" transform="translate(2.664 0)" fill="#768692"/>
  <ellipse id="Ellipse_1615" data-name="Ellipse 1615" cx="1.711" cy="1.711" rx="1.711" ry="1.711" transform="translate(8.775 0)" fill="#768692"/>
  <path id="Path_9418" data-name="Path 9418" d="M38.975,31.044l-1.1-4.057a1.02,1.02,0,0,0-.22-.391,4.244,4.244,0,0,0-1.686-1.075,4.069,4.069,0,0,0-2.64,0A4.081,4.081,0,0,0,31.643,26.6a1.24,1.24,0,0,0-.22.391l-1.1,4.057a.746.746,0,0,0,.513.929.538.538,0,0,0,.2.024.756.756,0,0,0,.709-.538l.978-3.568v12.44h1.466v-6.99h.978v6.966h1.466V27.891l.978,3.568a.756.756,0,0,0,.709.538.538.538,0,0,0,.2-.024A.782.782,0,0,0,38.975,31.044Z" transform="translate(-24.139 -21.365)" fill="#768692"/>
  <path id="Path_9419" data-name="Path 9419" d="M10.769,30.846l1.1-4.057a1.656,1.656,0,0,1,.293-.587,4.11,4.11,0,0,0-1.393-.782,4.069,4.069,0,0,0-2.64,0A4.081,4.081,0,0,0,6.443,26.5a1.24,1.24,0,0,0-.22.391l-1.1,4.082a.746.746,0,0,0,.513.929.538.538,0,0,0,.2.024.756.756,0,0,0,.709-.538l.978-3.568v12.44H8.985v-6.99h.978v6.966h1.466V32.312A1.286,1.286,0,0,1,10.769,30.846Z" transform="translate(-5.099 -21.289)" fill="#768692"/>
  <path id="Path_9420" data-name="Path 9420" d="M68.963,31.044l-1.124-4.057a1.02,1.02,0,0,0-.22-.391,4.244,4.244,0,0,0-1.686-1.075,4.069,4.069,0,0,0-2.64,0A4.355,4.355,0,0,0,61.9,26.3a1.385,1.385,0,0,1,.293.562l1.1,4.057a1.258,1.258,0,0,1-.66,1.466v7.943H64.1v-6.99h.978v6.966h1.466V27.891l.978,3.568A.756.756,0,0,0,68.23,32a.538.538,0,0,0,.2-.024A.76.76,0,0,0,68.963,31.044Z" transform="translate(-48.017 -21.365)" fill="#768692"/>
</svg>
