<svg xmlns="http://www.w3.org/2000/svg" viewBox="12780.324 10238.885 24.883 26.826">
  <defs>
    <style>
      .cls-1, .cls-2 {
        fill: none;
      }

      .cls-2 {
        stroke: #95989a;
        stroke-width: 2px;
      }

      .cls-3, .cls-4 {
        stroke: none;
      }

      .cls-4 {
        fill: #95989a;
      }
    </style>
  </defs>
  <g id="Group_16920" data-name="Group 16920" transform="translate(-8525 14647)">
    <g id="Path_1245" data-name="Path 1245" class="cls-1" transform="translate(21305.324 -4408.116)">
      <path class="cls-3" d="M11.539,0A11.539,11.539,0,1,1,0,11.539,11.539,11.539,0,0,1,11.539,0Z"/>
      <path class="cls-4" d="M 11.53888130187988 21.07776069641113 C 16.79864120483398 21.07776069641113 21.07776069641113 16.79864120483398 21.07776069641113 11.53888130187988 C 21.07776069641113 6.279121398925781 16.79864120483398 2.000001192092896 11.53888130187988 2.000001192092896 C 6.279121398925781 2.000001192092896 2.000001192092896 6.279121398925781 2.000001192092896 11.53888130187988 C 2.000001192092896 16.79864120483398 6.279121398925781 21.07776069641113 11.53888130187988 21.07776069641113 M 11.53888130187988 23.07776069641113 C 5.166131496429443 23.07776069641113 1.301879933635064e-06 17.91163063049316 1.301879933635064e-06 11.53888130187988 C 1.301879933635064e-06 5.166131496429443 5.166131496429443 1.301879933635064e-06 11.53888130187988 1.301879933635064e-06 C 17.91163063049316 1.301879933635064e-06 23.07776069641113 5.166131496429443 23.07776069641113 11.53888130187988 C 23.07776069641113 17.91163063049316 17.91163063049316 23.07776069641113 11.53888130187988 23.07776069641113 Z"/>
    </g>
    <path id="Path_24" data-name="Path 24" class="cls-2" d="M3850.834,1498.35l6.439,6.438" transform="translate(17472.227 -5886.785)"/>
  </g>
</svg>
