<svg xmlns="http://www.w3.org/2000/svg" width="75" height="75" viewBox="0 0 75 75">
  <g id="icon-depart-security" transform="translate(-1743 -404)">
    <rect id="Rectangle_11791" data-name="Rectangle 11791" width="75" height="75" transform="translate(1743 404)" fill="none"/>
    <path id="Path_9424" data-name="Path 9424" d="M47.66,8.168,24.748.048a1.44,1.44,0,0,0-.9,0L.9,8.168A1.316,1.316,0,0,0,0,9.425V25.6C0,46.547,3.094,54.216,23.685,64.593a1.308,1.308,0,0,0,.612.129,2.081,2.081,0,0,0,.612-.129C45.468,54.216,48.594,46.547,48.594,25.6V9.425A1.389,1.389,0,0,0,47.66,8.168Z" transform="translate(1751.746 407.943)" fill="#dadbdd"/>
    <g id="Group_18691" data-name="Group 18691" transform="translate(677 21)">
      <path id="Path_7564" data-name="Path 7564" d="M74.66,18.736,51.716,10.648a1.44,1.44,0,0,0-.9,0L27.9,18.736a1.356,1.356,0,0,0-.9,1.289V36.2c0,20.946,3.094,28.615,23.685,38.991a1.308,1.308,0,0,0,.612.129,2.08,2.08,0,0,0,.612-.129C72.468,64.816,75.594,57.147,75.594,36.2V19.993A1.389,1.389,0,0,0,74.66,18.736ZM72.887,36.2c0,20.076-2.546,26.553-21.59,36.284-19.045-9.7-21.59-16.209-21.59-36.284V20.959l21.59-7.6,21.59,7.6Z" transform="translate(1056.446 379.759)" fill="#768692"/>
      <path id="Path_7565" data-name="Path 7565" d="M54.488,77.675a1.344,1.344,0,0,0-1.9,1.9l10.8,10.8a1.364,1.364,0,0,0,.967.387,1.421,1.421,0,0,0,.967-.387L84.2,71.488a1.344,1.344,0,0,0-1.9-1.9L64.316,87.5Z" transform="translate(1039.367 340.025)" fill="#768692"/>
    </g>
  </g>
</svg>
