<svg xmlns="http://www.w3.org/2000/svg" viewBox="0 0 59.204 42.795">
  <defs>
    <style>
      .cls-1, .cls-4 {
        fill: none;
      }

      .cls-1 {
        stroke: #fff;
        stroke-width: 2px;
      }

      .cls-2 {
        fill: #768692;
      }

      .cls-3, .cls-5 {
        stroke: none;
      }

      .cls-5 {
        fill: #fff;
      }
    </style>
  </defs>
  <g id="Group_17396" data-name="Group 17396" transform="translate(-6796 -7492.855)">
    <g id="Ellipse_33" data-name="Ellipse 33" class="cls-1" transform="translate(6819.317 7514.655) rotate(-45)">
      <circle class="cls-3" cx="9.983" cy="9.983" r="9.983"/>
      <circle class="cls-4" cx="9.983" cy="9.983" r="8.983"/>
    </g>
    <g id="Group_6" data-name="Group 6" transform="translate(6807.112 7503.481) rotate(-22)">
      <g id="Group_2" data-name="Group 2" transform="matrix(0.921, -0.391, 0.391, 0.921, 11.69, 0.145)">
        <path id="Path_110" data-name="Path 110" class="cls-1" d="M0,9.355V0" transform="translate(0 34.227)"/>
        <path id="Path_111" data-name="Path 111" class="cls-1" d="M0,9.355V0" transform="translate(0 0)"/>
      </g>
      <g id="Group_3" data-name="Group 3" transform="matrix(-0.391, -0.921, 0.921, -0.391, 31.652, 15.345)">
        <path id="Path_110-2" data-name="Path 110" class="cls-1" d="M0,9.355V0" transform="translate(0 0)"/>
      </g>
      <g id="Group_4" data-name="Group 4" transform="translate(0 12.041) rotate(-68)">
        <path id="Path_110-3" data-name="Path 110" class="cls-1" d="M0,9.355V0" transform="translate(0 34.227)"/>
        <path id="Path_111-2" data-name="Path 111" class="cls-1" d="M0,9.355V0" transform="translate(0 0)"/>
      </g>
      <g id="Group_5" data-name="Group 5" transform="translate(24.863 8.674) rotate(-158)">
        <path id="Path_110-4" data-name="Path 110" class="cls-1" d="M0,9.355V0" transform="translate(0 0)"/>
      </g>
    </g>
    <g id="Group_12698" data-name="Group 12698" transform="translate(6796 7508.076)">
      <g id="Union_16" data-name="Union 16" class="cls-2" transform="translate(0)">
        <path class="cls-3" d="M 38.58245849609375 26.57384300231934 L 20.59712028503418 26.57384300231934 L 20.47641944885254 26.57384300231934 L 20.35495948791504 26.57384300231934 L 8.534329414367676 26.57384300231934 C 4.379889488220215 26.57384300231934 0.9999996423721313 23.19464302062988 0.9999996423721313 19.04105377197266 C 0.9999996423721313 14.8866138458252 4.379889488220215 11.50672340393066 8.534329414367676 11.50672340393066 L 9.453299522399902 11.50672340393066 L 10.27066993713379 11.50672340393066 L 10.43330001831055 10.70569324493408 C 10.98170948028564 8.004652976989746 12.46138954162598 5.543853282928467 14.59976005554199 3.776593446731567 C 16.76627922058105 1.986083388328552 19.51066017150879 1.000003457069397 22.32736015319824 1.000003457069397 C 29.01541900634766 1.000003457069397 34.45655822753906 6.441483497619629 34.45655822753906 13.12996387481689 C 34.45655822753906 13.79266357421875 34.40290069580078 14.45639324188232 34.29705810546875 15.1027135848999 L 34.10684967041016 16.26431274414062 L 35.28392028808594 16.26431274414062 L 38.58245849609375 16.26431274414062 C 41.42691040039062 16.26431274414062 43.74103927612305 18.57570266723633 43.74103927612305 21.41678428649902 C 43.74103927612305 24.2603931427002 41.42691040039062 26.57384300231934 38.58245849609375 26.57384300231934 Z"/>
        <path class="cls-5" d="M 38.58245849609375 25.57384300231934 C 40.87551116943359 25.57384300231934 42.74103927612305 23.70899391174316 42.74103927612305 21.41678428649902 C 42.74103927612305 19.12710380554199 40.87551116943359 17.26431274414062 38.58245849609375 17.26431274414062 L 35.28392028808594 17.26431274414062 L 32.92979049682617 17.26431274414062 L 33.31021118164062 14.94112300872803 C 33.40731811523438 14.34805297851562 33.45655822753906 13.73869323730469 33.45655822753906 13.12996387481689 C 33.45655822753906 6.992883205413818 28.46401977539062 2.000003337860107 22.32736015319824 2.000003337860107 C 19.74264907836914 2.000003337860107 17.22451019287109 2.904693365097046 15.23680973052979 4.547423362731934 C 13.27421951293945 6.169403553009033 11.91633987426758 8.42711353302002 11.41331005096436 10.90467357635498 L 11.08803939819336 12.50672340393066 L 9.453299522399902 12.50672340393066 L 8.534329414367676 12.50672340393066 C 4.931289672851562 12.50672340393066 1.999999642372131 15.43801307678223 1.999999642372131 19.04105377197266 C 1.999999642372131 22.64324378967285 4.931289672851562 25.57384300231934 8.534329414367676 25.57384300231934 L 20.35495948791504 25.57384300231934 L 20.47641944885254 25.57384300231934 L 20.59712028503418 25.57384300231934 L 38.58245849609375 25.57384300231934 M 38.58245849609375 27.57384300231934 L 20.59712028503418 27.57384300231934 C 20.5566291809082 27.57384300231934 20.51691055297852 27.57384300231934 20.47641944885254 27.57384300231934 C 20.4359302520752 27.57384300231934 20.39544868469238 27.57384300231934 20.35495948791504 27.57384300231934 L 8.534329414367676 27.57384300231934 C 3.820279598236084 27.57384300231934 -3.619384756348154e-07 23.75280380249023 -3.619384756348154e-07 19.04105377197266 C -3.619384756348154e-07 14.32776355743408 3.820279598236084 10.50672340393066 8.534329414367676 10.50672340393066 L 9.453299522399902 10.50672340393066 C 10.67019939422607 4.513143539428711 15.97015953063965 3.408508291613543e-06 22.32736015319824 3.408508291613543e-06 C 29.57756042480469 3.408508291613543e-06 35.45655822753906 5.880523204803467 35.45655822753906 13.12996387481689 C 35.45655822753906 13.85567378997803 35.39775085449219 14.56916332244873 35.28392028808594 15.26431369781494 L 38.58245849609375 15.26431369781494 C 41.98106002807617 15.26431369781494 44.74103927612305 18.02353286743164 44.74103927612305 21.41678428649902 C 44.74103927612305 24.81463432312012 41.98106002807617 27.57384300231934 38.58245849609375 27.57384300231934 Z"/>
      </g>
    </g>
  </g>
</svg>
