<svg xmlns="http://www.w3.org/2000/svg" viewBox="0 0 36.449 36.449">
  <defs>
    <style>
      .cls-1 {
        fill: #fafafa;
      }

      .cls-2 {
        fill: #666;
      }
    </style>
  </defs>
  <g id="Group_15126" data-name="Group 15126" transform="translate(-294.596 -379)">
    <circle id="Ellipse_233" data-name="Ellipse 233" class="cls-1" cx="18.225" cy="18.225" r="18.225" transform="translate(294.596 379)"/>
    <g id="Group_235" data-name="Group 235" transform="translate(303.708 386.811)">
      <path id="Path_132" data-name="Path 132" class="cls-2" d="M13.735,21.028h-.159a13.822,13.822,0,0,1-9.558-4.54A14.647,14.647,0,0,1,0,6.372,6.9,6.9,0,0,1,4.615.159L5.013,0l.358.239A8.565,8.565,0,0,1,8.757,6.492l.04.279-.159.239A7.635,7.635,0,0,1,5.81,9.24a13.606,13.606,0,0,0,5.615,5.894,7.86,7.86,0,0,1,2.35-2.748l.239-.159.279.04a8.382,8.382,0,0,1,6.053,3.7l.239.358-.2.4A7.382,7.382,0,0,1,13.735,21.028ZM4.814,1.832a5.182,5.182,0,0,0-3.226,4.58,13.012,13.012,0,0,0,3.584,9,12.238,12.238,0,0,0,8.443,4.062h.119a5.8,5.8,0,0,0,5.018-2.987,7.094,7.094,0,0,0-4.381-2.549,7.565,7.565,0,0,0-1.951,2.668l-.358.717-.717-.358A15.306,15.306,0,0,1,3.978,9.16l-.319-.717.717-.319A7.3,7.3,0,0,0,7.124,6.292,6.868,6.868,0,0,0,4.814,1.832Z" transform="translate(0.008)"/>
    </g>
  </g>
</svg>
