<svg xmlns="http://www.w3.org/2000/svg" width="25.187" height="24.828" viewBox="0 0 25.187 24.828">
  <g id="Group_19576" data-name="Group 19576" transform="translate(-2282 21.833)">
    <g id="Group_19575" data-name="Group 19575" transform="translate(2282 -12.063)">
      <line id="Line_179" data-name="Line 179" x2="11.202" transform="translate(0 4.034)" fill="none" stroke="#898888" stroke-miterlimit="10" stroke-width="1"/>
      <path id="Path_9627" data-name="Path 9627" d="M2292.75-7.442l4.034,4.034L2292.75.626" transform="translate(-2285.451 7.442)" fill="none" stroke="#898888" stroke-miterlimit="10" stroke-width="1"/>
    </g>
    <path id="Path_9628" data-name="Path 9628" d="M2285.361-11.306v-3.541A4.154,4.154,0,0,1,2289.515-19h14.1a4.154,4.154,0,0,1,4.154,4.154v14.1a4.154,4.154,0,0,1-4.154,4.154h-14.1a4.154,4.154,0,0,1-4.154-4.154V-2.932" transform="translate(-1.079 -0.91)" fill="none" stroke="#898888" stroke-miterlimit="10" stroke-width="1"/>
    <line id="Line_180" data-name="Line 180" x2="22.235" transform="translate(2284.367 -15.157)" fill="none" stroke="#898888" stroke-miterlimit="10" stroke-width="1"/>
    <line id="Line_181" data-name="Line 181" y2="3.904" transform="translate(2289.289 -21.833)" fill="none" stroke="#898888" stroke-miterlimit="10" stroke-width="1"/>
    <line id="Line_182" data-name="Line 182" y2="3.904" transform="translate(2301.679 -21.833)" fill="none" stroke="#898888" stroke-miterlimit="10" stroke-width="1"/>
  </g>
</svg>
