<svg xmlns="http://www.w3.org/2000/svg" viewBox="0 0 35 35">
  <defs>
    <style>
      .cls-1, .cls-2, .cls-3 {
        fill: none;
      }

      .cls-3 {
        stroke: #768692;
        stroke-width: 2px;
      }

      .cls-4, .cls-5 {
        stroke: none;
      }

      .cls-5 {
        fill: #768692;
      }
    </style>
  </defs>
  <g id="Group_19170" data-name="Group 19170" transform="translate(1108 4034)">
    <rect id="Rectangle_11949" data-name="Rectangle 11949" class="cls-1" width="35" height="35" transform="translate(-1108 -4034)"/>
    <g id="search" transform="translate(-2071 -4077)">
      <g id="Path_1245" data-name="Path 1245" class="cls-2" transform="translate(965 44)">
        <path class="cls-4" d="M13.1,0A13.1,13.1,0,1,1,0,13.1,13.1,13.1,0,0,1,13.1,0Z"/>
        <path class="cls-5" d="M 13.10361480712891 1.999994277954102 C 10.13773536682129 1.999994277954102 7.349365234375 3.154973983764648 5.252164840698242 5.252164840698242 C 3.154973983764648 7.349365234375 1.999994277954102 10.13773536682129 1.999994277954102 13.10361480712891 C 1.999994277954102 16.06949615478516 3.154973983764648 18.85786437988281 5.252164840698242 20.95505523681641 C 7.349365234375 23.05224418640137 10.13772392272949 24.20722579956055 13.10361480712891 24.20722579956055 C 16.06949615478516 24.20722579956055 18.85786437988281 23.05224418640137 20.95505523681641 20.95505523681641 C 23.05224418640137 18.85786437988281 24.20722579956055 16.06949615478516 24.20722579956055 13.10361480712891 C 24.20722579956055 10.13772392272949 23.05224418640137 7.349365234375 20.95505523681641 5.252164840698242 C 18.85786437988281 3.154973983764648 16.06949615478516 1.999994277954102 13.10361480712891 1.999994277954102 M 13.10361480712891 -5.7220458984375e-06 C 20.34054565429688 -5.7220458984375e-06 26.20722389221191 5.866683959960938 26.20722389221191 13.10361480712891 C 26.20722389221191 20.34054565429688 20.34054565429688 26.20722389221191 13.10361480712891 26.20722389221191 C 5.866683959960938 26.20722389221191 -5.7220458984375e-06 20.34054565429688 -5.7220458984375e-06 13.10361480712891 C -5.7220458984375e-06 5.866683959960938 5.866683959960938 -5.7220458984375e-06 13.10361480712891 -5.7220458984375e-06 Z"/>
      </g>
      <path id="Path_24" data-name="Path 24" class="cls-3" d="M3850.835,1498.35l9.583,9.583" transform="translate(-2865.692 -1432.001)"/>
    </g>
  </g>
</svg>
