<svg xmlns="http://www.w3.org/2000/svg" viewBox="0 0 26.485 12.424">
  <defs>
    <style>
      .cls-1, .cls-2 {
        fill: none;
      }

      .cls-1 {
        stroke: #768692;
      }

      .cls-3, .cls-4 {
        stroke: none;
      }

      .cls-4 {
        fill: #768692;
      }
    </style>
  </defs>
  <g id="Group_63" data-name="Group 63" transform="translate(0.676 0.5)">
    <path id="Path_34" data-name="Path 34" class="cls-1" d="M14.066.5c7.361,0,12.566,5.712,12.566,5.712s-5.206,5.712-12.566,5.712S1.5,6.212,1.5,6.212,6.706.5,14.066.5Z" transform="translate(-1.5 -0.5)"/>
    <g id="Path_6597" data-name="Path 6597" class="cls-2" transform="translate(7.997 1.142)">
      <path class="cls-3" d="M4.57,0A4.57,4.57,0,1,1,0,4.57,4.57,4.57,0,0,1,4.57,0Z"/>
      <path class="cls-4" d="M 4.569582462310791 8.13909912109375 C 6.53785228729248 8.13909912109375 8.139162063598633 6.537809371948242 8.139162063598633 4.569549560546875 C 8.139162063598633 2.601289510726929 6.53785228729248 0.9999995827674866 4.569582462310791 0.9999995827674866 C 2.601312398910522 0.9999995827674866 1.000002503395081 2.601289510726929 1.000002503395081 4.569549560546875 C 1.000002503395081 6.537809371948242 2.601312398910522 8.13909912109375 4.569582462310791 8.13909912109375 M 4.569582462310791 9.13909912109375 C 2.045872449874878 9.13909912109375 2.462310703776893e-06 7.093239784240723 2.462310703776893e-06 4.569549560546875 C 2.462310703776893e-06 2.045859575271606 2.045872449874878 -4.39453117451194e-07 4.569582462310791 -4.39453117451194e-07 C 7.093292236328125 -4.39453117451194e-07 9.139162063598633 2.045859575271606 9.139162063598633 4.569549560546875 C 9.139162063598633 7.093239784240723 7.093292236328125 9.13909912109375 4.569582462310791 9.13909912109375 Z"/>
    </g>
  </g>
</svg>
