<svg xmlns="http://www.w3.org/2000/svg" viewBox="0 0 30 30.059">
  <defs>
    <style>
      .cls-1, .cls-2 {
        fill: none;
      }

      .cls-2 {
        stroke: #050505;
        stroke-width: 2px;
      }
    </style>
  </defs>
  <g id="icon-like" transform="translate(-636.893 -644)">
    <rect id="Rectangle_11813" data-name="Rectangle 11813" class="cls-1" width="30" height="30" transform="translate(636.893 644)"/>
    <path id="Union_23" data-name="Union 23" class="cls-2" d="M2.068,19.688A12.915,12.915,0,0,1,22.2,3.782,12.916,12.916,0,0,1,6.24,23.88L0,25.976ZM7.4,8.125a3.663,3.663,0,0,0-1.8,3.052c-.017,2.244,2.03,4.76,3.75,6.475a33.508,33.508,0,0,0,3.775,3.219,33.169,33.169,0,0,0,3.711-3.215c1.691-1.713,3.7-4.227,3.682-6.47a3.69,3.69,0,0,0-1.794-3.062,4.555,4.555,0,0,0-2.529-.842,4.441,4.441,0,0,0-3.13,1.464A4.4,4.4,0,0,0,9.933,7.284,4.557,4.557,0,0,0,7.4,8.125Z" transform="translate(639.393 646.5)"/>
  </g>
</svg>
