<svg xmlns="http://www.w3.org/2000/svg" viewBox="0 0 73.073 59">
  <defs>
    <style>
      .cls-1 {
        fill: #50d1ef;
      }
    </style>
  </defs>
  <g id="Group_19071" data-name="Group 19071" transform="translate(0 0.032)">
    <g id="Group_19070" data-name="Group 19070" transform="translate(0 -0.032)">
      <path id="Path_9609" data-name="Path 9609" class="cls-1" d="M57.5,13.988a15.571,15.571,0,0,1,0,31.142H12.188a12.174,12.174,0,1,1-.014-24.348H13a18.962,18.962,0,0,1,37.535-5.2,15.91,15.91,0,0,1,6.965-1.6Z" transform="translate(0 0.032)"/>
      <path id="Path_9610" data-name="Path 9610" class="cls-1" d="M155.579,334.829l3.9,5.566a1.384,1.384,0,1,1-2.269,1.584h0l-5.009-7.15Zm-9.234,0,6.308,9.006a1.384,1.384,0,1,1-2.269,1.584h0L142.963,334.8Zm-9.22,0,3.9,5.566a1.384,1.384,0,1,1-2.269,1.584h0l-4.952-7.15Zm27.673,0,6.308,9.006a1.384,1.384,0,0,1-2.269,1.584h0l-2.426-3.44-5.009-7.15Z" transform="translate(-114.704 -287.013)"/>
    </g>
  </g>
</svg>
