<svg id="Group_19098" data-name="Group 19098" xmlns="http://www.w3.org/2000/svg" viewBox="0 0 40.34 46.103">
  <defs>
    <style>
      .cls-1 {
        fill: #fff;
      }

      .cls-2 {
        fill: #b0b7bd;
      }

      .cls-3 {
        fill: #cad1d8;
      }

      .cls-4 {
        fill: #f15642;
      }
    </style>
  </defs>
  <path id="Path_9601" data-name="Path 9601" class="cls-1" d="M66.881,0A2.89,2.89,0,0,0,64,2.881v40.34A2.89,2.89,0,0,0,66.881,46.1H95.7a2.89,2.89,0,0,0,2.881-2.881v-31.7L87.051,0Z" transform="translate(-58.237)"/>
  <path id="Path_9602" data-name="Path 9602" class="cls-2" d="M322.881,11.526h8.644L320,0V8.644A2.89,2.89,0,0,0,322.881,11.526Z" transform="translate(-291.186)"/>
  <path id="Path_9603" data-name="Path 9603" class="cls-3" d="M360.644,136.644,352,128h8.644Z" transform="translate(-320.304 -116.474)"/>
  <path id="Path_9604" data-name="Path 9604" class="cls-4" d="M34.577,255.848a1.445,1.445,0,0,1-1.441,1.441H1.441A1.445,1.445,0,0,1,0,255.848V241.441A1.445,1.445,0,0,1,1.441,240h31.7a1.445,1.445,0,0,1,1.441,1.441Z" transform="translate(0 -218.389)"/>
  <g id="Group_19066" data-name="Group 19066" transform="translate(6.276 26.509)">
    <path id="Path_9605" data-name="Path 9605" class="cls-1" d="M69.7,295.192a.79.79,0,0,1,.783-.792h2.665a2.882,2.882,0,0,1,0,5.763H71.222v1.522a.724.724,0,0,1-.738.792.779.779,0,0,1-.783-.792Zm1.522.648v2.872h1.927a1.437,1.437,0,0,0,0-2.872Z" transform="translate(-69.7 -294.4)"/>
    <path id="Path_9606" data-name="Path 9606" class="cls-1" d="M156.692,303.469a.719.719,0,0,1-.792-.711v-6.546a.779.779,0,0,1,.792-.711h2.638c5.268,0,5.151,7.969.108,7.969Zm.72-6.564v5.16h1.918c3.107,0,3.251-5.16,0-5.16Z" transform="translate(-148.138 -295.401)"/>
    <path id="Path_9607" data-name="Path 9607" class="cls-1" d="M256.613,296.995v1.828h2.935a.89.89,0,0,1,.828.819.8.8,0,0,1-.828.693h-2.935v2.422a.681.681,0,0,1-.693.711.733.733,0,0,1-.819-.711v-6.546a.728.728,0,0,1,.819-.711h4.043a.72.72,0,0,1,.81.711.8.8,0,0,1-.81.783Z" transform="translate(-238.406 -295.401)"/>
  </g>
  <path id="Path_9608" data-name="Path 9608" class="cls-3" d="M91.373,417.441H64v1.441H91.373a1.445,1.445,0,0,0,1.441-1.441V416A1.445,1.445,0,0,1,91.373,417.441Z" transform="translate(-58.237 -378.542)"/>
</svg>
