<svg xmlns="http://www.w3.org/2000/svg" width="75" height="75.082" viewBox="0 0 75 75.082">
  <g id="icon-depart-planning" transform="translate(-1743 -498.918)">
    <rect id="Rectangle_11792" data-name="Rectangle 11792" width="75" height="75" transform="translate(1743 499)" fill="none"/>
    <path id="Path_9425" data-name="Path 9425" d="M168.6,100.3v10.635h10.493v-.071A10.573,10.573,0,0,0,168.6,100.3Z" transform="translate(1636.37 434.294)" fill="#dadbdd"/>
    <path id="Path_9426" data-name="Path 9426" d="M126.516,108.3h-.107a13.41,13.41,0,1,0,13.41,13.516h-13.3Z" transform="translate(1672.193 429.14)" fill="#dadbdd"/>
    <g id="Group_18692" data-name="Group 18692" transform="translate(1745 498.918)">
      <path id="Path_7572" data-name="Path 7572" d="M38.984,27.5a6.384,6.384,0,0,0,2.241-4.873V11.453A11.469,11.469,0,0,0,29.772,0H27.353A11.469,11.469,0,0,0,15.9,11.453V22.622A6.384,6.384,0,0,0,18.14,27.5v9.568A89.77,89.77,0,0,0,2.454,47.2,6.757,6.757,0,0,0,0,52.465v7.647A1.413,1.413,0,0,0,1.387,61.5a1.413,1.413,0,0,0,1.387-1.387V52.429A4.093,4.093,0,0,1,4.233,49.3,84.927,84.927,0,0,1,19.883,39.269a1.9,1.9,0,0,0,1.067-1.707V26.855a1.326,1.326,0,0,0-.6-1.138,3.626,3.626,0,0,1-1.636-3.059v-11.2a8.691,8.691,0,0,1,8.679-8.679h2.419a8.691,8.691,0,0,1,8.679,8.679V22.622a3.719,3.719,0,0,1-1.636,3.059,1.326,1.326,0,0,0-.6,1.138V37.6a1.387,1.387,0,0,0,2.774,0l-.036-10.1Zm0,0" transform="translate(0)" fill="#768692"/>
      <path id="Path_7573" data-name="Path 7573" d="M74.85,110.6a1.413,1.413,0,0,0-1.387,1.387,2.309,2.309,0,0,1-.747,1.707.724.724,0,0,0-.249.213,2.269,2.269,0,0,1-1.281.391,2.307,2.307,0,0,1-2.312-2.312,1.387,1.387,0,1,0-2.774,0,4.858,4.858,0,0,0,1.174,3.2l-1.1,25.93a1.3,1.3,0,0,0,.462,1.067l3.557,3.2a1.38,1.38,0,0,0,1.85,0l3.628-3.272a1.4,1.4,0,0,0,.462-1.067L74.957,115.4a5.111,5.111,0,0,0,1.387-3.486A1.531,1.531,0,0,0,74.85,110.6Zm-3.806,31.941-2.134-1.921L69.941,116.9a4.775,4.775,0,0,0,1.245.142,4.5,4.5,0,0,0,1-.107l1.067,23.618Zm0,0" transform="translate(-42.589 -71.26)" fill="#768692"/>
      <path id="Path_7574" data-name="Path 7574" d="M137.407,118.31H125.384V106.287A1.413,1.413,0,0,0,124,104.9a14.8,14.8,0,1,0,14.8,14.8,1.389,1.389,0,0,0-1.387-1.387ZM124,131.719a12.027,12.027,0,0,1-1.387-23.974V119.7A1.413,1.413,0,0,0,124,121.084h11.951A12.045,12.045,0,0,1,124,131.719Zm0,0" transform="translate(-70.358 -67.588)" fill="#768692"/>
      <path id="Path_7575" data-name="Path 7575" d="M164.987,96.8a1.413,1.413,0,0,0-1.387,1.387v10.529a1.413,1.413,0,0,0,1.387,1.387h10.529a1.413,1.413,0,0,0,1.387-1.387A11.908,11.908,0,0,0,164.987,96.8Zm1.387,10.529V99.681a9.235,9.235,0,0,1,5.478,2.988,8.964,8.964,0,0,1,2.17,4.66Zm0,0" transform="translate(-105.408 -62.369)" fill="#768692"/>
    </g>
  </g>
</svg>
