<svg xmlns="http://www.w3.org/2000/svg" width="100" height="100" viewBox="0 0 100 100">
  <g id="icon-menu-enterprise" transform="translate(-46 -76)">
    <rect id="Rectangle_11241" data-name="Rectangle 11241" width="100" height="100" transform="translate(46 76)" fill="none"/>
    <g id="Group_17908" data-name="Group 17908" transform="translate(-11843 -94.673)">
      <path id="Path_9008" data-name="Path 9008" d="M11915,186.342v17.748h46.319V180.6h-10.882l-1.263-5.874-16.437,6.492-1.263-6.878L11915,181.216Z" transform="translate(0 37.541)" fill="none" stroke="#fff" stroke-width="2"/>
      <path id="Path_9009" data-name="Path 9009" d="M11921.856,180.02V164.673h5.529v13.067" transform="translate(1.352 35)" fill="none" stroke="#fff" stroke-width="2"/>
      <path id="Path_9010" data-name="Path 9010" d="M11921.856,180.02V164.673h5.529v13.067" transform="translate(19.481 35)" fill="none" stroke="#fff" stroke-width="2"/>
      <path id="Path_9011" data-name="Path 9011" d="M11915.036,187.081h46.414" transform="translate(0.008 38.364)" fill="none" stroke="#fff" stroke-width="2"/>
      <path id="Path_9012" data-name="Path 9012" d="M11923.689,224.464v5.916" transform="translate(2.284 6.516)" fill="none" stroke="#fff" stroke-width="2"/>
      <path id="Path_9013" data-name="Path 9013" d="M11923.689,224.464v5.916" transform="translate(11.124 6.516)" fill="none" stroke="#fff" stroke-width="2"/>
      <path id="Path_9014" data-name="Path 9014" d="M11923.689,224.464v5.916" transform="translate(19.964 6.516)" fill="none" stroke="#fff" stroke-width="2"/>
    </g>
  </g>
</svg>
