<svg xmlns="http://www.w3.org/2000/svg" viewBox="0 0 32 32.993">
  <defs>
    <style>
      .cls-1, .cls-2, .cls-3 {
        fill: none;
      }

      .cls-3 {
        stroke: #050505;
        stroke-width: 3px;
      }

      .cls-4, .cls-5 {
        stroke: none;
      }

      .cls-5 {
        fill: #050505;
      }
    </style>
  </defs>
  <g id="search" transform="translate(-971 -48)">
    <rect id="Rectangle_11727" data-name="Rectangle 11727" class="cls-1" width="32" height="32" transform="translate(971 48)"/>
    <g id="Group_18458" data-name="Group 18458" transform="translate(7 4)">
      <g id="Path_1245" data-name="Path 1245" class="cls-2" transform="translate(965 44)">
        <path class="cls-4" d="M13.1,0A13.1,13.1,0,1,1,0,13.1,13.1,13.1,0,0,1,13.1,0Z"/>
        <path class="cls-5" d="M 13.10361480712891 2.999994277954102 C 7.532464981079102 2.999994277954102 2.999994277954102 7.532464981079102 2.999994277954102 13.10361480712891 C 2.999994277954102 18.67476463317871 7.532464981079102 23.20722579956055 13.10361480712891 23.20722579956055 C 18.67476463317871 23.20722579956055 23.20722579956055 18.67476463317871 23.20722579956055 13.10361480712891 C 23.20722579956055 7.532464981079102 18.67476463317871 2.999994277954102 13.10361480712891 2.999994277954102 M 13.10361480712891 -5.7220458984375e-06 C 20.34054565429688 -5.7220458984375e-06 26.20722389221191 5.866683959960938 26.20722389221191 13.10361480712891 C 26.20722389221191 20.34054565429688 20.34054565429688 26.20722389221191 13.10361480712891 26.20722389221191 C 5.866683959960938 26.20722389221191 -5.7220458984375e-06 20.34054565429688 -5.7220458984375e-06 13.10361480712891 C -5.7220458984375e-06 5.866683959960938 5.866683959960938 -5.7220458984375e-06 13.10361480712891 -5.7220458984375e-06 Z"/>
      </g>
      <path id="Path_24" data-name="Path 24" class="cls-3" d="M3850.835,1498.35l9.583,9.583" transform="translate(-2865.692 -1432.001)"/>
    </g>
  </g>
</svg>
