<svg xmlns="http://www.w3.org/2000/svg" viewBox="0 0 29.734 16.5">
  <defs>
    <style>
      .cls-1, .cls-2 {
        fill: none;
      }

      .cls-1 {
        stroke: #fff;
        stroke-width: 2px;
      }

      .cls-3, .cls-4 {
        stroke: none;
      }

      .cls-4 {
        fill: #fff;
      }
    </style>
  </defs>
  <g id="Group_19117" data-name="Group 19117" transform="translate(1.266 1)">
    <path id="Path_34" data-name="Path 34" class="cls-1" d="M15.1,15c7.967,0,13.6-7.25,13.6-7.25S23.067.5,15.1.5,1.5,7.75,1.5,7.75,7.134,15,15.1,15Z" transform="translate(-1.5 -0.5)"/>
    <g id="Path_6597" data-name="Path 6597" class="cls-2" transform="translate(9.5 2.86)">
      <path class="cls-3" d="M4.57,9.139A4.57,4.57,0,1,0,0,4.57,4.57,4.57,0,0,0,4.57,9.139Z"/>
      <path class="cls-4" d="M 4.569582462310791 7.139099597930908 C 5.986452579498291 7.139099597930908 7.139162540435791 5.98639965057373 7.139162540435791 4.569549560546875 C 7.139162540435791 3.15269947052002 5.986452579498291 1.999999523162842 4.569582462310791 1.999999523162842 C 3.152712345123291 1.999999523162842 2.000002384185791 3.15269947052002 2.000002384185791 4.569549560546875 C 2.000002384185791 5.98639965057373 3.152712345123291 7.139099597930908 4.569582462310791 7.139099597930908 M 4.569582462310791 9.13909912109375 C 2.045872449874878 9.13909912109375 2.462310703776893e-06 7.093239784240723 2.462310703776893e-06 4.569549560546875 C 2.462310703776893e-06 2.045859575271606 2.045872449874878 -4.39453117451194e-07 4.569582462310791 -4.39453117451194e-07 C 7.093292236328125 -4.39453117451194e-07 9.139162063598633 2.045859575271606 9.139162063598633 4.569549560546875 C 9.139162063598633 7.093239784240723 7.093292236328125 9.13909912109375 4.569582462310791 9.13909912109375 Z"/>
    </g>
  </g>
</svg>
