<svg id="Group_18690" data-name="Group 18690" xmlns="http://www.w3.org/2000/svg" viewBox="0 0 33.005 35.402">
  <defs>
    <style>
      .cls-1, .cls-2 {
        fill: none;
      }

      .cls-2 {
        stroke: #fff;
        stroke-width: 2px;
      }

      .cls-3, .cls-4 {
        stroke: none;
      }

      .cls-4 {
        fill: #fff;
      }
    </style>
  </defs>
  <g id="search" transform="translate(0 0)">
    <g id="Path_1245" data-name="Path 1245" class="cls-1">
      <path class="cls-3" d="M14.238,0A14.238,14.238,0,1,1,0,14.238,14.238,14.238,0,0,1,14.238,0Z"/>
      <path class="cls-4" d="M 14.23778915405273 2 C 10.96895980834961 2 7.895778656005859 3.27294921875 5.584369659423828 5.584369659423828 C 3.27294921875 7.895778656005859 2 10.96895980834961 2 14.23778915405273 C 2 17.50661849975586 3.27294921875 20.57979965209961 5.584369659423828 22.89120864868164 C 7.895778656005859 25.20262908935547 10.96895980834961 26.47557830810547 14.23778915405273 26.47557830810547 C 17.50661849975586 26.47557830810547 20.57979965209961 25.20262908935547 22.89120864868164 22.89120864868164 C 25.20262908935547 20.57979965209961 26.47557830810547 17.50661849975586 26.47557830810547 14.23778915405273 C 26.47557830810547 10.96895980834961 25.20262908935547 7.895778656005859 22.89120864868164 5.584369659423828 C 20.57979965209961 3.27294921875 17.50661849975586 2 14.23778915405273 2 M 14.23778915405273 0 C 22.10109901428223 0 28.47557830810547 6.374479293823242 28.47557830810547 14.23778915405273 C 28.47557830810547 22.10109901428223 22.10109901428223 28.47557830810547 14.23778915405273 28.47557830810547 C 6.374479293823242 28.47557830810547 0 22.10109901428223 0 14.23778915405273 C 0 6.374479293823242 6.374479293823242 0 14.23778915405273 0 Z"/>
    </g>
    <path id="Path_24" data-name="Path 24" class="cls-2" d="M3850.834,1498.35l10.412,10.412" transform="translate(-3828.948 -1474.066)"/>
  </g>
</svg>
