<svg xmlns="http://www.w3.org/2000/svg" width="35" height="35" viewBox="0 0 35 35">
  <g id="icon-mrr-delete" transform="translate(-3919 -575)">
    <rect id="Rectangle_11264" data-name="Rectangle 11264" width="35" height="35" transform="translate(3919 575)" fill="none"/>
    <g id="Group_18597" data-name="Group 18597" transform="translate(3570.803 -32.607)">
      <g id="Subtraction_1" data-name="Subtraction 1" transform="translate(358.697 619.67)" fill="none">
        <path d="M12.028,15.3H2a2,2,0,0,1-2-2V0H14.027V13.3A2,2,0,0,1,12.028,15.3Z" stroke="none"/>
        <path d="M 12.02760028839111 13.80270004272461 C 12.30319023132324 13.80270004272461 12.52740001678467 13.57849025726318 12.52740001678467 13.30290031433105 L 12.52740001678467 1.5 L 1.5 1.5 L 1.5 13.30290031433105 C 1.5 13.57849025726318 1.724210023880005 13.80270004272461 1.999799966812134 13.80270004272461 L 12.02760028839111 13.80270004272461 M 12.02760028839111 15.30270004272461 L 1.999799966812134 15.30270004272461 C 0.8971099853515625 15.30270004272461 8.392333050721845e-09 14.40559005737305 8.392333050721845e-09 13.30290031433105 L 8.392333050721845e-09 2.136230392579819e-08 L 14.02740001678467 2.136230392579819e-08 L 14.02740001678467 13.30290031433105 C 14.02740001678467 14.40559005737305 13.13029003143311 15.30270004272461 12.02760028839111 15.30270004272461 Z" stroke="none" fill="#666"/>
      </g>
      <path id="Path_9415" data-name="Path 9415" d="M4340,2153.409h13.805" transform="translate(-3981.303 -1535.768)" fill="none" stroke="#707070" stroke-width="1.5"/>
      <path id="Path_9416" data-name="Path 9416" d="M4340,2153.409h5.983" transform="translate(-3977.392 -1537.264)" fill="none" stroke="#707070" stroke-width="1.5"/>
    </g>
  </g>
</svg>
