<svg xmlns="http://www.w3.org/2000/svg" width="100" height="100" viewBox="0 0 100 100">
  <g id="icon-menu-company" transform="translate(-43 64)">
    <rect id="Rectangle_11241" data-name="Rectangle 11241" width="100" height="100" transform="translate(43 -64)" fill="none"/>
    <g id="Group_17907" data-name="Group 17907" transform="translate(75 -34)">
      <path id="Path_1264" data-name="Path 1264" d="M40.917,40.218V3a2.479,2.479,0,0,0-2.5-2.5H22.2A2.479,2.479,0,0,0,19.7,3v9.336" transform="translate(-5.451 -0.5)" fill="none" stroke="#fff" stroke-miterlimit="10" stroke-width="2"/>
      <path id="Path_1265" data-name="Path 1265" d="M24.465,16.5H3A2.479,2.479,0,0,0,.5,19V43.846H10.746V37.129h6.34v6.644h9.878V19A2.479,2.479,0,0,0,24.465,16.5Z" transform="translate(-0.5 -4.738)" fill="none" stroke="#fff" stroke-miterlimit="10" stroke-width="2"/>
      <g id="Group_14103" data-name="Group 14103" transform="translate(3.238 15.533)">
        <g id="Rectangle_11057" data-name="Rectangle 11057" transform="translate(0)" fill="none" stroke="#fff" stroke-width="2">
          <rect width="5.181" height="5.181" stroke="none"/>
          <rect x="1" y="1" width="3.181" height="3.181" fill="none"/>
        </g>
        <g id="Rectangle_11076" data-name="Rectangle 11076" transform="translate(15.544)" fill="none" stroke="#fff" stroke-width="2">
          <rect width="5.181" height="5.181" stroke="none"/>
          <rect x="1" y="1" width="3.181" height="3.181" fill="none"/>
        </g>
        <g id="Rectangle_11075" data-name="Rectangle 11075" transform="translate(7.772)" fill="none" stroke="#fff" stroke-width="2">
          <rect width="5.181" height="5.181" stroke="none"/>
          <rect x="1" y="1" width="3.181" height="3.181" fill="none"/>
        </g>
      </g>
      <g id="Group_14105" data-name="Group 14105" transform="translate(18.783 3.875)">
        <g id="Rectangle_11057-2" data-name="Rectangle 11057" transform="translate(0)" fill="none" stroke="#fff" stroke-width="2">
          <rect width="5.181" height="5.181" stroke="none"/>
          <rect x="1" y="1" width="3.181" height="3.181" fill="none"/>
        </g>
        <g id="Rectangle_11075-2" data-name="Rectangle 11075" transform="translate(7.772)" fill="none" stroke="#fff" stroke-width="2">
          <rect width="5.181" height="5.181" stroke="none"/>
          <rect x="1" y="1" width="3.181" height="3.181" fill="none"/>
        </g>
      </g>
      <g id="Group_14104" data-name="Group 14104" transform="translate(3.238 23.305)">
        <g id="Rectangle_11057-3" data-name="Rectangle 11057" transform="translate(0)" fill="none" stroke="#fff" stroke-width="2">
          <rect width="5.181" height="5.181" stroke="none"/>
          <rect x="1" y="1" width="3.181" height="3.181" fill="none"/>
        </g>
        <g id="Rectangle_11076-2" data-name="Rectangle 11076" transform="translate(15.544)" fill="none" stroke="#fff" stroke-width="2">
          <rect width="5.181" height="5.181" stroke="none"/>
          <rect x="1" y="1" width="3.181" height="3.181" fill="none"/>
        </g>
        <g id="Rectangle_11075-3" data-name="Rectangle 11075" transform="translate(7.772)" fill="none" stroke="#fff" stroke-width="2">
          <rect width="5.181" height="5.181" stroke="none"/>
          <rect x="1" y="1" width="3.181" height="3.181" fill="none"/>
        </g>
      </g>
    </g>
  </g>
</svg>
