<svg xmlns="http://www.w3.org/2000/svg" width="50" height="50" viewBox="0 0 50 50">
  <g id="icon-message-black" transform="translate(-1233 -280)">
    <g id="Group_18288" data-name="Group 18288" transform="translate(-7097 247)">
      <g id="Group_18287" data-name="Group 18287">
        <g id="Group_18279" data-name="Group 18279">
          <circle id="Ellipse_1625" data-name="Ellipse 1625" cx="25" cy="25" r="25" transform="translate(8330 33)" fill="#fff"/>
        </g>
      </g>
    </g>
    <g id="Group_18507" data-name="Group 18507" transform="translate(-180.168 -2.088)">
      <g id="Union_24" data-name="Union 24" transform="translate(1425.168 295.781)" fill="none">
        <path d="M2.834,19.844H0V0H25.513V19.844H11.5L2.834,26.93Z" stroke="none"/>
        <path d="M 4.834452152252197 22.70922470092773 L 10.2286319732666 18.29573822021484 L 10.78118228912354 17.84364891052246 L 11.49512195587158 17.84364891052246 L 23.51262283325195 17.84364891052246 L 23.51262283325195 1.999998092651367 L 2.000002384185791 1.999998092651367 L 2.000002384185791 17.84364891052246 L 2.834452390670776 17.84364891052246 L 4.834452152252197 17.84364891052246 L 4.834452152252197 19.84364891052246 L 4.834452152252197 22.70922470092773 M 2.834452390670776 26.92975807189941 L 2.834452390670776 19.84364891052246 L 2.370300308029982e-06 19.84364891052246 L 2.370300308029982e-06 -1.917724603117676e-06 L 25.51262283325195 -1.917724603117676e-06 L 25.51262283325195 19.84364891052246 L 11.49512195587158 19.84364891052246 L 2.834452390670776 26.92975807189941 Z" stroke="none" fill="#666"/>
      </g>
      <path id="Path_9394" data-name="Path 9394" d="M14968.119,132.933h11.514" transform="translate(-13535.696 169.84)" fill="#fff" stroke="#666" stroke-width="2"/>
      <path id="Path_9395" data-name="Path 9395" d="M14968.119,132.933h7.262" transform="translate(-13535.696 174.092)" fill="#fff" stroke="#666" stroke-width="2"/>
    </g>
  </g>
</svg>
