<svg id="Group_19715" data-name="Group 19715" xmlns="http://www.w3.org/2000/svg" width="10.001" height="27.055" viewBox="0 0 10.001 27.055">
  <g id="Union_8" data-name="Union 8" transform="translate(0 5.768)" fill="none">
    <path d="M3.983,21.287a.961.961,0,0,1-.961-.961l-.994-9.613H1.25A1.243,1.243,0,0,1,0,9.476l.695-8.24A1.243,1.243,0,0,1,1.945,0H7.918a1.243,1.243,0,0,1,1.25,1.236L10,9.476a1.243,1.243,0,0,1-1.25,1.236H8L7,20.326a.961.961,0,0,1-.961.961Z" stroke="none"/>
    <path d="M 6.004167556762695 20.2870044708252 L 6.004167556762695 20.27404403686523 L 6.009477615356445 20.22273445129395 L 7.003977298736572 10.60932445526123 L 7.096777439117432 9.712224006652832 L 7.99866771697998 9.712224006652832 L 8.75103759765625 9.712224006652832 C 8.878162384033203 9.712224006652832 8.983454704284668 9.622341156005859 8.999236106872559 9.506422996520996 L 8.172907829284668 1.336654186248779 L 8.167827606201172 1.286464095115662 L 8.167827606201172 1.236024141311646 C 8.167827606201172 1.105884194374084 8.055567741394043 1.000004172325134 7.917587757110596 1.000004172325134 L 1.944637537002563 1.000004172325134 C 1.80671751499176 1.000004172325134 1.694517493247986 1.105884194374084 1.694517493247986 1.236024141311646 L 1.694517493247986 1.278094172477722 L 1.690987586975098 1.320014119148254 L 1.001418709754944 9.501450538635254 C 1.014816999435425 9.619759559631348 1.121238470077515 9.712224006652832 1.250117540359497 9.712224006652832 L 2.026837587356567 9.712224006652832 L 2.928727626800537 9.712224006652832 L 3.021527528762817 10.60932445526123 L 4.016027450561523 20.22273445129395 L 4.021337509155273 20.27404403686523 L 4.021337509155273 20.2870044708252 L 6.004167556762695 20.2870044708252 M 6.042787551879883 21.2870044708252 L 3.982707500457764 21.2870044708252 C 3.451837539672852 21.2870044708252 3.021337509155273 20.85662460327148 3.021337509155273 20.32563400268555 L 2.026837587356567 10.71222400665283 L 1.250117540359497 10.71222400665283 C 0.5596675276756287 10.71222400665283 -2.468719458192936e-06 10.15886402130127 -2.468719458192936e-06 9.476203918457031 L 0.6945175528526306 1.236024141311646 C 0.6945175528526306 0.5533641576766968 1.25418758392334 4.142761099501513e-06 1.944637537002563 4.142761099501513e-06 L 7.917587757110596 4.142761099501513e-06 C 8.608027458190918 4.142761099501513e-06 9.167827606201172 0.5533641576766968 9.167827606201172 1.236024141311646 L 10.00127792358398 9.476203918457031 C 10.00127792358398 10.15886402130127 9.44147777557373 10.71222400665283 8.75103759765625 10.71222400665283 L 7.99866771697998 10.71222400665283 L 7.004167556762695 20.32563400268555 C 7.004167556762695 20.85662460327148 6.573657512664795 21.2870044708252 6.042787551879883 21.2870044708252 Z" stroke="none" fill="#898888"/>
  </g>
  <g id="Path_9647" data-name="Path 9647" transform="translate(2.472 0)" fill="none">
    <path d="M2.472,0A2.472,2.472,0,1,1,0,2.472,2.472,2.472,0,0,1,2.472,0Z" stroke="none"/>
    <path d="M 2.472044467926025 1.00000262260437 C 1.660354375839233 1.00000262260437 1.000004529953003 1.660352468490601 1.000004529953003 2.472042560577393 C 1.000004529953003 3.283732414245605 1.660354375839233 3.944082736968994 2.472044467926025 3.944082736968994 C 3.283734321594238 3.944082736968994 3.944084644317627 3.283732414245605 3.944084644317627 2.472042560577393 C 3.944084644317627 1.660352468490601 3.283734321594238 1.00000262260437 2.472044467926025 1.00000262260437 M 2.472044467926025 2.384185791015625e-06 C 3.837314605712891 2.384185791015625e-06 4.944084644317627 1.106772661209106 4.944084644317627 2.472042560577393 C 4.944084644317627 3.837312698364258 3.837314605712891 4.944082736968994 2.472044467926025 4.944082736968994 C 1.106774568557739 4.944082736968994 4.291534423828125e-06 3.837312698364258 4.291534423828125e-06 2.472042560577393 C 4.291534423828125e-06 1.106772661209106 1.106774568557739 2.384185791015625e-06 2.472044467926025 2.384185791015625e-06 Z" stroke="none" fill="#898888"/>
  </g>
</svg>
