<svg xmlns="http://www.w3.org/2000/svg" viewBox="0 0 36.449 36.449">
  <defs>
    <style>
      .cls-1 {
        fill: #fafafa;
      }

      .cls-2 {
        fill: #666;
        fill-rule: evenodd;
      }
    </style>
  </defs>
  <g id="Group_15127" data-name="Group 15127" transform="translate(-452.109 -379)">
    <circle id="Ellipse_254" data-name="Ellipse 254" class="cls-1" cx="18.225" cy="18.225" r="18.225" transform="translate(452.108 379)"/>
    <path id="Path_136" data-name="Path 136" class="cls-2" d="M9.558,0C4.261,0,0,3.544,0,7.965A7.381,7.381,0,0,0,2.987,13.74l-.6-.2L.8,19.116l5.735-3.584a10.69,10.69,0,0,0,3.027.4c5.3,0,9.558-3.584,9.558-7.965S14.855,0,9.558,0Zm0,14.337a10.469,10.469,0,0,1-3.186-.518L3.186,15.93,4.3,12.744A5.942,5.942,0,0,1,1.593,7.965c0-3.5,3.584-6.372,7.965-6.372s7.965,2.867,7.965,6.372S13.939,14.337,9.558,14.337Z" transform="translate(460.7 389.312)"/>
  </g>
</svg>
