<svg xmlns="http://www.w3.org/2000/svg" viewBox="0 0 85 85">
  <defs>
    <style>
      .cls-1 {
        fill: #ee2737;
      }

      .cls-2 {
        fill: #fff;
      }
    </style>
  </defs>
  <g id="Group_19521" data-name="Group 19521" transform="translate(213 3729)">
    <g id="Group_19520" data-name="Group 19520" transform="translate(-795 -3617)">
      <rect id="Rectangle_11807" data-name="Rectangle 11807" class="cls-1" width="85" height="85" transform="translate(582 -112)"/>
    </g>
    <g id="Group_19509" data-name="Group 19509" transform="translate(-1099 -4258)">
      <g id="Group_19508" data-name="Group 19508" transform="translate(909 546)">
        <rect id="Rectangle_11959" data-name="Rectangle 11959" class="cls-2" width="18" height="4.6" transform="translate(10.6)"/>
        <path id="Path_9724" data-name="Path 9724" class="cls-2" d="M27.1,39.4,39.3,27.2V5.5a3.222,3.222,0,0,0-3.2-3.2H32.6V8.6H6.6V2.3H3.2A3.159,3.159,0,0,0,0,5.5V47.2a3.222,3.222,0,0,0,3.2,3.2h33a3.222,3.222,0,0,0,3.2-3.2V32.8L27.1,45.1l-8.8-8.8,2.8-2.8ZM6.8,16.8h25v4H6.8v-4ZM20.4,29.2H6.8v-4H20.4v4Z"/>
      </g>
    </g>
  </g>
</svg>
