<svg id="if_Picture3_3289574" xmlns="http://www.w3.org/2000/svg" width="8.7" height="18.966" viewBox="0 0 8.7 18.966">
  <ellipse id="Ellipse_1615" data-name="Ellipse 1615" cx="1.711" cy="1.711" rx="1.711" ry="1.711" transform="translate(2.616 0)" fill="#768692"/>
  <path id="Path_9418" data-name="Path 9418" d="M38.975,31.044l-1.1-4.057a1.02,1.02,0,0,0-.22-.391,4.244,4.244,0,0,0-1.686-1.075,4.069,4.069,0,0,0-2.64,0A4.081,4.081,0,0,0,31.643,26.6a1.24,1.24,0,0,0-.22.391l-1.1,4.057a.746.746,0,0,0,.513.929.538.538,0,0,0,.2.024.756.756,0,0,0,.709-.538l.978-3.568v12.44h1.466v-6.99h.978v6.966h1.466V27.891l.978,3.568a.756.756,0,0,0,.709.538.538.538,0,0,0,.2-.024A.782.782,0,0,0,38.975,31.044Z" transform="translate(-30.299 -21.365)" fill="#768692"/>
</svg>
