<svg xmlns="http://www.w3.org/2000/svg" xmlns:xlink="http://www.w3.org/1999/xlink" viewBox="0 0 60 60">
  <defs>
    <style>
      .cls-1, .cls-2, .cls-3, .cls-4, .cls-5 {
        fill: none;
      }

      .cls-1 {
        stroke: #707070;
      }

      .cls-2, .cls-5 {
        stroke: #fff;
      }

      .cls-5 {
        stroke-width: 2px;
      }

      .cls-6 {
        clip-path: url(#clip-path);
      }

      .cls-7 {
        clip-path: url(#clip-path-2);
      }

      .cls-8, .cls-9 {
        stroke: none;
      }

      .cls-9 {
        fill: #fff;
      }
    </style>
    <clipPath id="clip-path">
      <path id="Path_8962" data-name="Path 8962" class="cls-1" d="M6858.65,6912.125s3.182-.489,3.3.9,1.364,14.052,1.364,14.052-.563,1.853-1.364,1.63a3.738,3.738,0,0,0-1.68,0l1.173,16.377h7.707l2.752-16.377,2.615-1.63-1.737-17.643h-2.57v-7.55l-2.1-1.207h-4.8l-3.043,2.232v6.13Z"/>
    </clipPath>
    <clipPath id="clip-path-2">
      <path id="Path_8963" data-name="Path 8963" class="cls-2" d="M6850.018,6910.177v1.977l-.874,2.083-1.023,12.993a2.821,2.821,0,0,0,1.9,1.418c.771-.141.866.379.866.379v16.164h-10.017l-1.7-16.164-2.96-2.791,1.479-16.059,3.178-.607.5-7.489,4.057-.947,3.367.947,1.225,2.218v5.878Z"/>
    </clipPath>
  </defs>
  <g id="Group_17535" data-name="Group 17535" transform="translate(-915 -497)">
    <g id="Group_1" data-name="Group 1" transform="translate(-5785 -6385)">
      <rect id="Rectangle_11722" data-name="Rectangle 11722" class="cls-3" width="60" height="60" transform="translate(6700 6882)"/>
      <g id="Group_17534" data-name="Group 17534" transform="translate(-125.211 -11.678)">
        <g id="Union_4" data-name="Union 4" class="cls-4" transform="translate(6847.08 6910.933)">
          <path class="cls-8" d="M6.858,36.657A1.656,1.656,0,0,1,5.2,35L3.49,18.447H2.153A2.141,2.141,0,0,1,0,16.318L1.2,2.128A2.141,2.141,0,0,1,3.349,0H13.634a2.141,2.141,0,0,1,2.153,2.128l1.435,14.19a2.141,2.141,0,0,1-2.153,2.128h-1.3L12.061,35a1.656,1.656,0,0,1-1.656,1.656Z"/>
          <path class="cls-9" d="M 10.08642482757568 34.65709686279297 L 11.78464031219482 18.24108695983887 L 11.97024059295654 16.44688606262207 L 13.77402019500732 16.44688606262207 L 15.06964015960693 16.44688606262207 C 15.14355373382568 16.44688606262207 15.1978645324707 16.40353965759277 15.21601104736328 16.35416984558105 L 13.79751014709473 2.329736471176147 L 13.78736019134521 2.229366540908813 L 13.78736019134521 2.128476619720459 C 13.78736019134521 2.066426515579224 13.72590065002441 1.999996542930603 13.6344108581543 1.999996542930603 L 3.348740577697754 1.999996542930603 C 3.257370471954346 1.999996542930603 3.195990562438965 2.066426515579224 3.195990562438965 2.128476619720459 L 3.195990562438965 2.212616443634033 L 3.188920497894287 2.296446561813354 L 2.004576206207275 16.34820365905762 C 2.020388841629028 16.39999198913574 2.07598614692688 16.44688606262207 2.152750492095947 16.44688606262207 L 3.490290403366089 16.44688606262207 L 5.294060230255127 16.44688606262207 L 5.479670524597168 18.24108695983887 L 7.177896022796631 34.65709686279297 L 10.08642482757568 34.65709686279297 M 10.405930519104 36.65709686279297 L 6.858390331268311 36.65709686279297 C 5.944210529327393 36.65709686279297 5.202860355377197 35.91595840454102 5.202860355377197 35.00155639648438 L 3.490290403366089 18.44688606262207 L 2.152750492095947 18.44688606262207 C 0.9637804627418518 18.44688606262207 4.684448242642247e-07 17.49396705627441 4.684448242642247e-07 16.31840705871582 L 1.195990443229675 2.128476619720459 C 1.195990443229675 0.9529265165328979 2.159770488739014 -3.47595209859719e-06 3.348740577697754 -3.47595209859719e-06 L 13.6344108581543 -3.47595209859719e-06 C 14.82338047027588 -3.47595209859719e-06 15.78736019134521 0.9529265165328979 15.78736019134521 2.128476619720459 L 17.22260093688965 16.31840705871582 C 17.22260093688965 17.49396705627441 16.25860977172852 18.44688606262207 15.06964015960693 18.44688606262207 L 13.77402019500732 18.44688606262207 L 12.06146049499512 35.00155639648438 C 12.06146049499512 35.91595840454102 11.32011032104492 36.65709686279297 10.405930519104 36.65709686279297 Z"/>
        </g>
        <g id="Path_6703" data-name="Path 6703" class="cls-4" transform="translate(6851.336 6901)">
          <path class="cls-8" d="M4.257,0A4.257,4.257,0,1,1,0,4.257,4.257,4.257,0,0,1,4.257,0Z"/>
          <path class="cls-9" d="M 4.256960868835449 1.999997615814209 C 3.012470722198486 1.999997615814209 2.000000953674316 3.012467384338379 2.000000953674316 4.256957530975342 C 2.000000953674316 5.501447677612305 3.012470722198486 6.513917446136475 4.256960868835449 6.513917446136475 C 5.501450538635254 6.513917446136475 6.513920783996582 5.501447677612305 6.513920783996582 4.256957530975342 C 6.513920783996582 3.012467384338379 5.501450538635254 1.999997615814209 4.256960868835449 1.999997615814209 M 4.256960868835449 -2.86102294921875e-06 C 6.608010768890381 -2.86102294921875e-06 8.513920783996582 1.90590763092041 8.513920783996582 4.256957530975342 C 8.513920783996582 6.608007431030273 6.608010768890381 8.513917922973633 4.256960868835449 8.513917922973633 C 1.905910968780518 8.513917922973633 9.5367431640625e-07 6.608007431030273 9.5367431640625e-07 4.256957530975342 C 9.5367431640625e-07 1.90590763092041 1.905910968780518 -2.86102294921875e-06 4.256960868835449 -2.86102294921875e-06 Z"/>
        </g>
        <g id="Group_17533" data-name="Group 17533">
          <g id="Ellipse_1292" data-name="Ellipse 1292" class="cls-5" transform="translate(6861.713 6901.99)">
            <ellipse class="cls-8" cx="3.848" cy="3.848" rx="3.848" ry="3.848"/>
            <ellipse class="cls-3" cx="3.848" cy="3.848" rx="2.848" ry="2.848"/>
          </g>
          <g id="Mask_Group_24" data-name="Mask Group 24" class="cls-6">
            <g id="Union_5" data-name="Union 5" class="cls-4" transform="translate(6857.866 6910.968)">
              <path class="cls-8" d="M6.2,33.132a1.5,1.5,0,0,1-1.5-1.5L3.155,16.673H1.946A1.935,1.935,0,0,1,0,14.749L1.081,1.924A1.935,1.935,0,0,1,3.027,0h9.3a1.935,1.935,0,0,1,1.946,1.924l1.3,12.825a1.935,1.935,0,0,1-1.946,1.924H12.449L10.9,31.636a1.5,1.5,0,0,1-1.5,1.5Z"/>
              <path class="cls-9" d="M 8.943015098571777 31.13199806213379 L 10.46008110046387 16.4671573638916 L 10.64569091796875 14.67295837402344 L 12.44946098327637 14.67295837402344 L 13.54848575592041 14.67295837402344 L 12.27933120727539 2.125058174133301 L 12.26918029785156 2.024688005447388 L 12.26918029785156 1.999998092651367 L 3.080980777740479 1.999998092651367 L 3.080980777740479 2.007938146591187 L 3.073910713195801 2.091768026351929 L 2.013511419296265 14.67295837402344 L 3.154650688171387 14.67295837402344 L 4.958420753479004 14.67295837402344 L 5.144030570983887 16.4671573638916 L 6.661096572875977 31.13199806213379 L 8.943015098571777 31.13199806213379 M 9.405250549316406 33.13199996948242 L 6.198860645294189 33.13199996948242 C 5.3725905418396 33.13199996948242 4.702530860900879 32.46212768554688 4.702530860900879 31.63566780090332 L 3.154650688171387 16.67295837402344 L 1.945730686187744 16.67295837402344 C 0.8710907697677612 16.67295837402344 7.408141868836537e-07 15.81167793273926 7.408141868836537e-07 14.74916839599609 L 1.080980777740479 1.923798084259033 C 1.080980777740479 0.8612880706787109 1.952080726623535 -1.92260745279782e-06 3.026710748672485 -1.92260745279782e-06 L 12.32327079772949 -1.92260745279782e-06 C 13.39790058135986 -1.92260745279782e-06 14.26918029785156 0.8612880706787109 14.26918029785156 1.923798084259033 L 15.5664005279541 14.74916839599609 C 15.5664005279541 15.81167793273926 14.69511032104492 16.67295837402344 13.62048053741455 16.67295837402344 L 12.44946098327637 16.67295837402344 L 10.90158081054688 31.63566780090332 C 10.90158081054688 32.46212768554688 10.231520652771 33.13199996948242 9.405250549316406 33.13199996948242 Z"/>
            </g>
          </g>
        </g>
        <g id="Group_17532" data-name="Group 17532">
          <g id="Ellipse_1293" data-name="Ellipse 1293" class="cls-5" transform="translate(6841.848 6901.99)">
            <ellipse class="cls-8" cx="3.848" cy="3.848" rx="3.848" ry="3.848"/>
            <ellipse class="cls-3" cx="3.848" cy="3.848" rx="2.848" ry="2.848"/>
          </g>
          <g id="Group_17531" data-name="Group 17531">
            <g id="Mask_Group_25" data-name="Mask Group 25" class="cls-7">
              <g id="Union_6" data-name="Union 6" class="cls-4" transform="translate(6838 6910.968)">
                <path class="cls-8" d="M6.2,33.132a1.5,1.5,0,0,1-1.5-1.5L3.155,16.673H1.946A1.935,1.935,0,0,1,0,14.749L1.081,1.924A1.935,1.935,0,0,1,3.027,0h9.3a1.935,1.935,0,0,1,1.946,1.924l1.3,12.825a1.935,1.935,0,0,1-1.946,1.924H12.449L10.9,31.636a1.5,1.5,0,0,1-1.5,1.5Z"/>
                <path class="cls-9" d="M 8.943015098571777 31.13199806213379 L 10.46008110046387 16.4671573638916 L 10.64569091796875 14.67295837402344 L 12.44946098327637 14.67295837402344 L 13.54848575592041 14.67295837402344 L 12.27933120727539 2.125058174133301 L 12.26918029785156 2.024688005447388 L 12.26918029785156 1.999998092651367 L 3.080980777740479 1.999998092651367 L 3.080980777740479 2.007938146591187 L 3.073910713195801 2.091768026351929 L 2.013511419296265 14.67295837402344 L 3.154650688171387 14.67295837402344 L 4.958420753479004 14.67295837402344 L 5.144030570983887 16.4671573638916 L 6.661096572875977 31.13199806213379 L 8.943015098571777 31.13199806213379 M 9.405250549316406 33.13199996948242 L 6.198860645294189 33.13199996948242 C 5.3725905418396 33.13199996948242 4.702530860900879 32.46212768554688 4.702530860900879 31.63566780090332 L 3.154650688171387 16.67295837402344 L 1.945730686187744 16.67295837402344 C 0.8710907697677612 16.67295837402344 7.408141868836537e-07 15.81167793273926 7.408141868836537e-07 14.74916839599609 L 1.080980777740479 1.923798084259033 C 1.080980777740479 0.8612880706787109 1.952080726623535 -1.92260745279782e-06 3.026710748672485 -1.92260745279782e-06 L 12.32327079772949 -1.92260745279782e-06 C 13.39790058135986 -1.92260745279782e-06 14.26918029785156 0.8612880706787109 14.26918029785156 1.923798084259033 L 15.5664005279541 14.74916839599609 C 15.5664005279541 15.81167793273926 14.69511032104492 16.67295837402344 13.62048053741455 16.67295837402344 L 12.44946098327637 16.67295837402344 L 10.90158081054688 31.63566780090332 C 10.90158081054688 32.46212768554688 10.231520652771 33.13199996948242 9.405250549316406 33.13199996948242 Z"/>
              </g>
            </g>
          </g>
        </g>
      </g>
    </g>
  </g>
</svg>
