<svg xmlns="http://www.w3.org/2000/svg" viewBox="0 0 60.037 54.958">
  <defs>
    <style>
      .cls-1, .cls-2 {
        fill: none;
      }

      .cls-2 {
        stroke: #4d4e4d;
        stroke-width: 2px;
      }

      .cls-3, .cls-4 {
        stroke: none;
      }

      .cls-4 {
        fill: #4d4e4d;
      }
    </style>
  </defs>
  <g id="Group_17926" data-name="Group 17926" transform="translate(-1768 -932)">
    <g id="Group_17911" data-name="Group 17911" transform="translate(13052 -13481)">
      <g id="Path_9026" data-name="Path 9026" class="cls-1" transform="translate(-11284 14413)">
        <path class="cls-3" d="M0,0H49V9.76H59.973L49,22.607V33H0Z"/>
        <path class="cls-4" d="M 2 2 L 2 31 L 47 31 L 47 22.60715103149414 L 47 21.8692798614502 L 47.47921752929688 21.30821990966797 L 55.63419342041016 11.76041984558105 L 49 11.76041984558105 L 47 11.76041984558105 L 47 9.760419845581055 L 47 2 L 2 2 M 0 0 L 49 0 L 49 9.760419845581055 L 59.97265625 9.760419845581055 L 49 22.60715103149414 L 49 33 L 0 33 L 0 0 Z"/>
      </g>
      <path id="Path_9027" data-name="Path 9027" class="cls-2" d="M-11178.756,14450.8v7.539h12.685v7.784l12.09-7.784h24.019v-25.385" transform="translate(-95)"/>
      <path id="Path_9028" data-name="Path 9028" class="cls-2" d="M-11180.991,14421.5h26.652" transform="translate(-92 1)"/>
      <path id="Path_9029" data-name="Path 9029" class="cls-2" d="M-11180.991,14421.5h26.652" transform="translate(-92 8)"/>
      <path id="Path_9030" data-name="Path 9030" class="cls-2" d="M-11180.991,14421.5h13.652" transform="translate(-92 15)"/>
    </g>
  </g>
</svg>
