<svg xmlns="http://www.w3.org/2000/svg" width="36" height="36" viewBox="0 0 36 36">
  <g id="icon-mrr-user-count" transform="translate(-1845 -1672)">
    <rect id="Rectangle_11257" data-name="Rectangle 11257" width="36" height="36" transform="translate(1845 1672)" fill="none"/>
    <path id="Path_9423" data-name="Path 9423" d="M16.116,11.921c.577-.315,1.258-.629,1.835-.891l.419-1.206a2.364,2.364,0,0,1-1.1-1.678L17.008,6.1A2.771,2.771,0,0,1,19.577,2.85,2.838,2.838,0,0,1,22.2,6.1l-.262,2.045a2.473,2.473,0,0,1-1.049,1.678l.419,1.206,3.566,1.783a1.863,1.863,0,0,1,1.049,1.573v1.049H19.63m-3.566-1.416a2.515,2.515,0,0,1,1.416,2.1v1.416H.7V16.116a2.783,2.783,0,0,1,1.468-2.15c.787-.367,2.989-1.468,4.719-2.36l.524-1.626A3.061,3.061,0,0,1,6,7.727L5.629,5.052A3.716,3.716,0,0,1,9.09.7a3.716,3.716,0,0,1,3.461,4.352l-.315,2.727a3.267,3.267,0,0,1-1.416,2.255l.524,1.626c1.73.839,3.933,1.94,4.719,2.36Z" transform="translate(1849.457 1680.429)" fill="none" stroke="#666" stroke-miterlimit="10" stroke-width="1.5" fill-rule="evenodd"/>
  </g>
</svg>
