<svg xmlns="http://www.w3.org/2000/svg" viewBox="0 0 56 56">
  <defs>
    <style>
      .cls-1, .cls-4 {
        fill: #dd1e25;
      }

      .cls-2, .cls-3, .cls-7 {
        fill: none;
      }

      .cls-3 {
        stroke: #fff;
        stroke-width: 2px;
      }

      .cls-5, .cls-6 {
        stroke: none;
      }

      .cls-6 {
        fill: #fff;
      }
    </style>
  </defs>
  <g id="Group_17958" data-name="Group 17958" transform="translate(12141 -14648)">
    <g id="Group_17948" data-name="Group 17948">
      <circle id="Ellipse_1616" data-name="Ellipse 1616" class="cls-1" cx="28" cy="28" r="28" transform="translate(-12141 14648)"/>
      <g id="Group_14614" data-name="Group 14614" transform="translate(-12128 14657)">
        <g id="Union_5" data-name="Union 5" class="cls-2" transform="translate(16.982 8.521)">
          <path class="cls-5" d="M5.3,28.322A1.279,1.279,0,0,1,4.02,27.043L2.7,14.252H1.663A1.654,1.654,0,0,1,0,12.608L.924,1.645A1.654,1.654,0,0,1,2.587,0h7.947A1.654,1.654,0,0,1,12.2,1.645l1.109,10.963a1.654,1.654,0,0,1-1.663,1.645h-1L9.319,27.043A1.279,1.279,0,0,1,8.04,28.322Z"/>
          <path class="cls-6" d="M 7.382859706878662 26.32209777832031 L 8.652743339538574 14.04668712615967 L 8.838353157043457 12.25248718261719 L 10.64212322235107 12.25248718261719 L 11.26040172576904 12.25248718261719 L 10.22342300415039 1.999997019767761 L 2.901178121566772 1.999997019767761 L 2.037051916122437 12.25248718261719 L 2.696683168411255 12.25248718261719 L 4.500463008880615 12.25248718261719 L 4.686063289642334 14.04668712615967 L 5.955936908721924 26.32209777832031 L 7.382859706878662 26.32209777832031 M 8.039853096008301 28.32209777832031 L 5.298943042755127 28.32209777832031 C 4.592623233795166 28.32209777832031 4.019843101501465 27.74946784973145 4.019843101501465 27.04299736022949 L 2.696683168411255 14.25248718261719 L 1.663263082504272 14.25248718261719 C 0.7446331381797791 14.25248718261719 3.119201664958382e-06 13.51623725891113 3.119201664958382e-06 12.60796737670898 L 0.9240531325340271 1.644506931304932 C 0.9240531325340271 0.7362470030784607 1.668683171272278 -3.018188408532296e-06 2.587313175201416 -3.018188408532296e-06 L 10.53425312042236 -3.018188408532296e-06 C 11.45287322998047 -3.018188408532296e-06 12.19767284393311 0.7362470030784607 12.19767284393311 1.644506931304932 L 13.30656337738037 12.60796737670898 C 13.30656337738037 13.51623725891113 12.56176280975342 14.25248718261719 11.64314270019531 14.25248718261719 L 10.64212322235107 14.25248718261719 L 9.318953514099121 27.04299736022949 C 9.318953514099121 27.74946784973145 8.746172904968262 28.32209777832031 8.039853096008301 28.32209777832031 Z"/>
        </g>
        <g id="Union_6" data-name="Union 6" class="cls-2" transform="translate(0 8.521)">
          <path class="cls-5" d="M5.3,28.322A1.279,1.279,0,0,1,4.02,27.043L2.7,14.252H1.663A1.654,1.654,0,0,1,0,12.608L.924,1.645A1.654,1.654,0,0,1,2.587,0h7.947A1.654,1.654,0,0,1,12.2,1.645l1.109,10.963a1.654,1.654,0,0,1-1.663,1.645h-1L9.319,27.043A1.279,1.279,0,0,1,8.04,28.322Z"/>
          <path class="cls-6" d="M 7.382859706878662 26.32209777832031 L 8.652743339538574 14.04668712615967 L 8.838353157043457 12.25248718261719 L 10.64212322235107 12.25248718261719 L 11.26040172576904 12.25248718261719 L 10.22342300415039 1.999997019767761 L 2.901178121566772 1.999997019767761 L 2.037051916122437 12.25248718261719 L 2.696683168411255 12.25248718261719 L 4.500463008880615 12.25248718261719 L 4.686063289642334 14.04668712615967 L 5.955936908721924 26.32209777832031 L 7.382859706878662 26.32209777832031 M 8.039853096008301 28.32209777832031 L 5.298943042755127 28.32209777832031 C 4.592623233795166 28.32209777832031 4.019843101501465 27.74946784973145 4.019843101501465 27.04299736022949 L 2.696683168411255 14.25248718261719 L 1.663263082504272 14.25248718261719 C 0.7446331381797791 14.25248718261719 3.119201664958382e-06 13.51623725891113 3.119201664958382e-06 12.60796737670898 L 0.9240531325340271 1.644506931304932 C 0.9240531325340271 0.7362470030784607 1.668683171272278 -3.018188408532296e-06 2.587313175201416 -3.018188408532296e-06 L 10.53425312042236 -3.018188408532296e-06 C 11.45287322998047 -3.018188408532296e-06 12.19767284393311 0.7362470030784607 12.19767284393311 1.644506931304932 L 13.30656337738037 12.60796737670898 C 13.30656337738037 13.51623725891113 12.56176280975342 14.25248718261719 11.64314270019531 14.25248718261719 L 10.64212322235107 14.25248718261719 L 9.318953514099121 27.04299736022949 C 9.318953514099121 27.74946784973145 8.746172904968262 28.32209777832031 8.039853096008301 28.32209777832031 Z"/>
        </g>
        <g id="Ellipse_1292" data-name="Ellipse 1292" class="cls-3" transform="translate(20.271 0.846)">
          <ellipse class="cls-5" cx="3.289" cy="3.289" rx="3.289" ry="3.289"/>
          <ellipse class="cls-7" cx="3.289" cy="3.289" rx="2.289" ry="2.289"/>
        </g>
        <g id="Ellipse_1293" data-name="Ellipse 1293" class="cls-3" transform="translate(3.289 0.846)">
          <ellipse class="cls-5" cx="3.289" cy="3.289" rx="3.289" ry="3.289"/>
          <ellipse class="cls-7" cx="3.289" cy="3.289" rx="2.289" ry="2.289"/>
        </g>
        <g id="Union_4" data-name="Union 4" class="cls-4" transform="translate(7.762 8.491)">
          <path class="cls-5" d="M 8.895254135131836 30.33543968200684 L 5.862734794616699 30.33543968200684 C 5.633794784545898 30.33543968200684 5.447534561157227 30.14918899536133 5.447534561157227 29.92024993896484 L 5.447534561157227 29.86865997314453 L 5.442224502563477 29.81735038757324 L 3.978284597396851 15.66597938537598 L 3.885484457015991 14.76887989044189 L 2.983594655990601 14.76887989044189 L 1.840224623680115 14.76887989044189 C 1.388518333435059 14.76887989044189 1.01892364025116 14.41942310333252 1.000708699226379 13.983154296875 L 2.018834590911865 1.903469800949097 L 2.022364616394043 1.861549854278564 L 2.022364616394043 1.819479823112488 C 2.022364616394043 1.367619872093201 2.399284601211548 0.9999998211860657 2.862584590911865 0.9999998211860657 L 11.65504455566406 0.9999998211860657 C 12.11844444274902 0.9999998211860657 12.49545478820801 1.367619872093201 12.49545478820801 1.819479823112488 L 12.49545478820801 1.869919896125793 L 12.5005350112915 1.920109868049622 L 13.72131443023682 13.98981666564941 C 13.6996488571167 14.42298984527588 13.33143711090088 14.76887989044189 12.88192462921143 14.76887989044189 L 11.77439498901367 14.76887989044189 L 10.87250423431396 14.76887989044189 L 10.77970409393311 15.66597938537598 L 9.315764427185059 29.81735038757324 L 9.310454368591309 29.86865997314453 L 9.310454368591309 29.92024993896484 C 9.310454368591309 30.14918899536133 9.124194145202637 30.33543968200684 8.895254135131836 30.33543968200684 Z"/>
          <path class="cls-6" d="M 8.360282897949219 29.33543968200684 L 9.785014152526855 15.56307983398438 L 9.970614433288574 13.76887989044189 L 11.77439498901367 13.76887989044189 L 12.69386005401611 13.76887989044189 L 11.50560474395752 2.020739793777466 L 11.50350761413574 1.99999988079071 L 3.014236688613892 1.99999988079071 L 2.022306680679321 13.76887989044189 L 2.983594655990601 13.76887989044189 L 4.787374496459961 13.76887989044189 L 4.97297477722168 15.56307983398438 L 6.397706508636475 29.33543968200684 L 8.360282897949219 29.33543968200684 M 8.895254135131836 31.33543968200684 L 5.862734794616699 31.33543968200684 C 5.081264495849609 31.33543968200684 4.447534561157227 30.70190048217773 4.447534561157227 29.92024993896484 L 2.983594655990601 15.76887989044189 L 1.840224623680115 15.76887989044189 C 0.8238645792007446 15.76887989044189 4.56985480923322e-06 14.95429992675781 4.56985480923322e-06 13.94939994812012 L 1.022364616394043 1.819479823112488 C 1.022364616394043 0.8145798444747925 1.846224546432495 -1.589965847870189e-07 2.862584590911865 -1.589965847870189e-07 L 11.65504455566406 -1.589965847870189e-07 C 12.67141437530518 -1.589965847870189e-07 13.49545478820801 0.8145798444747925 13.49545478820801 1.819479823112488 L 14.72232437133789 13.94939994812012 C 14.72232437133789 14.95429992675781 13.89828491210938 15.76887989044189 12.88192462921143 15.76887989044189 L 11.77439498901367 15.76887989044189 L 10.31045436859131 29.92024993896484 C 10.31045436859131 30.70190048217773 9.676724433898926 31.33543968200684 8.895254135131836 31.33543968200684 Z"/>
        </g>
        <g id="Path_6703" data-name="Path 6703" class="cls-2" transform="translate(11.401 0)">
          <path class="cls-5" d="M3.639,0A3.639,3.639,0,1,1,0,3.639,3.639,3.639,0,0,1,3.639,0Z"/>
          <path class="cls-6" d="M 3.638961315155029 1.999998569488525 C 2.735231399536133 1.999998569488525 2.000001430511475 2.735228538513184 2.000001430511475 3.63895845413208 C 2.000001430511475 4.542688369750977 2.735231399536133 5.277918338775635 3.638961315155029 5.277918338775635 C 4.542691230773926 5.277918338775635 5.277921199798584 4.542688369750977 5.277921199798584 3.63895845413208 C 5.277921199798584 2.735228538513184 4.542691230773926 1.999998569488525 3.638961315155029 1.999998569488525 M 3.638961315155029 -1.430511474609375e-06 C 5.648701190948486 -1.430511474609375e-06 7.277921199798584 1.629218578338623 7.277921199798584 3.63895845413208 C 7.277921199798584 5.648698329925537 5.648701190948486 7.277918338775635 3.638961315155029 7.277918338775635 C 1.629221439361572 7.277918338775635 1.430511474609375e-06 5.648698329925537 1.430511474609375e-06 3.63895845413208 C 1.430511474609375e-06 1.629218578338623 1.629221439361572 -1.430511474609375e-06 3.638961315155029 -1.430511474609375e-06 Z"/>
        </g>
      </g>
    </g>
  </g>
</svg>
