<svg xmlns="http://www.w3.org/2000/svg" viewBox="0 0 90.882 73.979">
  <defs>
    <style>
      .cls-1 {
        fill: #edeeee;
        opacity: 0.695;
      }
    </style>
  </defs>
  <path id="Subtraction_179" data-name="Subtraction 179" class="cls-1" d="M10.458,73.979V52.384C3.714,46.666,0,39.417,0,31.976,0,14.344,20.385,0,45.443,0S90.882,14.344,90.882,31.976,70.5,63.951,45.443,63.951A63.182,63.182,0,0,1,31.4,62.4L10.463,73.976ZM41.1,40.73v6.3h6.665v-6.3ZM44.063,20a2.811,2.811,0,0,1,2.511,1.328,6.457,6.457,0,0,0,.452.525,4.181,4.181,0,0,1,1.11,2.959A3.532,3.532,0,0,1,47.4,27.4c0,.246-.332.5-.653.738a4.359,4.359,0,0,0-.456.375L44.8,29.623c-1.418,1.063-2.207,1.813-2.589,2.963a15.293,15.293,0,0,0-.743,5.182h5.555a9.419,9.419,0,0,1,.257-1.922,4.2,4.2,0,0,0,.112-.667,9.72,9.72,0,0,1,1.833-2.2l.019-.019,1.48-1.11a30.364,30.364,0,0,0,3.333-2.963,7.432,7.432,0,0,0,1.483-4.816c0-3.28-1.059-5.516-3.333-7.035a14.059,14.059,0,0,0-8.148-2.223c-2.9,0-4.962.485-6.3,1.483-2.948,1.84-4.442,4.831-4.442,8.888h6.3a10.861,10.861,0,0,1,.74-3.332A4.114,4.114,0,0,1,44.063,20Z"/>
</svg>
