<svg xmlns="http://www.w3.org/2000/svg" width="85" height="85" viewBox="0 0 85 85">
  <g id="Group_18546" data-name="Group 18546" transform="translate(-635 -40)">
    <g id="Group_18463" data-name="Group 18463">
      <rect id="Rectangle_11807" data-name="Rectangle 11807" width="85" height="85" transform="translate(635 40)" fill="#ee2737"/>
      <path id="ic_chat_24px" d="M43.852,2H6.65A4.644,4.644,0,0,0,2.023,6.65L2,48.5l9.3-9.3H43.852a4.664,4.664,0,0,0,4.65-4.65V6.65A4.664,4.664,0,0,0,43.852,2Z" transform="translate(652.764 59.824)" fill="#fff"/>
      <path id="Path_8986" data-name="Path 8986" d="M9.451,17.531S-4.585,6.734,2.565,1.586a4.672,4.672,0,0,1,6.819.822,4.65,4.65,0,0,1,6.8-.822c7.15,5.148-6.737,15.945-6.737,15.945Z" transform="translate(668.754 71.829)" fill="none" stroke="#ee2737" stroke-miterlimit="10" stroke-width="4" fill-rule="evenodd"/>
    </g>
  </g>
</svg>
