<svg xmlns="http://www.w3.org/2000/svg" viewBox="0 0 44.091 38.955">
  <defs>
    <style>
      .cls-1 {
        fill: none;
        stroke: #fff;
        stroke-width: 2px;
      }
    </style>
  </defs>
  <g id="Group_17334" data-name="Group 17334" transform="translate(1.003 1)">
    <path id="Path_866" data-name="Path 866" class="cls-1" d="M5007.963,4595.876h8.827v16.132s.142,4.785-3.552,4.785-5.263-1.5-5.274-4.785,0-32.17,0-32.17h-33.256v32.17s-.213,4.789,3.887,4.785,34.644,0,34.644,0" transform="translate(-4974.706 -4579.839)"/>
    <path id="Path_871" data-name="Path 871" class="cls-1" d="M.5,1.1H11.189V11.6H.5Z" transform="translate(5.477 5.745)"/>
    <path id="Path_867" data-name="Path 867" class="cls-1" d="M4977.033,4593.014h22.73" transform="translate(-4971.924 -4570.288)"/>
    <path id="Path_872" data-name="Path 872" class="cls-1" d="M4977.033,4593.014h22.73" transform="translate(-4971.924 -4565.239)"/>
    <path id="Path_869" data-name="Path 869" class="cls-1" d="M4977.33,4593.014h7.053" transform="translate(-4956.542 -4581.002)"/>
    <path id="Path_870" data-name="Path 870" class="cls-1" d="M4977.33,4593.014h7.053" transform="translate(-4956.542 -4575.657)"/>
    <path id="Path_869-2" data-name="Path 869" class="cls-1" d="M4977.33,4593.014h7.053" transform="translate(-4956.542 -4586.347)"/>
  </g>
</svg>
