<svg xmlns="http://www.w3.org/2000/svg" viewBox="0 0 48.71 40.888">
  <defs>
    <style>
      .cls-1, .cls-2, .cls-3 {
        fill: none;
        stroke: #fff;
      }

      .cls-1, .cls-2 {
        stroke-miterlimit: 10;
      }

      .cls-2, .cls-3 {
        stroke-width: 2px;
      }
    </style>
  </defs>
  <g id="Group_17325" data-name="Group 17325" transform="translate(1 1)">
    <g id="Group_3761" data-name="Group 3761" transform="translate(0 0)">
      <line id="Line_167" data-name="Line 167" class="cls-1" y1="0.223" transform="translate(17.316 18.987)"/>
      <path id="Path_1191" data-name="Path 1191" class="cls-2" d="M27.087,50.667H20a5.653,5.653,0,0,1-3.009-.936c-.825-.535-3.722-2.34-3.722-2.34a5.624,5.624,0,0,0-3.075-.891H4A3.728,3.728,0,0,0,.5,50.578V61.052l3.922,3.922V75.137H11.2V59.359" transform="translate(-0.5 -36.249)"/>
      <path id="Path_1193" data-name="Path 1193" class="cls-3" d="M3.566,0A3.566,3.566,0,1,1,0,3.566,3.566,3.566,0,0,1,3.566,0Z" transform="translate(3.722 0)"/>
      <g id="Group_3733" data-name="Group 3733" transform="translate(17.427 3.075)">
        <path id="Path_1192" data-name="Path 1192" class="cls-2" d="M78.7,19.181v-3.7A1.189,1.189,0,0,1,79.881,14.3H106.8a1.189,1.189,0,0,1,1.181,1.181V34.6a1.189,1.189,0,0,1-1.181,1.181H79.881A1.189,1.189,0,0,1,78.7,34.6V30.435" transform="translate(-78.7 -14.3)"/>
        <g id="Group_3732" data-name="Group 3732" transform="translate(3.989 21.639)">
          <g id="Group_3730" data-name="Group 3730">
            <line id="Line_168" data-name="Line 168" class="cls-2" x1="8.246" y2="12.19"/>
          </g>
          <g id="Group_3731" data-name="Group 3731" transform="translate(13.082)">
            <line id="Line_169" data-name="Line 169" class="cls-2" x2="8.246" y2="12.19"/>
          </g>
        </g>
      </g>
    </g>
  </g>
</svg>
