<svg xmlns="http://www.w3.org/2000/svg" viewBox="0 0 52 47">
  <defs>
    <style>
      .cls-1, .cls-2 {
        fill: none;
      }

      .cls-2 {
        stroke: #4d4e4d;
        stroke-miterlimit: 10;
        stroke-width: 2px;
      }
    </style>
  </defs>
  <g id="Group_18468" data-name="Group 18468" transform="translate(-4085 -245)">
    <rect id="Rectangle_11728" data-name="Rectangle 11728" class="cls-1" width="52" height="46" transform="translate(4085 246)"/>
    <g id="Group_18467" data-name="Group 18467" transform="translate(4094 246)">
      <path id="Path_6366" data-name="Path 6366" class="cls-2" d="M34.06,1H6.489C1.383,1,1,4.319,1,7V37s.638,3.574,5.489,3.574H34.316V8.531H6.489C2.7,8.531.558,5.608,1.67,3.119" transform="translate(-1 -1)"/>
      <g id="Group_12594" data-name="Group 12594" transform="translate(9.191 12.764)">
        <path id="Path_6367" data-name="Path 6367" class="cls-2" d="M17.178,21.722H13.987A1.745,1.745,0,0,1,12.2,19.935V12.787A1.745,1.745,0,0,1,13.987,11h3.191a1.745,1.745,0,0,1,1.787,1.787v7.148A1.745,1.745,0,0,1,17.178,21.722Z" transform="translate(-7.094 -11)"/>
        <path id="Path_6368" data-name="Path 6368" class="cls-2" d="M25.3,26.206V24.546A3.432,3.432,0,0,0,21.858,21.1H11.646A3.432,3.432,0,0,0,8.2,24.546v1.659Z" transform="translate(-8.2 -7.208)"/>
      </g>
    </g>
  </g>
</svg>
