<svg xmlns="http://www.w3.org/2000/svg" viewBox="0 0 850 350">
  <defs>
    <style>
      .cls-1 {
        fill: #dedfe0;
      }

      .cls-2 {
        opacity: 0.556;
      }

      .cls-3 {
        fill: #cbcccd;
      }

      .cls-4 {
        fill: #c6c7c8;
      }
    </style>
  </defs>
  <g id="Group_17070" data-name="Group 17070" transform="translate(-496 -321)">
    <rect id="Rectangle_1" data-name="Rectangle 1" class="cls-1" width="850" height="350" transform="translate(496 321)"/>
    <g id="Group_1" data-name="Group 1" class="cls-2" transform="translate(410.319 -246.926)">
      <g id="Group_17069" data-name="Group 17069" transform="translate(-12 559)">
        <path id="Path_7760" data-name="Path 7760" class="cls-3" d="M388.9,113.74c-35.668-12.081-107.58-44.3-146.125-58.68-48.9-18.985-109.881-37.969-158.781-36.819C4.6,20.542-2.3,71.744,16.106,94.755c21.286,23.012,46.024,44.3,71.337,60.406A28.694,28.694,0,0,1,75.362,135.6C71.335,107.987,95.5,83.249,150.725,85.551c69.611,3.452,143.824,39.7,204.23,57.529,31.641,9.2,87.445,29.915,149-3.452a202.847,202.847,0,0,0,41.421-35.093C513.736,138.478,459.659,137.9,388.9,113.74Z" transform="translate(254.919 126.521)"/>
        <path id="Path_7761" data-name="Path 7761" class="cls-3" d="M549.725,169.112c-47.749,0-96.65-25.888-111.032-32.792-25.888-12.081-91.472-46.6-122.538-62.132C273.008,52.327,174.633-1.751,87.188,2.276,38.288,5.153-2.558,29.89.318,73.037h0c4.027,33.942,24.162,67.885,51.2,97.8h0a44.3,44.3,0,0,1-8.629-20.711c-4.027-32.792,19.56-67.31,84.568-67.31,48.325,0,104.7,18.985,155.33,38.545,56.954,21.861,113.908,50.626,150.152,63.282,75.364,25.888,121.963,22.436,152.453-9.2a173.777,173.777,0,0,0,16.684-23.587,62.753,62.753,0,0,1,3.452-6.328C599.2,158.756,580.791,169.112,549.725,169.112Z" transform="translate(219.506 49.864)"/>
        <path id="Path_7758" data-name="Path 7758" class="cls-4" d="M30.2,59.015c0,7.61,8.625,15.727,24.859,18.771,24.859,4.566,63.416-4.059,74.07-6.6l40.079-9.639L129.637,50.39c-10.654-3.044-48.7-13.191-74.07-9.132C39.839,43.288,30.707,51.405,30.2,59.015Z" transform="translate(357.213 235.864)"/>
        <path id="Path_7762" data-name="Path 7762" class="cls-4" d="M183.93,18.7c-43.147,0-94.924,26.464-106.43,31.641,10.931,5.178,65.008,33.367,107,33.367,31.066,0,51.777-14.382,51.777-32.792C236.281,33.082,215,18.7,183.93,18.7Z" transform="translate(587.027 128.939)"/>
        <path id="Path_7759" data-name="Path 7759" class="cls-3" d="M296.984,87.129C241.18,72.171,162.94,35.352,91.6,31.9,15.665,27.874,7.611,75.048,31.2,91.156c25.313,16.684,50.626,28.189,71.337,33.367-14.382-4.027-21.861-11.506-21.286-21.861,0-8.629,10.355-17.259,28.765-20.135,28.189-4.027,71.912,7.479,83.993,10.355l48.325,13.232C306.764,123.948,378.1,114.743,433.9,83.1,387.305,106.689,343.583,99.785,296.984,87.129Z" transform="translate(311.164 190.526)"/>
      </g>
    </g>
  </g>
</svg>
