<svg xmlns="http://www.w3.org/2000/svg" xmlns:xlink="http://www.w3.org/1999/xlink" width="1920" height="803.068" viewBox="0 0 1920 803.068"><defs><clipPath id="a"><path d="M0,0H1920V803.068H0Z" transform="translate(-5484 3885)" fill="#fff"/></clipPath></defs><g transform="translate(5484 -3885)" clip-path="url(#a)"><g transform="translate(-234.897 587.103)"><g transform="translate(-5023.646 3677.354)"><g transform="translate(502.108 502.108)" fill="none" stroke="#dedfe0" stroke-width="1"><circle cx="282.436" cy="282.436" r="282.436" stroke="none"/><circle cx="282.436" cy="282.436" r="281.936" fill="none"/></g><g transform="translate(439.344 439.344)" fill="none" stroke="#dedfe0" stroke-width="1"><circle cx="345.199" cy="345.199" r="345.199" stroke="none"/><circle cx="345.199" cy="345.199" r="344.699" fill="none"/></g><g transform="translate(376.581 376.581)" fill="none" stroke="#dedfe0" stroke-width="1"><circle cx="407.962" cy="407.962" r="407.962" stroke="none"/><circle cx="407.962" cy="407.962" r="407.462" fill="none"/></g><g transform="translate(313.817 313.817)" fill="none" stroke="#dedfe0" stroke-width="1"><circle cx="470.726" cy="470.726" r="470.726" stroke="none"/><circle cx="470.726" cy="470.726" r="470.226" fill="none"/></g><g transform="translate(251.054 251.054)" fill="none" stroke="#dedfe0" stroke-width="1"><circle cx="533.489" cy="533.489" r="533.489" stroke="none"/><circle cx="533.489" cy="533.489" r="532.989" fill="none"/></g><g transform="translate(188.29 188.29)" fill="none" stroke="#dedfe0" stroke-width="1"><circle cx="596.253" cy="596.253" r="596.253" stroke="none"/><circle cx="596.253" cy="596.253" r="595.753" fill="none"/></g><g transform="translate(125.527 125.527)" fill="none" stroke="#dedfe0" stroke-width="1"><circle cx="659.016" cy="659.016" r="659.016" stroke="none"/><circle cx="659.016" cy="659.016" r="658.516" fill="none"/></g><g transform="translate(62.763 62.763)" fill="none" stroke="#dedfe0" stroke-width="1"><circle cx="721.78" cy="721.78" r="721.78" stroke="none"/><circle cx="721.78" cy="721.78" r="721.28" fill="none"/></g><g fill="none" stroke="#dedfe0" stroke-width="1"><circle cx="784.543" cy="784.543" r="784.543" stroke="none"/><circle cx="784.543" cy="784.543" r="784.043" fill="none"/></g></g></g></g></svg>