<svg height="500" viewBox="0 0 405 500" width="405" xmlns="http://www.w3.org/2000/svg"><path d="m0 0h405v500h-405z" fill="#fff"/><path d="m50.467 0v50.467h-50.467z" fill="#dbddda" opacity=".304"/><path d="m50.467 0v50.467h-50.467z" fill="#aeb0ad" opacity=".304" transform="matrix(0 1 -1 0 50.467 99.896)"/><path d="m50.467 0v50.467h-50.467z" fill="#aeb0ad" opacity=".304" transform="translate(50.467)"/><path d="m50.467 0v50.467h-50.467z" fill="#dddada" opacity=".505" transform="matrix(-1 0 0 -1 100.933 150.362)"/><path d="m50.467 0v50.467h-50.467z" fill="#f0f2ef" opacity=".304" transform="translate(101.295)"/><path d="m50.467 0v50.467h-50.467z" fill="#f0f2ef" opacity=".304" transform="translate(101.295 99.896)"/><path d="m50.467 0v50.467h-50.467z" fill="#f0f2ef" opacity=".304" transform="translate(202.59)"/><path d="m50.467 0v50.467h-50.467z" fill="#f0f2ef" opacity=".304" transform="matrix(0 -1 1 0 253.238 50.467)"/><path d="m50.467 0v50.467h-50.467z" fill="#f0f2ef" opacity=".304" transform="matrix(0 -1 1 0 253.238 150.362)"/><path d="m50.467 0v50.467h-50.467z" fill="#dbddda" opacity=".304" transform="translate(151.943)"/><path d="m50.467 0v50.467h-50.467z" fill="#eff1ee" opacity=".304" transform="matrix(0 -1 1 0 151.943 50.467)"/><path d="m50.467 0v50.467h-50.467z" fill="#eff1ee" opacity=".304" transform="matrix(0 -1 1 0 151.943 150.362)"/><path d="m50.467 0v50.467h-50.467z" fill="#eff1ee" opacity=".304" transform="matrix(0 -1 1 0 50.467 50.467)"/><path d="m50.467 0v50.467h-50.467z" fill="#eff1ee" opacity=".304" transform="matrix(0 1 -1 0 100.933 99.896)"/><path d="m50.467 0v50.467h-50.467z" fill="#aeb0ad" opacity=".304" transform="matrix(0 -1 1 0 202.59 150.362)"/><path d="m50.467 0v50.467h-50.467z" fill="#eff1ee" opacity=".304" transform="matrix(-1 0 0 -1 253.057 150.362)"/><path d="m50.467 0v50.467h-50.467z" fill="#eff1ee" opacity=".304" transform="matrix(0 -1 1 0 0 50.467)"/><path d="m50.467 0v50.467h-50.467z" fill="#eff1ee" opacity=".304" transform="translate(0 99.896)"/><path d="m50.467 0v50.467h-50.467z" fill="#e2e4e1" opacity=".304" transform="matrix(-1 0 0 -1 50.467 50.467)"/><path d="m50.467 0v50.467h-50.467z" fill="#e2e4e1" opacity=".304" transform="matrix(0 -1 1 0 0 150.362)"/><path d="m50.467 0v50.467h-50.467z" fill="#dbddda" opacity=".304" transform="matrix(-1 0 0 -1 303.705 100.934)"/><path d="m50.467 0v50.467h-50.467z" fill="#ee2737" opacity=".304" transform="matrix(-1 0 0 -1 253.057 100.934)"/><path d="m50.467 0v50.467h-50.467z" fill="#f0f2ef" opacity=".304" transform="matrix(-1 0 0 -1 202.409 100.934)"/><path d="m50.467 0v50.467h-50.467z" fill="#f0f2ef" opacity=".304" transform="matrix(-1 0 0 -1 100.933 100.934)"/><path d="m50.467 0v50.467h-50.467z" fill="#f0f2ef" opacity=".304" transform="matrix(0 1 -1 0 50.467 50.467)"/><path d="m50.467 0v50.467h-50.467z" fill="#dbddda" opacity=".304" transform="matrix(-1 0 0 -1 151.762 100.934)"/><path d="m50.467 0v50.467h-50.467z" fill="#eff1ee" opacity=".304" transform="matrix(0 1 -1 0 151.762 50.467)"/><path d="m50.467 0v50.467h-50.467z" fill="#eff1ee" opacity=".304" transform="matrix(0 1 -1 0 253.057 50.467)"/><path d="m50.467 0v50.467h-50.467z" fill="#eff1ee" opacity=".304" transform="matrix(0 1 -1 0 303.705 50.467)"/><path d="m50.467 0v50.467h-50.467z" fill="#e2e4e1" opacity=".304" transform="translate(253.238 50.467)"/><g fill="#f0f2ef"><path d="m50.467 0v50.467h-50.467z" opacity=".304" transform="matrix(0 -1 1 0 101.295 150.362)"/><path d="m50.467 0v50.467h-50.467z" opacity=".304" transform="matrix(0 -1 1 0 0 499.999)"/><path d="m50.467 0v50.467h-50.467z" opacity=".304" transform="matrix(0 -1 1 0 101.295 499.999)"/><path d="m50.467 0v50.467h-50.467z" opacity=".304" transform="matrix(0 -1 1 0 0 400.104)"/><path d="m50.467 0v50.467h-50.467z" opacity=".304" transform="matrix(-1 0 0 -1 50.467 350.155)"/><path d="m50.467 0v50.467h-50.467z" opacity=".304" transform="matrix(-1 0 0 -1 151.762 350.155)"/></g><path d="m50.467 0v50.467h-50.467z" fill="#ee2737" transform="matrix(0 -1 1 0 0 449.533)"/><path d="m50.467 0v50.467h-50.467z" fill="#eff1ee" opacity=".304" transform="matrix(-1 0 0 -1 50.467 449.533)"/><path d="m50.467 0v50.467h-50.467z" fill="#eff1ee" opacity=".304" transform="matrix(-1 0 0 -1 151.762 449.533)"/><path d="m50.467 0v50.467h-50.467z" fill="#aeb0ad" opacity=".304" transform="matrix(-1 0 0 -1 151.762 400.104)"/><path d="m50.467 0v50.467h-50.467z" fill="#eff1ee" opacity=".304" transform="matrix(0 1 -1 0 151.762 349.637)"/><path d="m50.467 0v50.467h-50.467z" fill="#dbddda" opacity=".304" transform="matrix(0 1 -1 0 100.933 299.688)"/><path d="m50.467 0v50.467h-50.467z" fill="#f0f2ef" opacity=".304" transform="matrix(0 1 -1 0 100.933 399.066)"/><path d="m50.467 0v50.467h-50.467z" fill="#dbddda" opacity=".304" transform="matrix(0 1 -1 0 100.933 449.533)"/><path d="m50.467 0v50.467h-50.467z" fill="#eff1ee" opacity=".304" transform="translate(50.467 449.533)"/><path d="m50.467 0v50.467h-50.467z" fill="#eff1ee" opacity=".304" transform="translate(50.467 349.637)"/><path d="m50.467 0v50.467h-50.467z" fill="#eff1ee" opacity=".304" transform="translate(50.467 299.688)"/><path d="m50.467 0v50.467h-50.467z" fill="#e2e4e1" opacity=".304" transform="matrix(0 -1 1 0 50.467 350.155)"/><path d="m50.467 0v50.467h-50.467z" fill="#f0f2ef" opacity=".304" transform="matrix(-1 0 0 -1 151.762 499.999)"/><path d="m50.467 0v50.467h-50.467z" fill="#dbddda" opacity=".304" transform="translate(0 149.845)"/><path d="m50.467 0v50.467h-50.467z" fill="#aeb0ad" opacity=".304" transform="matrix(0 1 -1 0 50.467 249.742)"/><path d="m50.467 0v50.467h-50.467z" fill="#aeb0ad" opacity=".304" transform="translate(50.467 149.845)"/><path d="m50.467 0v50.467h-50.467z" fill="#aeb0ad" opacity=".304" transform="matrix(-1 0 0 -1 100.933 300.208)"/><path d="m50.467 0v50.467h-50.467z" fill="#f0f2ef" opacity=".304" transform="translate(101.295 149.845)"/><path d="m50.467 0v50.467h-50.467z" fill="#f0f2ef" opacity=".304" transform="translate(101.295 249.742)"/><path d="m50.467 0v50.467h-50.467z" fill="#f0f2ef" opacity=".304" transform="translate(202.59 149.845)"/><path d="m50.467 0v50.467h-50.467z" fill="#f0f2ef" opacity=".304" transform="matrix(0 -1 1 0 253.238 200.312)"/><path d="m50.467 0v50.467h-50.467z" fill="#f0f2ef" opacity=".304" transform="matrix(0 -1 1 0 253.238 300.208)"/><path d="m50.467 0v50.467h-50.467z" fill="#ee2737" transform="translate(151.943 149.845)"/><path d="m50.467 0v50.467h-50.467z" fill="#eff1ee" opacity=".304" transform="matrix(0 -1 1 0 151.943 200.312)"/><path d="m50.467 0v50.467h-50.467z" fill="#eff1ee" opacity=".304" transform="matrix(0 -1 1 0 151.943 300.208)"/><path d="m50.467 0v50.467h-50.467z" fill="#eff1ee" opacity=".304" transform="matrix(0 -1 1 0 50.467 200.312)"/><path d="m50.467 0v50.467h-50.467z" fill="#eff1ee" opacity=".304" transform="matrix(0 1 -1 0 100.933 249.742)"/><path d="m50.467 0v50.467h-50.467z" fill="#aeb0ad" opacity=".304" transform="matrix(0 -1 1 0 202.59 300.208)"/><path d="m50.467 0v50.467h-50.467z" fill="#eff1ee" opacity=".304" transform="matrix(-1 0 0 -1 253.057 300.208)"/><path d="m50.467 0v50.467h-50.467z" fill="#eff1ee" opacity=".304" transform="matrix(0 -1 1 0 0 200.312)"/><path d="m50.467 0v50.467h-50.467z" fill="#eff1ee" opacity=".304" transform="translate(0 249.742)"/><path d="m50.467 0v50.467h-50.467z" fill="#e2e4e1" opacity=".304" transform="matrix(-1 0 0 -1 50.467 200.312)"/><path d="m50.467 0v50.467h-50.467z" fill="#e2e4e1" opacity=".304" transform="matrix(0 -1 1 0 0 300.208)"/><path d="m50.467 0v50.467h-50.467z" fill="#dbddda" opacity=".304" transform="matrix(-1 0 0 -1 303.705 250.26)"/><path d="m50.467 0v50.467h-50.467z" fill="#aeb0ad" opacity=".304" transform="matrix(-1 0 0 -1 253.057 250.26)"/><path d="m50.467 0v50.467h-50.467z" fill="#f0f2ef" opacity=".304" transform="matrix(-1 0 0 -1 202.409 250.26)"/><path d="m50.467 0v50.467h-50.467z" fill="#f0f2ef" opacity=".304" transform="matrix(-1 0 0 -1 100.933 250.26)"/><path d="m50.467 0v50.467h-50.467z" fill="#f0f2ef" opacity=".304" transform="matrix(0 1 -1 0 50.467 199.793)"/><path d="m50.467 0v50.467h-50.467z" fill="#dbddda" opacity=".304" transform="matrix(-1 0 0 -1 151.762 250.26)"/><path d="m50.467 0v50.467h-50.467z" fill="#eff1ee" opacity=".304" transform="matrix(0 1 -1 0 151.762 199.793)"/><path d="m50.467 0v50.467h-50.467z" fill="#eff1ee" opacity=".304" transform="matrix(0 1 -1 0 253.057 199.793)"/><path d="m50.467 0v50.467h-50.467z" fill="#eff1ee" opacity=".304" transform="matrix(0 1 -1 0 303.705 199.793)"/><path d="m50.467 0v50.467h-50.467z" fill="#e2e4e1" opacity=".304" transform="translate(253.238 199.793)"/><path d="m50.467 0v50.467h-50.467z" fill="#f0f2ef" opacity=".304" transform="matrix(0 -1 1 0 101.295 300.208)"/><path d="m50.467 0v50.467h-50.467z" fill="#f0f2ef" opacity=".304" transform="matrix(0 -1 1 0 151.943 499.999)"/><path d="m50.467 0v50.467h-50.467z" fill="#f0f2ef" opacity=".304" transform="matrix(0 -1 1 0 253.238 499.999)"/><path d="m50.467 0v50.467h-50.467z" fill="#f0f2ef" opacity=".304" transform="matrix(0 -1 1 0 151.943 400.104)"/><path d="m50.467 0v50.467h-50.467z" fill="#f0f2ef" opacity=".304" transform="matrix(-1 0 0 -1 202.409 350.155)"/><path d="m50.467 0v50.467h-50.467z" fill="#f0f2ef" opacity=".304" transform="matrix(-1 0 0 -1 303.705 350.155)"/><path d="m50.467 0v50.467h-50.467z" fill="#dbddda" opacity=".304" transform="matrix(0 -1 1 0 151.943 449.533)"/><path d="m50.467 0v50.467h-50.467z" fill="#eff1ee" opacity=".304" transform="matrix(-1 0 0 -1 202.409 449.533)"/><path d="m50.467 0v50.467h-50.467z" fill="#eff1ee" opacity=".304" transform="matrix(-1 0 0 -1 303.705 449.533)"/><path d="m50.467 0v50.467h-50.467z" fill="#aeb0ad" opacity=".187" transform="matrix(-1 0 0 -1 303.705 400.104)"/><path d="m50.467 0v50.467h-50.467z" fill="#e6e6e6" opacity=".275" transform="matrix(0 1 -1 0 303.705 349.637)"/><path d="m50.467 0v50.467h-50.467z" fill="#dbddda" opacity=".304" transform="matrix(0 1 -1 0 253.057 299.688)"/><path d="m50.467 0v50.467h-50.467z" fill="#ee2737" transform="matrix(0 1 -1 0 253.057 349.637)"/><path d="m50.467 0v50.467h-50.467z" fill="#f0f2ef" opacity=".304" transform="matrix(0 1 -1 0 253.057 399.066)"/><path d="m50.467 0v50.467h-50.467z" fill="#dbddda" opacity=".304" transform="matrix(0 1 -1 0 253.057 449.533)"/><path d="m50.467 0v50.467h-50.467z" fill="#eff1ee" opacity=".304" transform="translate(202.59 449.533)"/><path d="m50.467 0v50.467h-50.467z" fill="#eff1ee" opacity=".304" transform="translate(202.59 349.637)"/><path d="m50.467 0v50.467h-50.467z" fill="#eff1ee" opacity=".304" transform="translate(202.59 299.688)"/><path d="m50.467 0v50.467h-50.467z" fill="#e2e4e1" opacity=".304" transform="matrix(0 -1 1 0 202.59 350.155)"/><path d="m50.467 0v50.467h-50.467z" fill="#f0f2ef" opacity=".304" transform="matrix(-1 0 0 -1 303.705 499.999)"/><path d="m50.467 0v50.467h-50.467z" fill="#dbddda" opacity=".304" transform="translate(304.067)"/><path d="m50.467 0v50.467h-50.467z" fill="#aeb0ad" opacity=".304" transform="matrix(0 1 -1 0 354.533 99.896)"/><path d="m50.467 0v50.467h-50.467z" fill="#ee2737" transform="translate(354.533)"/><path d="m50.467 0v50.467h-50.467z" fill="#aeb0ad" opacity=".304" transform="matrix(-1 0 0 -1 405 150.363)"/><path d="m50.467 0v50.467h-50.467z" fill="#eff1ee" opacity=".304" transform="matrix(0 -1 1 0 354.533 50.467)"/><path d="m50.467 0v50.467h-50.467z" fill="#eff1ee" opacity=".304" transform="matrix(0 1 -1 0 405 99.896)"/><path d="m50.467 0v50.467h-50.467z" fill="#eff1ee" opacity=".304" transform="matrix(0 -1 1 0 304.067 50.467)"/><path d="m50.467 0v50.467h-50.467z" fill="#eff1ee" opacity=".304" transform="translate(304.067 99.896)"/><path d="m50.467 0v50.467h-50.467z" fill="#e2e4e1" opacity=".304" transform="matrix(-1 0 0 -1 354.533 50.467)"/><path d="m50.467 0v50.467h-50.467z" fill="#e2e4e1" opacity=".304" transform="matrix(0 -1 1 0 304.067 150.363)"/><path d="m50.467 0v50.467h-50.467z" fill="#f0f2ef" opacity=".304" transform="matrix(-1 0 0 -1 405 100.935)"/><path d="m50.467 0v50.467h-50.467z" fill="#f0f2ef" opacity=".304" transform="matrix(0 1 -1 0 354.533 50.467)"/><path d="m50.467 0v50.467h-50.467z" fill="#f0f2ef" opacity=".304" transform="matrix(0 -1 1 0 304.067 499.999)"/><path d="m50.467 0v50.467h-50.467z" fill="#f0f2ef" opacity=".304" transform="matrix(0 -1 1 0 304.067 400.104)"/><path d="m50.467 0v50.467h-50.467z" fill="#f0f2ef" opacity=".304" transform="matrix(-1 0 0 -1 354.533 350.155)"/><path d="m50.467 0v50.467h-50.467z" fill="#dbddda" opacity=".304" transform="matrix(0 -1 1 0 304.067 449.533)"/><path d="m50.467 0v50.467h-50.467z" fill="#eff1ee" opacity=".304" transform="matrix(-1 0 0 -1 354.533 449.533)"/><path d="m50.467 0v50.467h-50.467z" fill="#dbddda" opacity=".304" transform="matrix(0 1 -1 0 405 299.688)"/><path d="m50.467 0v50.467h-50.467z" fill="#aeb0ad" opacity=".304" transform="matrix(0 1 -1 0 405 349.637)"/><path d="m50.467 0v50.467h-50.467z" fill="#f0f2ef" opacity=".304" transform="matrix(0 1 -1 0 405 399.066)"/><path d="m50.467 0v50.467h-50.467z" fill="#dbddda" opacity=".304" transform="matrix(0 1 -1 0 405 449.533)"/><path d="m50.467 0v50.467h-50.467z" fill="#eff1ee" opacity=".304" transform="translate(354.533 449.533)"/><path d="m50.467 0v50.467h-50.467z" fill="#eff1ee" opacity=".304" transform="translate(354.533 349.637)"/><path d="m50.467 0v50.467h-50.467z" fill="#eff1ee" opacity=".304" transform="translate(354.533 299.688)"/><path d="m50.467 0v50.467h-50.467z" fill="#e2e4e1" opacity=".304" transform="matrix(0 -1 1 0 354.533 350.155)"/><path d="m50.467 0v50.467h-50.467z" fill="#dbddda" opacity=".304" transform="translate(304.067 149.845)"/><path d="m50.467 0v50.467h-50.467z" fill="#aeb0ad" opacity=".304" transform="matrix(0 1 -1 0 354.533 249.741)"/><path d="m50.467 0v50.467h-50.467z" fill="#aeb0ad" opacity=".304" transform="translate(354.533 149.845)"/><path d="m50.467 0v50.467h-50.467z" fill="#ee2737" transform="matrix(-1 0 0 -1 405 300.207)"/><path d="m50.467 0v50.467h-50.467z" fill="#eff1ee" opacity=".304" transform="matrix(0 -1 1 0 354.533 200.312)"/><path d="m50.467 0v50.467h-50.467z" fill="#eff1ee" opacity=".304" transform="matrix(0 1 -1 0 405 249.741)"/><path d="m50.467 0v50.467h-50.467z" fill="#eff1ee" opacity=".304" transform="matrix(0 -1 1 0 304.067 200.312)"/><path d="m50.467 0v50.467h-50.467z" fill="#eff1ee" opacity=".304" transform="translate(304.067 249.741)"/><path d="m50.467 0v50.467h-50.467z" fill="#e2e4e1" opacity=".304" transform="matrix(-1 0 0 -1 354.533 200.312)"/><path d="m50.467 0v50.467h-50.467z" fill="#e2e4e1" opacity=".304" transform="matrix(0 -1 1 0 304.067 300.207)"/><path d="m50.467 0v50.467h-50.467z" fill="#f0f2ef" opacity=".304" transform="matrix(-1 0 0 -1 405 250.26)"/><path d="m50.467 0v50.467h-50.467z" fill="#f0f2ef" opacity=".304" transform="matrix(0 1 -1 0 354.533 199.793)"/><path d="m0 199h303v151h-303z" fill="#fff" opacity=".902"/><text fill="#050505" font-family="Helvetica" font-size="26" transform="translate(50 269)"><tspan x="0" y="0">Сервис в разработке</tspan></text></svg>