<svg xmlns="http://www.w3.org/2000/svg" xmlns:xlink="http://www.w3.org/1999/xlink" viewBox="0 0 559 46">
  <defs>
    <style>
      .cls-1 {
        fill: #dedfe0;
        font-size: 38px;
        font-family: Helvetica;
      }

      .cls-2 {
        fill: #1a1a1a;
      }

      .cls-3 {
        fill: url(#linear-gradient);
      }

      .cls-4 {
        fill: url(#linear-gradient-2);
      }

      .cls-5 {
        fill: url(#linear-gradient-3);
      }

      .cls-6 {
        fill: url(#linear-gradient-4);
      }

      .cls-7 {
        fill: none;
        stroke: #7c411e;
        stroke-miterlimit: 10;
        stroke-width: 0.607px;
      }
    </style>
    <linearGradient id="linear-gradient" x1="0.405" y1="0.499" x2="0.844" y2="0.499" gradientUnits="objectBoundingBox">
      <stop offset="0" stop-color="#4d0006"/>
      <stop offset="0.194" stop-color="#490006"/>
      <stop offset="0.47" stop-color="#3c0005"/>
      <stop offset="0.794" stop-color="#280303"/>
      <stop offset="1" stop-color="#1a0201"/>
    </linearGradient>
    <linearGradient id="linear-gradient-2" x1="0.607" y1="0.506" x2="-0.171" y2="-0.344" gradientUnits="objectBoundingBox">
      <stop offset="0" stop-color="#ba0000"/>
      <stop offset="1" stop-color="#680008"/>
    </linearGradient>
    <linearGradient id="linear-gradient-3" x1="0.657" y1="0.151" x2="0.039" y2="0.961" gradientUnits="objectBoundingBox">
      <stop offset="0" stop-color="red"/>
      <stop offset="1" stop-color="#ba0000"/>
    </linearGradient>
    <linearGradient id="linear-gradient-4" x1="0.404" y1="0.499" x2="1.03" y2="0.499" xlink:href="#linear-gradient"/>
  </defs>
  <g id="Group_18459" data-name="Group 18459" transform="translate(-681 -517)">
    <text id="ПЕРЕРАБОТКА" class="cls-1" transform="translate(956 554)"><tspan x="0" y="0">ПЕРЕРАБОТКА</tspan></text>
    <g id="Group_18458" data-name="Group 18458" transform="translate(681 517)">
      <g id="Group_1" data-name="Group 1" transform="translate(52.213 9.627)">
        <path id="Path_1" data-name="Path 1" class="cls-2" d="M99.8,24.95V19.3h21.869v5.65h-7.9v20.77H107.7V24.95Z" transform="translate(-99.8 -18.829)"/>
        <path id="Path_2" data-name="Path 2" class="cls-2" d="M154.917,45.625H148.9V19.2c.471,0,1.727,0,3.819-.052s3.558-.052,4.29-.052q5.572,0,8.162,2.511a8.355,8.355,0,0,1,2.511,6.278,8.622,8.622,0,0,1-2.668,6.33,9.959,9.959,0,0,1-7.115,2.564c-1.308,0-2.3-.052-2.93-.1v8.946Zm0-20.77v6.017a25.684,25.684,0,0,0,2.773.209c1.936,0,3.558-.942,3.558-3.244,0-2.04-1.2-3.034-3.662-3.034-.157,0-.994,0-2.668.052" transform="translate(-123.212 -18.734)"/>
        <path id="Path_3" data-name="Path 3" class="cls-2" d="M183,45.721,193.987,19.3h5.389l10.987,26.421h-6.435l-2.2-5.546H191.266l-2.2,5.546Zm13.5-18.678-2.982,7.481h5.912Z" transform="translate(-139.471 -18.829)"/>
        <path id="Path_4" data-name="Path 4" class="cls-2" d="M257.5,45.721V35.048h-9.627V45.721H241.8V19.3h6.069V29.4H257.5V19.3h6.017V45.721Z" transform="translate(-167.508 -18.829)"/>
        <path id="Path_5" data-name="Path 5" class="cls-2" d="M315.1,42.676a8.562,8.562,0,0,1-3.61,2.25,14.463,14.463,0,0,1-5.023.837,13.8,13.8,0,0,1-9.993-3.715,13.279,13.279,0,0,1-3.872-9.94,13.825,13.825,0,0,1,3.61-9.836c2.407-2.564,5.807-3.872,10.2-3.872,3.348,0,6.435,1.151,8.057,2.773L311.8,25.725a10.214,10.214,0,0,0-5.389-1.622,7.424,7.424,0,0,0-5.336,2.093,7.925,7.925,0,0,0-2.093,5.912,7.645,7.645,0,0,0,2.25,5.755,7.847,7.847,0,0,0,5.755,2.25,9.313,9.313,0,0,0,5.755-1.936Z" transform="translate(-191.731 -18.4)"/>
        <path id="Path_6" data-name="Path 6" class="cls-2" d="M360.174,45.768V25h-5.807l-.575,4.97c-1.622,13.917-4.813,16.846-11.091,15.8l.1-6.017a2.261,2.261,0,0,0,2.564-.942,7.055,7.055,0,0,0,1.151-2.354c.732-2.093,1.36-6.174,1.779-11.772l.366-5.284h17.527V45.821h-6.017Z" transform="translate(-215.62 -18.877)"/>
        <path id="Path_7" data-name="Path 7" class="cls-2" d="M398.57,22.324A13.762,13.762,0,0,1,408.72,18.4a14.137,14.137,0,0,1,10.1,3.715,12.969,12.969,0,0,1,3.976,9.94,12.9,12.9,0,0,1-4.029,9.836,13.94,13.94,0,0,1-10.045,3.872,14.137,14.137,0,0,1-10.1-3.715,13.121,13.121,0,0,1-3.924-9.94,13.01,13.01,0,0,1,3.872-9.783m4.709,15.434a7.09,7.09,0,0,0,5.389,2.3,7.183,7.183,0,0,0,5.65-2.25,8.548,8.548,0,0,0,1.988-5.755,7.81,7.81,0,0,0-2.2-5.755,7.463,7.463,0,0,0-5.441-2.25,7.22,7.22,0,0,0-5.493,2.25,7.988,7.988,0,0,0-2.145,5.755,8.115,8.115,0,0,0,2.25,5.7" transform="translate(-240.413 -18.4)"/>
        <path id="Path_8" data-name="Path 8" class="cls-2" d="M457.7,45.721V19.3h6.069l8.162,11.144L479.621,19.3h5.7V45.721h-6.017V28.874L471.93,39.181h-.837l-7.377-10.2V45.721Z" transform="translate(-270.454 -18.829)"/>
      </g>
      <g id="Group_2" data-name="Group 2">
        <path id="Path_9" data-name="Path 9" class="cls-3" d="M38.715,60.973H6.33L0,50.457,45.883,50.3Z" transform="translate(0 -23.984)"/>
        <path id="Path_10" data-name="Path 10" class="cls-4" d="M53.211,36.989l7.168-10.673L43.636,0H30.4Z" transform="translate(-14.495)"/>
        <path id="Path_11" data-name="Path 11" class="cls-5" d="M6.33,36.989,0,26.473,15.9,0H29.141Z"/>
        <path id="Path_12" data-name="Path 12" class="cls-6" d="M38.715,61.021H6.33L0,50.5l32.176-.1Z" transform="translate(0 -24.032)"/>
        <path id="Path_13" data-name="Path 13" class="cls-7" d="M73.8,70.7" transform="translate(-35.189 -33.711)"/>
      </g>
    </g>
  </g>
</svg>
