<svg xmlns="http://www.w3.org/2000/svg" xmlns:xlink="http://www.w3.org/1999/xlink" viewBox="0 0 300.477 48.3">
  <defs>
    <style>
      .cls-1 {
        fill: url(#linear-gradient);
      }

      .cls-2 {
        fill: url(#linear-gradient-2);
      }

      .cls-3 {
        fill: url(#linear-gradient-3);
      }

      .cls-4 {
        fill: url(#linear-gradient-4);
      }

      .cls-5 {
        fill: url(#linear-gradient-5);
      }

      .cls-6 {
        fill: url(#linear-gradient-6);
      }

      .cls-7 {
        fill: #ee0026;
      }

      .cls-8 {
        fill: url(#linear-gradient-7);
      }

      .cls-9 {
        fill: url(#linear-gradient-8);
      }

      .cls-10 {
        fill: url(#linear-gradient-9);
      }

      .cls-11 {
        fill: url(#linear-gradient-10);
      }

      .cls-12 {
        fill: url(#linear-gradient-11);
      }

      .cls-13 {
        fill: url(#linear-gradient-12);
      }

      .cls-14 {
        fill: url(#linear-gradient-13);
      }

      .cls-15 {
        fill: url(#linear-gradient-14);
      }

      .cls-16 {
        fill: url(#linear-gradient-15);
      }

      .cls-17 {
        fill: url(#linear-gradient-16);
      }

      .cls-18 {
        fill: url(#linear-gradient-17);
      }

      .cls-19 {
        fill: url(#linear-gradient-18);
      }

      .cls-20 {
        fill: #627380;
      }
    </style>
    <linearGradient id="linear-gradient" x1="0.146" y1="1.321" x2="0.831" y2="-0.389" gradientUnits="objectBoundingBox">
      <stop offset="0" stop-color="#c4c8cb"/>
      <stop offset="0.034" stop-color="#d7dadc"/>
      <stop offset="0.089" stop-color="#edeff0"/>
      <stop offset="0.139" stop-color="#f5f6f7"/>
      <stop offset="0.255" stop-color="#e2e4e5"/>
      <stop offset="0.345" stop-color="#c7cbce"/>
      <stop offset="0.525" stop-color="#899096"/>
      <stop offset="0.545" stop-color="#828a90"/>
      <stop offset="1" stop-color="#eef0f1"/>
    </linearGradient>
    <linearGradient id="linear-gradient-2" x1="-0.001" y1="0.5" x2="1" y2="0.5" gradientUnits="objectBoundingBox">
      <stop offset="0" stop-color="#8e969b"/>
      <stop offset="0.009" stop-color="#a5acb0"/>
      <stop offset="0.028" stop-color="#d4d7d9"/>
      <stop offset="0.044" stop-color="#f3f4f5"/>
      <stop offset="0.054" stop-color="#fff"/>
      <stop offset="0.301" stop-color="#a7adb1"/>
      <stop offset="0.315" stop-color="#a1a7ac"/>
      <stop offset="0.464" stop-color="#6d747a"/>
      <stop offset="0.54" stop-color="#5b6269"/>
      <stop offset="0.627" stop-color="#5f676d"/>
      <stop offset="0.718" stop-color="#6c747b"/>
      <stop offset="0.805" stop-color="#828a90"/>
      <stop offset="0.887" stop-color="#9fa6ab"/>
      <stop offset="1" stop-color="#d5d8da"/>
    </linearGradient>
    <linearGradient id="linear-gradient-3" x1="0.151" y1="1.185" x2="0.819" y2="-0.129" gradientUnits="objectBoundingBox">
      <stop offset="0" stop-color="#c5c9cb"/>
      <stop offset="0.032" stop-color="#d7dadc"/>
      <stop offset="0.088" stop-color="#edeef0"/>
      <stop offset="0.139" stop-color="#f5f6f7"/>
      <stop offset="0.255" stop-color="#e2e4e5"/>
      <stop offset="0.353" stop-color="#c7cbce"/>
      <stop offset="0.552" stop-color="#899096"/>
      <stop offset="0.573" stop-color="#828a90"/>
      <stop offset="0.729" stop-color="#a2a8ad"/>
      <stop offset="1" stop-color="#eef0f1"/>
    </linearGradient>
    <linearGradient id="linear-gradient-4" y1="0.5" x2="1" y2="0.5" gradientUnits="objectBoundingBox">
      <stop offset="0" stop-color="#bbc1c4"/>
      <stop offset="0.001" stop-color="#bcc2c5"/>
      <stop offset="0.02" stop-color="#d1d4d6"/>
      <stop offset="0.045" stop-color="#dddfe1"/>
      <stop offset="0.095" stop-color="#e1e2e4"/>
      <stop offset="0.213" stop-color="#c1c5c8"/>
      <stop offset="0.311" stop-color="#a3a9ae"/>
      <stop offset="0.404" stop-color="#80878d"/>
      <stop offset="0.506" stop-color="#646c72"/>
      <stop offset="0.568" stop-color="#5b6269"/>
      <stop offset="0.665" stop-color="#60676e"/>
      <stop offset="0.779" stop-color="#6f777d"/>
      <stop offset="0.901" stop-color="#8b9197"/>
      <stop offset="0.956" stop-color="#9ba1a7"/>
      <stop offset="1" stop-color="#9fa6ab"/>
    </linearGradient>
    <linearGradient id="linear-gradient-5" y1="0.499" x2="0.999" y2="0.499" gradientUnits="objectBoundingBox">
      <stop offset="0" stop-color="#8c9399"/>
      <stop offset="0" stop-color="#8c949a"/>
      <stop offset="0.011" stop-color="#b2b7bc"/>
      <stop offset="0.023" stop-color="#d2d6d8"/>
      <stop offset="0.035" stop-color="#ebecee"/>
      <stop offset="0.049" stop-color="#fafafb"/>
      <stop offset="0.067" stop-color="#fff"/>
      <stop offset="0.242" stop-color="#b4b9bd"/>
      <stop offset="0.273" stop-color="#a7adb1"/>
      <stop offset="0.509" stop-color="#5b6269"/>
      <stop offset="0.597" stop-color="#5f666d"/>
      <stop offset="0.685" stop-color="#6b7379"/>
      <stop offset="0.772" stop-color="#82898f"/>
      <stop offset="0.848" stop-color="#9fa6ab"/>
      <stop offset="1" stop-color="#d5d8da"/>
    </linearGradient>
    <linearGradient id="linear-gradient-6" x1="0.188" y1="1.536" x2="0.786" y2="-0.625" gradientUnits="objectBoundingBox">
      <stop offset="0" stop-color="#c8cccf"/>
      <stop offset="0.028" stop-color="#d7dadc"/>
      <stop offset="0.086" stop-color="#edeff0"/>
      <stop offset="0.139" stop-color="#f5f6f7"/>
      <stop offset="0.273" stop-color="#e2e4e5"/>
      <stop offset="0.357" stop-color="#c7cbce"/>
      <stop offset="0.526" stop-color="#899096"/>
      <stop offset="0.545" stop-color="#828a90"/>
      <stop offset="0.794" stop-color="#b7bcc0"/>
      <stop offset="1" stop-color="#eef0f1"/>
    </linearGradient>
    <linearGradient id="linear-gradient-7" x1="0.499" y1="1" x2="0.499" y2="0.002" gradientUnits="objectBoundingBox">
      <stop offset="0.077" stop-color="#d5d8da"/>
      <stop offset="0.082" stop-color="#d7dadc"/>
      <stop offset="0.127" stop-color="#e4e7e8"/>
      <stop offset="0.252" stop-color="#e7eaeb"/>
      <stop offset="0.347" stop-color="#dee1e2"/>
      <stop offset="0.566" stop-color="#d0d4d6"/>
      <stop offset="1" stop-color="#d9dcde"/>
    </linearGradient>
    <linearGradient id="linear-gradient-8" x1="0.001" y1="0.506" x2="0.999" y2="0.506" gradientUnits="objectBoundingBox">
      <stop offset="0" stop-color="#979ea3"/>
      <stop offset="0.74" stop-color="#b9bfc2"/>
      <stop offset="0.795" stop-color="#b3b8bc"/>
      <stop offset="0.861" stop-color="#9fa6ab"/>
      <stop offset="0.933" stop-color="#828a90"/>
      <stop offset="0.997" stop-color="#646c73"/>
    </linearGradient>
    <linearGradient id="linear-gradient-9" x1="0.063" y1="1.083" x2="0.922" y2="-0.023" gradientUnits="objectBoundingBox">
      <stop offset="0.013" stop-color="#b8bec2"/>
      <stop offset="0.017" stop-color="#bec2c6"/>
      <stop offset="0.047" stop-color="#dadcdf"/>
      <stop offset="0.081" stop-color="#eef0f1"/>
      <stop offset="0.126" stop-color="#fbfcfc"/>
      <stop offset="0.219" stop-color="#fff"/>
      <stop offset="0.429" stop-color="#dadddf"/>
      <stop offset="0.524" stop-color="#c8cccf"/>
      <stop offset="0.711" stop-color="#cfd2d5"/>
      <stop offset="0.789" stop-color="#d5d8da"/>
      <stop offset="0.897" stop-color="#c1c6c8"/>
      <stop offset="0.982" stop-color="#b9bfc2"/>
    </linearGradient>
    <linearGradient id="linear-gradient-10" x1="0.122" y1="1.507" x2="0.856" y2="-0.415" gradientUnits="objectBoundingBox">
      <stop offset="0" stop-color="#8e969b"/>
      <stop offset="0.043" stop-color="#a3aaaf"/>
      <stop offset="0.092" stop-color="#b4b9bd"/>
      <stop offset="0.136" stop-color="#b9bfc2"/>
      <stop offset="0.473" stop-color="#636a70"/>
      <stop offset="0.584" stop-color="#4b5258"/>
      <stop offset="0.699" stop-color="#4b5258"/>
      <stop offset="0.745" stop-color="#565d63"/>
      <stop offset="0.825" stop-color="#757c82"/>
      <stop offset="0.89" stop-color="#979ea3"/>
      <stop offset="0.918" stop-color="#9ca3a8"/>
      <stop offset="0.947" stop-color="#acb2b6"/>
      <stop offset="0.975" stop-color="#c7cbce"/>
      <stop offset="1" stop-color="#ebeded"/>
    </linearGradient>
    <linearGradient id="linear-gradient-11" x1="0.322" y1="1.443" x2="0.641" y2="-0.404" gradientUnits="objectBoundingBox">
      <stop offset="0" stop-color="#d9dcde"/>
      <stop offset="0.054" stop-color="#a3a9ae"/>
      <stop offset="0.118" stop-color="#afb5b9"/>
      <stop offset="0.132" stop-color="#c0c5c8"/>
      <stop offset="0.16" stop-color="#dbdee0"/>
      <stop offset="0.193" stop-color="#eff0f1"/>
      <stop offset="0.237" stop-color="#fbfcfc"/>
      <stop offset="0.329" stop-color="#fff"/>
      <stop offset="0.401" stop-color="#f9f9fa"/>
      <stop offset="0.463" stop-color="#e7e9ea"/>
      <stop offset="0.519" stop-color="#ccd0d2"/>
      <stop offset="0.694" stop-color="#dee1e2"/>
      <stop offset="0.83" stop-color="#e1e2e4"/>
      <stop offset="0.951" stop-color="#ced2d4"/>
      <stop offset="0.985" stop-color="#d8dbdd"/>
    </linearGradient>
    <linearGradient id="linear-gradient-12" x1="0.01" y1="1.033" x2="0.981" y2="-0.05" gradientUnits="objectBoundingBox">
      <stop offset="0" stop-color="#b8bec2"/>
      <stop offset="0.008" stop-color="#caced1"/>
      <stop offset="0.023" stop-color="#e6e7e9"/>
      <stop offset="0.04" stop-color="#f7f8f8"/>
      <stop offset="0.059" stop-color="#fdfdfd"/>
      <stop offset="0.216" stop-color="#f8f8f9"/>
      <stop offset="0.329" stop-color="#e8eaeb"/>
      <stop offset="0.428" stop-color="#ced2d4"/>
      <stop offset="0.447" stop-color="#c8cccf"/>
      <stop offset="0.573" stop-color="#d8dbdd"/>
      <stop offset="0.856" stop-color="#e7eaeb"/>
      <stop offset="0.967" stop-color="#bbc1c4"/>
      <stop offset="1" stop-color="#d5d8da"/>
    </linearGradient>
    <linearGradient id="linear-gradient-13" x1="-0.003" y1="0.494" x2="0.994" y2="0.494" gradientUnits="objectBoundingBox">
      <stop offset="0" stop-color="#b8bec2"/>
      <stop offset="0.567" stop-color="#d4d7d9"/>
      <stop offset="1" stop-color="#e1e2e4"/>
    </linearGradient>
    <linearGradient id="linear-gradient-14" x1="0.169" y1="1.991" x2="0.805" y2="-0.812" gradientUnits="objectBoundingBox">
      <stop offset="0.003" stop-color="#949ba0"/>
      <stop offset="0.049" stop-color="#a8aeb3"/>
      <stop offset="0.098" stop-color="#b5bbbf"/>
      <stop offset="0.154" stop-color="#b9bfc2"/>
      <stop offset="0.207" stop-color="#b0b6ba"/>
      <stop offset="0.282" stop-color="#989ea3"/>
      <stop offset="0.372" stop-color="#737a80"/>
      <stop offset="0.465" stop-color="#4b5258"/>
      <stop offset="0.671" stop-color="#4b5258"/>
      <stop offset="0.884" stop-color="#979ea3"/>
      <stop offset="1" stop-color="#d5d8da"/>
    </linearGradient>
    <linearGradient id="linear-gradient-15" x1="0.001" y1="0.523" x2="0.998" y2="0.523" gradientUnits="objectBoundingBox">
      <stop offset="0.018" stop-color="#bbc1c4"/>
      <stop offset="0.085" stop-color="#acb2b7"/>
      <stop offset="0.179" stop-color="#a0a6ac"/>
      <stop offset="0.293" stop-color="#9ca3a8"/>
      <stop offset="0.841" stop-color="#9ba1a7"/>
      <stop offset="1" stop-color="#656d74"/>
    </linearGradient>
    <linearGradient id="linear-gradient-16" x1="-0.001" y1="0.485" x2="1" y2="0.485" gradientUnits="objectBoundingBox">
      <stop offset="0.039" stop-color="#bbc1c4"/>
      <stop offset="0.08" stop-color="#b5bbbf"/>
      <stop offset="0.278" stop-color="#a1a7ac"/>
      <stop offset="0.424" stop-color="#9aa0a6"/>
      <stop offset="0.58" stop-color="#9fa5ab"/>
      <stop offset="0.745" stop-color="#b0b5b9"/>
      <stop offset="0.913" stop-color="#ccd0d3"/>
      <stop offset="1" stop-color="#e1e2e4"/>
    </linearGradient>
    <linearGradient id="linear-gradient-17" x1="0.001" y1="0.513" x2="1.001" y2="0.513" gradientUnits="objectBoundingBox">
      <stop offset="0" stop-color="#d0d4d6"/>
      <stop offset="0.314" stop-color="#c7ccce"/>
      <stop offset="0.836" stop-color="#c1c6c8"/>
      <stop offset="0.891" stop-color="#bdc2c5"/>
      <stop offset="0.935" stop-color="#b0b6ba"/>
      <stop offset="0.976" stop-color="#9ca2a8"/>
      <stop offset="0.979" stop-color="#9aa0a6"/>
    </linearGradient>
    <linearGradient id="linear-gradient-18" y1="0.501" x2="1" y2="0.501" gradientUnits="objectBoundingBox">
      <stop offset="0" stop-color="#b9bfc2"/>
      <stop offset="0.05" stop-color="#a7adb1"/>
      <stop offset="0.147" stop-color="#8c9398"/>
      <stop offset="0.238" stop-color="#7c848a"/>
      <stop offset="0.319" stop-color="#777f85"/>
      <stop offset="0.422" stop-color="#5d646a"/>
      <stop offset="0.517" stop-color="#4b5258"/>
      <stop offset="0.681" stop-color="#777f85"/>
      <stop offset="0.84" stop-color="#a5abb0"/>
      <stop offset="0.923" stop-color="#b8bec2"/>
      <stop offset="0.964" stop-color="#a2a8ad"/>
      <stop offset="0.987" stop-color="#949ba0"/>
    </linearGradient>
  </defs>
  <g id="Group_17067" data-name="Group 17067" transform="translate(-0.023)">
    <g id="Group_17064" data-name="Group 17064">
      <path id="Path_7725" data-name="Path 7725" class="cls-1" d="M73.9,34.8c-6.2-2.1-18.7-7.7-25.4-10.2C40,21.3,29.4,18,20.9,18.2c-13.8.4-15,9.3-11.8,13.3A64.572,64.572,0,0,0,21.5,42a4.988,4.988,0,0,1-2.1-3.4c-.7-4.8,3.5-9.1,13.1-8.7,12.1.6,25,6.9,35.5,10,5.5,1.6,15.2,5.2,25.9-.6a35.259,35.259,0,0,0,7.2-6.1C95.6,39.1,86.2,39,73.9,34.8Z"/>
      <path id="Path_7726" data-name="Path 7726" class="cls-2" d="M75.5,33.8c-6.3-2.2-16.2-7.1-26.1-11-8.9-3.4-18.7-6.7-27-6.7-11.3,0-15.4,6-14.7,11.7-.4-4.2,2.8-9.4,13.2-9.6,8.5-.2,19.1,3.2,27.7,6.4,6.6,2.5,19.1,8.1,25.4,10.2,12.1,4.1,21.4,4.3,27-1.5a10.591,10.591,0,0,0,1-1.2C96.6,37.7,88.6,38.3,75.5,33.8Z"/>
      <path id="Path_7727" data-name="Path 7727" class="cls-3" d="M95.7,31.1c-8.3,0-16.8-4.5-19.3-5.7-4.5-2.1-15.9-8.1-21.3-10.8C47.6,10.8,30.5,1.4,15.3,2.1,6.8,2.6-.3,6.9.2,14.4h0c.7,5.9,4.2,11.8,8.9,17h0a7.7,7.7,0,0,1-1.5-3.6C6.9,22.1,11,16.1,22.3,16.1c8.4,0,18.2,3.3,27,6.7,9.9,3.8,19.8,8.8,26.1,11,13.1,4.5,21.2,3.9,26.5-1.6a30.207,30.207,0,0,0,2.9-4.1,10.908,10.908,0,0,1,.6-1.1C104.3,29.3,101.1,31.1,95.7,31.1Z"/>
      <path id="Path_7728" data-name="Path 7728" class="cls-4" d="M100,19.2h0c3.1.9,5.1,2.8,5.1,5.1,0,3.1-3.6,5.7-9,5.7-7.3,0-16.7-4.9-18.6-5.8C73,22,60.5,15.3,56.3,13,44.1,6.6,27.3-1.7,12.9.5,5,1.7-.7,7.1.2,14.4-.3,6.9,6.8,2.6,15.3,2.1c15.2-.8,32.3,8.7,39.9,12.5,5.4,2.7,16.8,8.7,21.3,10.8,2.5,1.2,11,5.7,19.3,5.7,5.4,0,8.6-1.8,9.7-4.2C106.9,23.2,104.3,20.4,100,19.2Z"/>
      <path id="Path_7729" data-name="Path 7729" class="cls-5" d="M32,31.7c12.4.6,26,7,35.7,9.6,8.1,2.2,15.7,3.4,23.9-.6.8-.5,1.6-.9,2.4-1.4-10.7,5.9-20.5,2.2-25.9.6-10.5-3.1-23.4-9.4-35.5-10-9.5-.4-13.8,3.8-13.1,8.7C19.2,35.2,22.6,31.2,32,31.7Z"/>
      <path id="Path_7730" data-name="Path 7730" class="cls-6" d="M67.7,41.3c-9.7-2.6-23.3-9-35.7-9.6C18.8,31,17.4,39.2,21.5,42a42.383,42.383,0,0,0,12.4,5.8c-2.5-.7-3.8-2-3.7-3.8,0-1.5,1.8-3,5-3.5,4.9-.7,12.5,1.3,14.6,1.8l8.4,2.3a44.643,44.643,0,0,0,33.3-4C83.4,44.7,75.8,43.5,67.7,41.3Z"/>
      <path id="Path_7731" data-name="Path 7731" class="cls-7" d="M30.2,44c0,1.5,1.7,3.1,4.9,3.7,4.9.9,12.5-.8,14.6-1.3l7.9-1.9-7.8-2.2c-2.1-.6-9.6-2.6-14.6-1.8C32.1,40.9,30.3,42.5,30.2,44Z"/>
      <path id="Path_7732" data-name="Path 7732" class="cls-7" d="M96,18.7c-7.5,0-16.5,4.6-18.5,5.5,1.9.9,11.3,5.8,18.6,5.8,5.4,0,9-2.5,9-5.7C105.1,21.2,101.4,18.7,96,18.7Z"/>
      <path id="Path_7733" data-name="Path 7733" class="cls-8" d="M104.7,28A34.462,34.462,0,0,1,93,39.7l1.4-.7a35.087,35.087,0,0,0,10.5-10.9,13.018,13.018,0,0,0,.8-1.7Z"/>
      <path id="Path_7734" data-name="Path 7734" class="cls-9" d="M57.5,44.4l-.3.1-7.5,1.7a53.736,53.736,0,0,1-11.4,1.6h0a28.8,28.8,0,0,1-3.2-.2,8.514,8.514,0,0,1-3.6-1.5A2.738,2.738,0,0,1,30.3,44h-.1c0,1.8,1.2,3.1,3.7,3.8A4.253,4.253,0,0,0,35,48c3.8.7,9.8-.2,14.9-1.4,4.3-1,8.4-2,8.4-2Z"/>
      <path id="Path_7735" data-name="Path 7735" class="cls-10" d="M105.5,22.9c-.8-1.6-2.6-2.9-5.1-3.7a11.212,11.212,0,0,1,2.2,1,4.735,4.735,0,0,1,1.3,1.1,5.155,5.155,0,0,1,1.3,1.7,4.444,4.444,0,0,1,0,3.9c-1.2,2.6-4.7,4.1-9.6,4.1-7.6,0-15.2-3.7-18.4-5.3a5.9,5.9,0,0,0-.8-.4c-3.1-1.5-9.4-4.7-15-7.6-2.4-1.2-4.6-2.4-6.3-3.2-.5-.3-1.1-.6-1.7-.9a160.642,160.642,0,0,0-16-7.4C34,5,30.6,4,27.5,3.2A49.593,49.593,0,0,0,17.1,2H15.3A26.987,26.987,0,0,0,8,3.5,13.476,13.476,0,0,0,2.6,7.1a11.218,11.218,0,0,0-2,3.3,9.975,9.975,0,0,0-.5,3.9v.1A26.255,26.255,0,0,0,4.7,25.9a49.222,49.222,0,0,0,4.7,6l-.3-.5a5.547,5.547,0,0,1-.6-.8,51.547,51.547,0,0,1-3.7-4.8A27.68,27.68,0,0,1,.2,14.4h0a9.975,9.975,0,0,1,.5-3.9A8.775,8.775,0,0,1,2.6,7.3,12.63,12.63,0,0,1,7.9,3.8a27.057,27.057,0,0,1,7.2-1.5h1.8A42.727,42.727,0,0,1,27.2,3.6a66.4,66.4,0,0,1,10,3.1,140.712,140.712,0,0,1,16,7.4c.6.3,1.2.6,1.7.9,1.7.8,3.9,2,6.3,3.2,5.6,2.9,11.8,6.1,15,7.6a5.9,5.9,0,0,1,.8.4c3.3,1.6,10.9,5.3,18.5,5.3,4.9,0,8.5-1.6,9.8-4.3h0A4.709,4.709,0,0,0,105.5,22.9Z"/>
      <path id="Path_7736" data-name="Path 7736" class="cls-11" d="M100.2,33.6a15.7,15.7,0,0,1-10,3.1c-4,0-8.8-1-14.7-3-3.2-1.1-7.3-2.9-12-5-4.3-1.9-9.3-4.1-14.1-6C40.8,19.4,30.8,16,22.3,16c-7.2,0-10.8,2.4-12.6,4.4a9.039,9.039,0,0,0-2.2,7.4h0a8.024,8.024,0,0,1,.2-2.7,9.361,9.361,0,0,1,2.1-4.5c1.7-2,5.3-4.3,12.4-4.3,8.5,0,18.4,3.4,27,6.7,4.9,1.9,9.8,4,14.1,6,4.7,2.1,8.8,3.9,12,5C81.2,36,86,37,90,37c4.5,0,8.1-1.2,11-3.8l1.6-1.7C102.7,31.3,100.8,33.1,100.2,33.6Z"/>
      <path id="Path_7737" data-name="Path 7737" class="cls-12" d="M100.3,33.8c-2.8,2.6-6.5,3.9-11.3,3.9-4.2,0-9.1-1-15-3-3.6-1.2-9.2-3.6-14.6-5.8-4.1-1.7-7.9-3.3-10.8-4.4a137.236,137.236,0,0,0-13.4-4.4,52.448,52.448,0,0,0-13.5-2h-.8c-6.6.2-9.9,2.3-11.5,4.1a7.494,7.494,0,0,0-1.9,5.7A6.8,6.8,0,0,0,9,31.6H9a60.042,60.042,0,0,0,6.3,6A63.826,63.826,0,0,0,22,42.5l-.5-.5a2.7,2.7,0,0,1-.8-.7,65.54,65.54,0,0,1-5.3-3.9,60.042,60.042,0,0,1-6.3-6,6.677,6.677,0,0,1-1.4-3.6,6.974,6.974,0,0,1,1.8-5.5c1.5-1.7,4.7-3.8,11.3-4h.8a57.217,57.217,0,0,1,13.5,2,128.98,128.98,0,0,1,13.4,4.4c2.8,1.1,6.7,2.7,10.8,4.4,5.4,2.3,11,4.6,14.6,5.8,5.9,2,10.9,3,15.1,3,5.2,0,9.1-1.5,12-4.5.8-.9,1.4-1.7,1.7-2.1A28.34,28.34,0,0,1,100.3,33.8Z"/>
      <path id="Path_7738" data-name="Path 7738" class="cls-13" d="M91.7,40.4a.349.349,0,0,0-.2.1,24.652,24.652,0,0,1-11.3,2.6,50.225,50.225,0,0,1-12.4-2c-3-.8-6.5-2-10.1-3.3-8-2.8-17.1-5.9-25.6-6.4H30.6a18.249,18.249,0,0,0-6.1.9,9.167,9.167,0,0,0-3.6,2.2,5.247,5.247,0,0,0-1.4,3.9v.1h.2v-.1A5.263,5.263,0,0,1,21,34.7a8.107,8.107,0,0,1,3.5-2.2,18.041,18.041,0,0,1,6-.9H32c8.5.4,17.6,3.6,25.6,6.4,3.6,1.3,7.1,2.5,10.1,3.3a46.682,46.682,0,0,0,12.5,2,24.857,24.857,0,0,0,11.4-2.7h0c1.1-.6,2.1-1.3,3.2-2Z"/>
      <path id="Path_7739" data-name="Path 7739" class="cls-14" d="M28.7,45.8a56.093,56.093,0,0,1-7.1-3.9h0a4.359,4.359,0,0,1-2-3.3h-.2a4.67,4.67,0,0,0,2.1,3.5h0a41.253,41.253,0,0,0,13.1,6L33,47.4A28.505,28.505,0,0,1,28.7,45.8Z"/>
      <path id="Path_7740" data-name="Path 7740" class="cls-15" d="M91.7,40.2a25.169,25.169,0,0,1-10.2,2.1,43.006,43.006,0,0,1-12.2-2.2c-.4-.1-.8-.3-1.2-.4-3.2-.9-6.7-2.2-10.3-3.5-4.1-1.5-8.3-3-12.5-4.2a56.252,56.252,0,0,0-12.7-2.3H31.3a17.927,17.927,0,0,0-6.4,1,9.6,9.6,0,0,0-4,2.6,6.349,6.349,0,0,0-1.5,5.3h0a3.722,3.722,0,0,1,.2-1.8,6.215,6.215,0,0,1,1.5-3.3A8.515,8.515,0,0,1,25,31a19.815,19.815,0,0,1,6.3-1h1.3a56.252,56.252,0,0,1,12.7,2.3c4.2,1.2,8.4,2.7,12.5,4.2,3.5,1.3,7,2.5,10.2,3.5a5.637,5.637,0,0,1,1.2.4,43.006,43.006,0,0,0,12.2,2.2,26,26,0,0,0,10.3-2.1,19.567,19.567,0,0,0,3-1.6C94.8,38.8,92.4,39.9,91.7,40.2Z"/>
      <path id="Path_7741" data-name="Path 7741" class="cls-16" d="M57.8,44.6c-1.1.3-4.5,1.2-8,1.9a55.073,55.073,0,0,1-11.7,1.6h0a14.162,14.162,0,0,1-3.1-.3c-.3-.1-.7-.1-1.1-.2a5.733,5.733,0,0,1-2.7-1.4,3.168,3.168,0,0,1-.9-2.3h-.2c0,1.9,1.3,3.2,3.8,3.9A4.253,4.253,0,0,0,35,48a15.138,15.138,0,0,0,3.2.3h0A55.86,55.86,0,0,0,50,46.7c4.3-1,8.4-2,8.4-2l.2-.1h-.8Z"/>
      <path id="Path_7742" data-name="Path 7742" class="cls-17" d="M88.6,42.1a45.025,45.025,0,0,1-18.6,4h0a44.454,44.454,0,0,1-11.6-1.5L50,42.3a53.406,53.406,0,0,0-12.2-2,16.592,16.592,0,0,0-2.4.2,8.61,8.61,0,0,0-3.8,1.4,2.759,2.759,0,0,0-1.4,2.2v.1h.2v-.1c0-1.3,1.6-2.9,4.9-3.4a16.592,16.592,0,0,1,2.4-.2,48.423,48.423,0,0,1,12.2,2l8.4,2.3A45.857,45.857,0,0,0,70,46.4h0a43.588,43.588,0,0,0,20.2-4.8,6.376,6.376,0,0,0,1.4-.8C90.6,41.3,89.6,41.7,88.6,42.1Z"/>
      <path id="Path_7743" data-name="Path 7743" class="cls-18" d="M102.6,20.2A12.443,12.443,0,0,0,96,18.5c-6.8,0-14.7,3.8-17.7,5.2a4.932,4.932,0,0,1-.9.4l.3.1.7-.3c3-1.4,10.9-5.1,17.6-5.1a13.025,13.025,0,0,1,6.5,1.6Z"/>
      <path id="Path_7744" data-name="Path 7744" class="cls-19" d="M102.6,20.2a.1.1,0,0,1-.1-.1l-.1.2a.1.1,0,0,1,.1.1,4.708,4.708,0,0,1,2.5,3.9c0,3.2-3.7,5.6-8.9,5.6-6.6,0-15.1-4.1-17.9-5.5a4.875,4.875,0,0,1-.7-.3C74,22.3,65.6,17.9,60,14.9c-1.5-.8-2.9-1.5-3.8-2A155.969,155.969,0,0,0,37.8,4.3a74.288,74.288,0,0,0-9.9-3.1A46.939,46.939,0,0,0,17.8,0a26.285,26.285,0,0,0-4.9.4A19.607,19.607,0,0,0,7.4,2.1a13.279,13.279,0,0,0-4.2,3A10.245,10.245,0,0,0,.6,9.3a12.352,12.352,0,0,0-.5,5.1h0s.1-1,.1-1.5A11.066,11.066,0,0,1,3.3,5.2a16.016,16.016,0,0,1,4.2-3A18.825,18.825,0,0,1,12.9.6,37.378,37.378,0,0,1,17.8.2a45.367,45.367,0,0,1,10,1.2A71.143,71.143,0,0,1,37.9,4.5a162.223,162.223,0,0,1,18.3,8.6c.9.5,2.3,1.2,3.8,2,5.6,3,14,7.4,17.5,9.2a4.875,4.875,0,0,0,.7.3c2.8,1.4,11.3,5.5,18,5.5,5.3,0,9.1-2.4,9.1-5.8A5.422,5.422,0,0,0,102.6,20.2Z"/>
    </g>
    <g id="Group_17066" data-name="Group 17066">
      <path id="Path_7745" data-name="Path 7745" class="cls-20" d="M139.8,10.9c-1.8.1-2,.6-1.9,1.9l1,11.2c.1,1.4.3,1.9,1.7,1.9v1h-6.5v-1c1.7,0,1.8-.5,1.7-1.8l-.7-8.4a20.083,20.083,0,0,1-.1-2.4v-.5h0a23.206,23.206,0,0,1-.6,2.7l-3.3,11.4h-1.9L125.8,16a20.553,20.553,0,0,1-.7-3.4H125c0,.5-.1,1.9-.1,3.3l-.5,8.1c-.1,1.3,0,1.8,1.7,1.8v1h-5.2v-1c1.4,0,1.6-.5,1.7-1.9l.8-11.2c.1-1.2,0-1.8-1.9-1.9v-1h5.6l3.1,9.7a11.682,11.682,0,0,1,.6,3.1h.1c.1-.5.3-1.9.6-3.1l2.8-9.7h5.6v1.1Z"/>
      <g id="Group_17065" data-name="Group 17065">
        <path id="Path_7746" data-name="Path 7746" class="cls-20" d="M151.5,24.3l.5.9a6.911,6.911,0,0,1-4.8,1.8c-3.7,0-5.8-2.4-5.8-6.5s2.3-6.4,5.6-6.4c3.5,0,5.2,2.2,5.2,6V21h-7.6c.1,3.1,1.2,4.3,3.6,4.3A6.682,6.682,0,0,0,151.5,24.3Zm-6.8-4.8h4.6c0-3-.6-4-2.2-4C145.6,15.6,144.8,16.5,144.7,19.5Z"/>
        <path id="Path_7747" data-name="Path 7747" class="cls-20" d="M161.1,15.9V24c0,1.4.3,1.7,1.6,1.7v1h-6.3v-1c1.3-.1,1.6-.3,1.6-1.7V15.9h-1.2c-1.4,0-1.6.6-2.1,2.6h-1.4l.2-4h12l.2,4h-1.4c-.4-2-.7-2.6-2.1-2.6Z"/>
        <path id="Path_7748" data-name="Path 7748" class="cls-20" d="M180.4,15.5v-1h11.1v1c-1.3.1-1.6.3-1.6,1.8v6.8c0,1.4.3,1.7,1.6,1.7v1h-6.1v-1c1.2-.1,1.5-.3,1.5-1.7V16h-3.2a36.79,36.79,0,0,1-.5,7.2c-.7,2.8-1.5,3.9-4.2,3.9l-.2-1.9a3.6,3.6,0,0,0,2-1.2c1.2-1.4,1.3-3.7,1.3-6.6C182,15.8,181.7,15.6,180.4,15.5Z"/>
        <path id="Path_7749" data-name="Path 7749" class="cls-20" d="M194,15.5v-1h11.1v1c-1.3.1-1.6.3-1.6,1.8v6.8c0,1.4.3,1.7,1.6,1.7v1H199v-1c1.2-.1,1.5-.3,1.5-1.7V16h-3.2a36.79,36.79,0,0,1-.5,7.2c-.7,2.8-1.5,3.9-4.4,3.9l-.2-1.9a4.67,4.67,0,0,0,2.2-1.2c1.2-1.4,1.3-3.7,1.3-6.6C195.6,15.8,195.3,15.6,194,15.5Z"/>
        <path id="Path_7750" data-name="Path 7750" class="cls-20" d="M212.3,27.1c-3.6,0-5.9-2.4-5.9-6.4s2.4-6.5,6-6.5,5.9,2.4,5.9,6.4C218.3,24.9,215.6,27.1,212.3,27.1Zm0-11.5c-2,0-2.6,1.5-2.6,5,0,3.6.7,5.2,2.7,5.2,1.7,0,2.6-1.7,2.6-5.1C215,17,214.1,15.6,212.3,15.6Z"/>
        <path id="Path_7751" data-name="Path 7751" class="cls-20" d="M229.1,20.9a27.688,27.688,0,0,1,.2-3.3h-.1a11.69,11.69,0,0,1-1.1,2.3l-3.5,5.3a2.714,2.714,0,0,0-.3,1.6h-4.6v-1c1.3-.1,1.6-.3,1.6-1.7V17.3c0-1.4-.3-1.7-1.6-1.8v-1h6v1c-1.2.1-1.5.3-1.5,1.8v3.1a27.688,27.688,0,0,1-.2,3.3h.1a11.69,11.69,0,0,1,1.1-2.3l3.5-5.3a2.559,2.559,0,0,0,.3-1.6h4.6v1c-1.3.1-1.6.3-1.6,1.8v6.8c0,1.4.3,1.7,1.6,1.7v1h-6v-1c1.2-.1,1.5-.3,1.5-1.7Z"/>
        <path id="Path_7752" data-name="Path 7752" class="cls-20" d="M243.4,15.5v-1h6v1c-1.3.1-1.6.3-1.6,1.8v6.8c0,1.4.3,1.7,1.6,1.7v1h-6v-1c1.2-.1,1.5-.3,1.5-1.7V21.2h-5v2.9c0,1.4.3,1.7,1.5,1.7v1h-6.1v-1c1.3-.1,1.6-.3,1.6-1.7V17.3c0-1.4-.3-1.7-1.6-1.8v-1h6.1v1c-1.2.1-1.5.3-1.5,1.8v2.4h5V17.3C244.9,15.8,244.6,15.6,243.4,15.5Z"/>
        <path id="Path_7753" data-name="Path 7753" class="cls-20" d="M251.2,15.5v-1h5.4c4.4,0,5.7.8,5.7,3.1,0,1.1-.7,2.3-2.8,2.6v.1c2.2.2,3.4,1.2,3.4,3,0,3-2.4,3.4-5.8,3.4h-5.9v-1c1.3-.1,1.6-.3,1.6-1.7V17.2C252.7,15.8,252.5,15.6,251.2,15.5Zm4.5.4v3.9h1.1c1.8,0,2.3-.6,2.3-2.1,0-1.4-.7-1.9-2.4-1.9h-1Zm0,5.3v4.2H257c1.9,0,2.5-.4,2.5-2.1s-.6-2.1-2.8-2.1Z"/>
        <path id="Path_7754" data-name="Path 7754" class="cls-20" d="M274.6,24.3l.5.9a7.1,7.1,0,0,1-4.8,1.8c-3.7,0-5.8-2.4-5.8-6.5s2.3-6.4,5.6-6.4c3.5,0,5.2,2.2,5.2,6V21h-7.6c.1,3.1,1.2,4.3,3.6,4.3A6.387,6.387,0,0,0,274.6,24.3Zm-6.8-4.8h4.6c0-3-.6-4-2.2-4C268.8,15.6,268,16.5,267.8,19.5Z"/>
        <path id="Path_7755" data-name="Path 7755" class="cls-20" d="M287,17.7h-2.2c-.2-1.5-.5-2.1-1.6-2.1-1.5,0-2.8,1.1-2.8,4.8,0,3.8,1.3,5,3.4,5a4.547,4.547,0,0,0,3.1-1.1l.6.8a5.622,5.622,0,0,1-4.5,2c-3.2,0-5.7-2-5.7-6.2,0-4.3,2.7-6.6,6-6.6a7.064,7.064,0,0,1,3.9,1v2.4Z"/>
        <path id="Path_7756" data-name="Path 7756" class="cls-20" d="M295.9,15.9V24c0,1.4.3,1.7,1.6,1.7v1h-6.3v-1c1.3-.1,1.6-.3,1.6-1.7V15.9h-1.2c-1.4,0-1.6.6-2.1,2.6h-1.4l.2-4h12l.2,4h-1.4c-.4-2-.7-2.6-2.1-2.6Z"/>
        <path id="Path_7757" data-name="Path 7757" class="cls-20" d="M178.2,25.5v1a4.49,4.49,0,0,1-1.9.4c-1.6,0-2.2-.7-2.4-1.7a3.709,3.709,0,0,1-3.4,1.9c-2.3,0-4-1.2-4-3.6,0-2.9,2.4-4,6.2-4h1.1V18.4c0-2-.5-2.9-2-2.9-1.7,0-2.1,1-2.3,2.2h-2.2V15.3a10.115,10.115,0,0,1,4.9-1.3c2.8,0,4.6,1.2,4.6,4.1,0,.7-.1,2.8-.1,5C176.7,25,176.9,25.5,178.2,25.5Zm-5.4-4.7c-2.2,0-3.3.7-3.3,2.4,0,1.6.7,2,1.8,2a3.037,3.037,0,0,0,2.3-1.3l.1-3.1A2.719,2.719,0,0,1,172.8,20.8Z"/>
      </g>
    </g>
  </g>
</svg>
