<svg xmlns="http://www.w3.org/2000/svg" xmlns:xlink="http://www.w3.org/1999/xlink" viewBox="0 0 418 50.148">
  <defs>
    <style>
      .cls-1 {
        fill: #ba0000;
      }

      .cls-2 {
        fill: #fb0000;
      }

      .cls-3 {
        fill: #620000;
      }

      .cls-4 {
        fill: #1a1a1a;
      }

      .cls-5 {
        clip-path: url(#clip-path);
      }

      .cls-6 {
        fill: url(#linear-gradient);
      }

      .cls-7 {
        clip-path: url(#clip-path-2);
      }

      .cls-8 {
        clip-path: url(#clip-path-3);
      }

      .cls-9 {
        clip-path: url(#clip-path-4);
      }
    </style>
    <clipPath id="clip-path">
      <path id="Path_37" data-name="Path 37" d="M21.7,54.3l8.4,13.9h43l9.4-13.9Z" transform="translate(-21.7 -54.3)"/>
    </clipPath>
    <linearGradient id="linear-gradient" x1="-3.574" y1="25.77" x2="-3.557" y2="25.77" gradientUnits="objectBoundingBox">
      <stop offset="0" stop-color="#4d0006"/>
      <stop offset="0.194" stop-color="#490006"/>
      <stop offset="0.47" stop-color="#3c0005"/>
      <stop offset="0.794" stop-color="#280303"/>
      <stop offset="1" stop-color="#1a0201"/>
    </linearGradient>
    <clipPath id="clip-path-2">
      <path id="Path_39" data-name="Path 39" class="cls-1" d="M42.8,19.1,73.1,68.2l9.6-14.1-22.3-35Z"/>
    </clipPath>
    <clipPath id="clip-path-3">
      <path id="Path_41" data-name="Path 41" class="cls-2" d="M42.8,19.1,21.7,54.3l8.4,13.9L60.4,19.1Z"/>
    </clipPath>
    <clipPath id="clip-path-4">
      <path id="Path_42" data-name="Path 42" class="cls-3" d="M21.7,54.3l8.4,13.9h43L64.5,54.3Z" transform="translate(-21.7 -54.3)"/>
    </clipPath>
  </defs>
  <g id="Group_45" data-name="Group 45" transform="translate(-407 -638)">
    <g id="Group_29" data-name="Group 29" transform="translate(385.3 451.9)">
      <path id="Path_1_1_" class="cls-4" d="M91.1,208v-7.3h29.2V208H109.7v27.7h-8V208Z"/>
      <path id="Path_2_1_" class="cls-4" d="M133.1,235.7h-8v-35H136c4.9,0,8.6,1.1,10.8,3.3a11.456,11.456,0,0,1,3.3,8.4,11.1,11.1,0,0,1-3.5,8.4,13.187,13.187,0,0,1-9.5,3.3,17.9,17.9,0,0,1-4-.2Zm0-27.7v8a15.886,15.886,0,0,0,3.8.2,4.063,4.063,0,0,0,4.6-3.5V212c0-2.7-1.5-4-4.9-4h-3.5"/>
      <path id="Path_3_1_" class="cls-4" d="M148.8,235.7l14.6-35h7.1l14.6,35h-8.6l-2.9-7.3H159.7l-2.7,7.3Zm18-24.8-4,10h8Z"/>
      <path id="Path_4_1_" class="cls-4" d="M210.6,235.7V221.5H197.8v14.2h-8v-35h8V214h12.8V200.7h8v35Z"/>
      <path id="Path_5_1_" class="cls-4" d="M254.9,232.2a11.635,11.635,0,0,1-4.9,2.9,21.243,21.243,0,0,1-6.6,1.1,17.116,17.116,0,0,1-18.3-15.8,7.387,7.387,0,0,1,0-2.1,18.323,18.323,0,0,1,4.9-13.1,17.9,17.9,0,0,1,13.5-5.1,15.22,15.22,0,0,1,10.6,3.8l-3.5,6a12.925,12.925,0,0,0-7.1-2.2,9.011,9.011,0,0,0-7.1,2.9,10.871,10.871,0,0,0-2.7,7.7,11.525,11.525,0,0,0,2.9,7.7,10.219,10.219,0,0,0,7.7,2.9,11.521,11.521,0,0,0,7.5-2.7Z"/>
      <path id="Path_6_1_" class="cls-4" d="M268.4,235.7h-8v-35h10.8c4.9,0,8.6,1.1,10.8,3.3a11.456,11.456,0,0,1,3.3,8.4,11.1,11.1,0,0,1-3.5,8.4,13.187,13.187,0,0,1-9.5,3.3,17.9,17.9,0,0,1-4-.2C268.4,224,268.4,235.7,268.4,235.7Zm0-27.7v8a15.886,15.886,0,0,0,3.8.2,4.063,4.063,0,0,0,4.6-3.5V212c0-2.7-1.5-4-4.9-4h-3.5"/>
      <path id="Path_7_1_" class="cls-4" d="M290.1,235.7v-35h20.8V208H298v6.2h11.3v7.5H298v6.4h13.3v7.5H290.1Z"/>
      <path id="Path_8_1_" class="cls-4" d="M344.5,232.2a12.388,12.388,0,0,1-4.6,2.9,21.243,21.243,0,0,1-6.6,1.1A17.116,17.116,0,0,1,315,220.4a7.387,7.387,0,0,1,0-2.1,18.323,18.323,0,0,1,4.9-13.1,17.9,17.9,0,0,1,13.5-5.1,15.22,15.22,0,0,1,10.6,3.8l-3.5,6a12.925,12.925,0,0,0-7.1-2.2,9.011,9.011,0,0,0-7.1,2.9,10.871,10.871,0,0,0-2.7,7.7,11.525,11.525,0,0,0,2.9,7.7,10.219,10.219,0,0,0,7.7,2.9,11.521,11.521,0,0,0,7.5-2.7Z"/>
      <path id="Path_9_1_" class="cls-4" d="M379.3,200.7l-11.7,26.6c-2.4,5.5-5.5,8.4-10.2,8.4a9.884,9.884,0,0,1-5.3-1.5l2.9-6.9a5.422,5.422,0,0,0,2.4.9,2.887,2.887,0,0,0,2.7-1.3l.4-1.1-15.1-25h9.1l10,17,7.1-17h7.7Z"/>
      <path id="Path_10_1_" class="cls-4" d="M390.6,235.7h-8v-35h10.8c4.9,0,8.6,1.1,10.8,3.3a11.456,11.456,0,0,1,3.3,8.4,11.1,11.1,0,0,1-3.5,8.4,13.187,13.187,0,0,1-9.5,3.3,17.9,17.9,0,0,1-4-.2l.1,11.8Zm0-27.7v8a15.886,15.886,0,0,0,3.8.2,4.063,4.063,0,0,0,4.6-3.5V212c0-2.7-1.5-4-4.9-4h-3.5"/>
      <path id="Path_11_1_" class="cls-4" d="M439.7,232.2a12.388,12.388,0,0,1-4.6,2.9,21.243,21.243,0,0,1-6.6,1.1,17.116,17.116,0,0,1-18.3-15.8,7.387,7.387,0,0,1,0-2.1,18.323,18.323,0,0,1,4.9-13.1,17.9,17.9,0,0,1,13.5-5.1,15.22,15.22,0,0,1,10.6,3.8l-3.5,6a12.925,12.925,0,0,0-7.1-2.2,9.011,9.011,0,0,0-7.1,2.9,10.871,10.871,0,0,0-2.7,7.7,11.525,11.525,0,0,0,2.9,7.7,10.219,10.219,0,0,0,7.7,2.9,11.521,11.521,0,0,0,7.5-2.7Z"/>
    </g>
    <g id="Group_43" data-name="Group 43" transform="translate(0 20)">
      <g id="Group_41" data-name="Group 41" transform="translate(385.3 598.9)">
        <g id="Group_20" data-name="Group 20" class="cls-5" transform="translate(21.7 54.3)">
          <rect id="Rectangle_5" data-name="Rectangle 5" class="cls-6" width="60.8" height="13.9"/>
        </g>
      </g>
      <g id="Group_40" data-name="Group 40" transform="translate(385.3 598.9)">
        <g id="Group_22" data-name="Group 22" class="cls-7">
          <path id="Path_38" data-name="Path 38" class="cls-1" d="M56.9,87.3,19.3,36.5,68.5,0l37.7,50.8Z"/>
        </g>
      </g>
      <g id="Group_39" data-name="Group 39" transform="translate(385.3 598.9)">
        <g id="Group_24" data-name="Group 24" class="cls-8">
          <path id="Path_40" data-name="Path 40" class="cls-2" d="M82.1,32.1l-32,53.2L0,55.2,32,2Z"/>
        </g>
      </g>
      <g id="Group_42" data-name="Group 42" transform="translate(385.3 598.9)">
        <g id="Group_26" data-name="Group 26" class="cls-9" transform="translate(21.7 54.3)">
          <rect id="Rectangle_6" data-name="Rectangle 6" class="cls-3" width="51.4" height="13.9"/>
        </g>
      </g>
    </g>
  </g>
</svg>
