<svg xmlns="http://www.w3.org/2000/svg" viewBox="0 0 166.099 62.248">
  <defs>
    <style>
      .cls-1 {
        fill: #fff;
      }
    </style>
  </defs>
  <path id="Path_9014" data-name="Path 9014" class="cls-1" d="M18.162-16.386q-.1-.349-.249-.805a5.327,5.327,0,0,0-.407-.921,5.322,5.322,0,0,0-.647-.913,4,4,0,0,0-.971-.8,5.391,5.391,0,0,0-1.395-.564,7.5,7.5,0,0,0-1.909-.216,6.163,6.163,0,0,0-1.1.116,5.05,5.05,0,0,0-1.295.44,5.755,5.755,0,0,0-1.312.9,5.569,5.569,0,0,0-1.154,1.519,9.3,9.3,0,0,0-.822,2.266A13.8,13.8,0,0,0,6.591-12.2a13.783,13.783,0,0,0,.415,3.536,7.949,7.949,0,0,0,1.2,2.64,5.357,5.357,0,0,0,1.884,1.652,5.345,5.345,0,0,0,2.5.573,5.958,5.958,0,0,0,2.623-.5,4.949,4.949,0,0,0,1.619-1.212,5.167,5.167,0,0,0,.9-1.494q.3-.78.465-1.361h5.063a12.428,12.428,0,0,1-1.378,3.976,9.78,9.78,0,0,1-2.341,2.8,9.457,9.457,0,0,1-3.1,1.66,11.981,11.981,0,0,1-3.661.548,12.091,12.091,0,0,1-4.823-.9A9.568,9.568,0,0,1,4.424-2.872,11.411,11.411,0,0,1,2.241-6.915,17.513,17.513,0,0,1,1.494-12.2a17.788,17.788,0,0,1,.432-4.084,13.049,13.049,0,0,1,1.2-3.246,10.492,10.492,0,0,1,1.818-2.457A10.049,10.049,0,0,1,7.23-23.7a10.506,10.506,0,0,1,2.6-1,11.872,11.872,0,0,1,2.756-.324,13.662,13.662,0,0,1,3.536.415,10.569,10.569,0,0,1,2.706,1.112A8.827,8.827,0,0,1,20.81-21.9a9.513,9.513,0,0,1,1.345,1.851,8.676,8.676,0,0,1,.78,1.909,9.963,9.963,0,0,1,.324,1.751ZM36.374-24.4h5.113v9.28h9.579V-24.4h5.1V0h-5.1V-10.907H41.487V0H36.374ZM60.048-12.2a16.975,16.975,0,0,1,.73-5.08,11.448,11.448,0,0,1,2.191-4.059,10.119,10.119,0,0,1,3.669-2.7,12.6,12.6,0,0,1,5.146-.979,11.757,11.757,0,0,1,4.881.979,10.76,10.76,0,0,1,3.694,2.7,12,12,0,0,1,2.333,4.059,15.376,15.376,0,0,1,.813,5.08,15.4,15.4,0,0,1-.813,5.072A11.983,11.983,0,0,1,80.36-3.063a10.76,10.76,0,0,1-3.694,2.7,11.757,11.757,0,0,1-4.881.979,12.6,12.6,0,0,1-5.146-.979,10.119,10.119,0,0,1-3.669-2.7A11.439,11.439,0,0,1,60.778-7.13,17,17,0,0,1,60.048-12.2ZM71.785-3.8a6.018,6.018,0,0,0,2.789-.631,6.1,6.1,0,0,0,2.083-1.751,8.048,8.048,0,0,0,1.3-2.656,11.962,11.962,0,0,0,.448-3.362,11.962,11.962,0,0,0-.448-3.362,8.048,8.048,0,0,0-1.3-2.656,6.1,6.1,0,0,0-2.083-1.751,6.018,6.018,0,0,0-2.789-.631A6.018,6.018,0,0,0,69-19.972a6.1,6.1,0,0,0-2.083,1.751A8.169,8.169,0,0,0,65.6-15.564a11.758,11.758,0,0,0-.457,3.362A11.758,11.758,0,0,0,65.6-8.84a8.169,8.169,0,0,0,1.312,2.656A6.1,6.1,0,0,0,69-4.433,6.018,6.018,0,0,0,71.785-3.8Zm16-20.6h11.97a10.987,10.987,0,0,1,2.631.282,7.519,7.519,0,0,1,1.967.764,5.663,5.663,0,0,1,1.395,1.112,5.683,5.683,0,0,1,.9,1.32,5.826,5.826,0,0,1,.473,1.4,7.025,7.025,0,0,1,.141,1.361,7.638,7.638,0,0,1-.166,1.668,4.631,4.631,0,0,1-.523,1.345,4.335,4.335,0,0,1-.93,1.1,6.723,6.723,0,0,1-1.37.888,6.116,6.116,0,0,1,1.976,1.146A5.122,5.122,0,0,1,107.4-10.55a5.5,5.5,0,0,1,.531,1.627A10.346,10.346,0,0,1,108.06-7.3a7.225,7.225,0,0,1-.647,3.138,6.282,6.282,0,0,1-1.826,2.283,8.293,8.293,0,0,1-2.864,1.4A13.607,13.607,0,0,1,98.979,0H87.789Zm4.9,20.188h6.358a5.791,5.791,0,0,0,1.561-.2,3.539,3.539,0,0,0,1.237-.606,2.761,2.761,0,0,0,.813-1.029,3.445,3.445,0,0,0,.291-1.469,3.557,3.557,0,0,0-.349-1.7,2.564,2.564,0,0,0-.921-.988,3.44,3.44,0,0,0-1.295-.457,9.928,9.928,0,0,0-1.469-.108H92.687Zm0-10.575h6.292a5.39,5.39,0,0,0,1.278-.149,3.093,3.093,0,0,0,1.087-.49,2.5,2.5,0,0,0,.755-.872,2.692,2.692,0,0,0,.282-1.278,2.832,2.832,0,0,0-.257-1.287,2.079,2.079,0,0,0-.706-.805,2.841,2.841,0,0,0-1.046-.415,6.6,6.6,0,0,0-1.262-.116H92.687ZM134.373-24.4h5.1V0h-5.1ZM117.439-4.217h4.316a10.746,10.746,0,0,0,1.436-.1,4,4,0,0,0,1.361-.432,2.645,2.645,0,0,0,1.021-.988,3.351,3.351,0,0,0,.4-1.751,3.524,3.524,0,0,0-.39-1.8,2.572,2.572,0,0,0-1.021-.988,3.893,3.893,0,0,0-1.419-.415,15.134,15.134,0,0,0-1.585-.083h-4.117Zm-5.1-20.187h5.1v9.612H122.3q.548,0,1.4.033a10.93,10.93,0,0,1,1.834.241,9.373,9.373,0,0,1,1.959.656,5.864,5.864,0,0,1,1.776,1.27,6.224,6.224,0,0,1,1.295,2.092,8.609,8.609,0,0,1,.5,3.129,8.488,8.488,0,0,1-.5,3.1,6.475,6.475,0,0,1-1.27,2.083,5.612,5.612,0,0,1-1.71,1.262,9.289,9.289,0,0,1-1.826.647,8.976,8.976,0,0,1-1.627.241Q123.4,0,123.051,0H112.343Zm31.676,0h7.454l4.283,18.992h.066L160.105-24.4h7.487V0h-4.7V-20.4h-.066L158.2,0h-4.964l-4.449-20.4h-.066V0h-4.7ZM2.789,7.6H19.208v4.2H7.886V32h-5.1ZM21.15,19.8a16.975,16.975,0,0,1,.73-5.08,11.448,11.448,0,0,1,2.191-4.059,10.119,10.119,0,0,1,3.669-2.7,12.6,12.6,0,0,1,5.146-.979,11.757,11.757,0,0,1,4.881.979,10.76,10.76,0,0,1,3.694,2.7,12,12,0,0,1,2.333,4.059,15.376,15.376,0,0,1,.813,5.08,15.4,15.4,0,0,1-.813,5.072,11.982,11.982,0,0,1-2.333,4.067,10.76,10.76,0,0,1-3.694,2.7,11.757,11.757,0,0,1-4.881.979,12.6,12.6,0,0,1-5.146-.979,10.119,10.119,0,0,1-3.669-2.7,11.439,11.439,0,0,1-2.191-4.067A17,17,0,0,1,21.15,19.8Zm11.737,8.4a6.018,6.018,0,0,0,2.789-.631,6.1,6.1,0,0,0,2.083-1.751,8.048,8.048,0,0,0,1.3-2.656,11.962,11.962,0,0,0,.448-3.362,11.962,11.962,0,0,0-.448-3.362,8.048,8.048,0,0,0-1.3-2.656,6.1,6.1,0,0,0-2.083-1.751,6.481,6.481,0,0,0-5.578,0,6.1,6.1,0,0,0-2.083,1.751A8.169,8.169,0,0,0,26.7,16.436a11.758,11.758,0,0,0-.457,3.362A11.758,11.758,0,0,0,26.7,23.16a8.169,8.169,0,0,0,1.312,2.656A6.1,6.1,0,0,0,30.1,27.567,6.018,6.018,0,0,0,32.888,28.2Zm13.63-.415h2.142q.382-1.029.755-2.108t.706-2.341q.332-1.262.606-2.772t.49-3.412q.216-1.9.349-4.25t.183-5.3H68.365V27.783h2.374v9.446H66.323V32H50.934v5.229H46.518ZM63.269,11.8H56.229q-.017.664-.042,1.693t-.108,2.3q-.083,1.27-.241,2.739t-.423,3.021q-.266,1.552-.672,3.138a28,28,0,0,1-.988,3.1h9.513Zm9.38,8a16.975,16.975,0,0,1,.73-5.08,11.448,11.448,0,0,1,2.191-4.059,10.119,10.119,0,0,1,3.669-2.7,12.6,12.6,0,0,1,5.146-.979,11.757,11.757,0,0,1,4.881.979,10.76,10.76,0,0,1,3.694,2.7,12,12,0,0,1,2.333,4.059,15.376,15.376,0,0,1,.813,5.08,15.4,15.4,0,0,1-.813,5.072,11.983,11.983,0,0,1-2.333,4.067,10.76,10.76,0,0,1-3.694,2.7,11.757,11.757,0,0,1-4.881.979,12.6,12.6,0,0,1-5.146-.979,10.119,10.119,0,0,1-3.669-2.7,11.439,11.439,0,0,1-2.191-4.067A17,17,0,0,1,72.648,19.8Zm11.737,8.4a6.018,6.018,0,0,0,2.789-.631,6.1,6.1,0,0,0,2.083-1.751,8.048,8.048,0,0,0,1.3-2.656A11.962,11.962,0,0,0,91.01,19.8a11.962,11.962,0,0,0-.448-3.362,8.048,8.048,0,0,0-1.3-2.656,6.1,6.1,0,0,0-2.083-1.751,6.481,6.481,0,0,0-5.578,0,6.1,6.1,0,0,0-2.083,1.751A8.169,8.169,0,0,0,78.2,16.436a11.758,11.758,0,0,0-.457,3.362A11.758,11.758,0,0,0,78.2,23.16a8.169,8.169,0,0,0,1.312,2.656A6.1,6.1,0,0,0,81.6,27.567,6.018,6.018,0,0,0,84.386,28.2ZM99.975,7.6h7.454l4.283,18.992h.066L116.062,7.6h7.487V32h-4.7V11.6h-.066L114.152,32h-4.964l-4.449-20.4h-.066V32h-4.7Zm29.684.017h5.2v6.209L133.51,25.243h-2.474l-1.378-11.422Zm.116,19.59h4.947V32h-4.947Z" transform="translate(-1.494 25.019)"/>
</svg>
