<svg xmlns="http://www.w3.org/2000/svg" viewBox="0 0 73.412 24.969">
  <defs>
    <style>
      .cls-1 {
        fill: #eb113b;
      }
    </style>
  </defs>
  <path id="Path_9015" data-name="Path 9015" class="cls-1" d="M1.063,0A11.311,11.311,0,0,1,2.175-4.731q1.013-2.407,4.781-5.1a35.063,35.063,0,0,0,4.233-3.354,4.956,4.956,0,0,0,1.478-3.453,3.825,3.825,0,0,0-.847-2.54A2.982,2.982,0,0,0,9.4-20.187a2.956,2.956,0,0,0-2.938,1.61,7.987,7.987,0,0,0-.531,2.955h-4.6A11.63,11.63,0,0,1,2.44-20.586q1.893-3.6,6.724-3.6a8.526,8.526,0,0,1,6.076,2.117,7.319,7.319,0,0,1,2.258,5.6A7.585,7.585,0,0,1,15.9-11.721a15.878,15.878,0,0,1-3.437,3.071L10.575-7.3Q8.8-6.043,8.143-5.479a5.352,5.352,0,0,0-1.1,1.312H17.548V0ZM24.8-11.8a22.675,22.675,0,0,0,.681,6.35,2.74,2.74,0,0,0,2.789,2.2,2.7,2.7,0,0,0,2.764-2.2,23.5,23.5,0,0,0,.656-6.35,23.233,23.233,0,0,0-.656-6.441,2.679,2.679,0,0,0-2.764-2.092,2.718,2.718,0,0,0-2.789,2.092A22.422,22.422,0,0,0,24.8-11.8Zm3.47-12.435q4.6,0,6.45,3.237t1.851,9.2q0,5.96-1.851,9.181T28.272.6q-4.6,0-6.45-3.221T19.972-11.8q0-5.96,1.851-9.2T28.272-24.238Zm11.9,7.637v-3.221a20.972,20.972,0,0,0,3.138-.3,4.425,4.425,0,0,0,2.324-1.262,4.154,4.154,0,0,0,.93-1.727,3.963,3.963,0,0,0,.183-.963h3.935V0H45.837V-16.6Zm17.564,1a8.83,8.83,0,0,1,2.233-6.267,7.563,7.563,0,0,1,5.8-2.4,7.5,7.5,0,0,1,7.537,4.864,18.94,18.94,0,0,1,1.162,7.255,20.644,20.644,0,0,1-1.112,7.288Q71.237.7,65.56.7A7.957,7.957,0,0,1,60.7-.9a6.316,6.316,0,0,1-2.474-4.673h4.715a2.848,2.848,0,0,0,.9,1.727,2.776,2.776,0,0,0,1.942.664,3.376,3.376,0,0,0,3.287-2.59,15.11,15.11,0,0,0,.647-4.167A5.116,5.116,0,0,1,68.332-8.7a6.254,6.254,0,0,1-3.271.8,7.438,7.438,0,0,1-5.1-1.984A7.263,7.263,0,0,1,57.74-15.605Zm8.351,3.852a3.308,3.308,0,0,0,1.843-.564,3.9,3.9,0,0,0,1.61-3.569,5.045,5.045,0,0,0-.955-3.237,3.165,3.165,0,0,0-2.615-1.2,3.249,3.249,0,0,0-2.075.681,4.3,4.3,0,0,0-1.361,3.6,5.011,5.011,0,0,0,.872,3.212A3.254,3.254,0,0,0,66.091-11.754Z" transform="translate(-1.063 24.271)"/>
</svg>
