<?xml version="1.0" standalone="no"?>
<!DOCTYPE svg PUBLIC "-//W3C//DTD SVG 20010904//EN"
 "http://www.w3.org/TR/2001/REC-SVG-20010904/DTD/svg10.dtd">
<svg version="1.0" xmlns="http://www.w3.org/2000/svg"
 width="629.000000pt" height="629.000000pt" viewBox="0 0 629.000000 629.000000"
 preserveAspectRatio="xMidYMid meet">
<metadata>
Created by potrace 1.11, written by Peter Selinger 2001-2013
</metadata>
<g transform="translate(0.000000,629.000000) scale(0.100000,-0.100000)"
fill="#000000" stroke="none">
<path d="M1345 3791 c-517 -863 -939 -1572 -939 -1575 1 -7 660 -1099 723
-1199 l31 -47 1917 0 1918 0 255 377 c140 208 333 493 429 635 l173 257 -992
1560 -993 1561 -791 0 -791 -1 -940 -1568z m2304 -627 c310 -503 561 -918 557
-921 -3 -3 -517 -8 -1143 -11 l-1137 -5 16 25 c17 26 589 952 903 1463 236
384 224 365 233 365 4 -1 261 -413 571 -916z"/>
</g>
</svg>
