<svg id="Group_18674" data-name="Group 18674" xmlns="http://www.w3.org/2000/svg" viewBox="0 0 26 26">
  <defs>
    <style>
      .cls-1 {
        fill: #768692;
      }

      .cls-2 {
        fill: #fff;
      }
    </style>
  </defs>
  <rect id="Rectangle_11828" data-name="Rectangle 11828" class="cls-1" width="26" height="26"/>
  <path id="twitter_2_" class="cls-2" d="M387.759,59.508a7.281,7.281,0,0,1-1.991.543,3.473,3.473,0,0,0,1.523-1.9,7.228,7.228,0,0,1-2.194.834,3.49,3.49,0,0,0-2.529-1.085,3.449,3.449,0,0,0-3.463,3.426,3.312,3.312,0,0,0,.091.784,9.853,9.853,0,0,1-7.13-3.577,3.4,3.4,0,0,0,1.077,4.572,3.43,3.43,0,0,1-1.564-.432v.04a3.428,3.428,0,0,0,2.773,3.356,3.529,3.529,0,0,1-1.564.06,3.465,3.465,0,0,0,3.23,2.381,7.034,7.034,0,0,1-4.3,1.467,7.234,7.234,0,0,1-.823-.05,9.849,9.849,0,0,0,5.3,1.537,9.726,9.726,0,0,0,9.851-9.746c0-.151,0-.291-.01-.442A6.964,6.964,0,0,0,387.759,59.508Z" transform="translate(-366.33 -51.746)"/>
</svg>
