<svg id="Group_18676" data-name="Group 18676" xmlns="http://www.w3.org/2000/svg" viewBox="0 0 26 26">
  <defs>
    <style>
      .cls-1 {
        fill: #768692;
      }

      .cls-2, .cls-3 {
        fill: #fff;
      }

      .cls-3 {
        fill-rule: evenodd;
      }
    </style>
  </defs>
  <rect id="Rectangle_11829" data-name="Rectangle 11829" class="cls-1" width="26" height="26"/>
  <g id="youtube_2_" transform="translate(5.772 4.31)">
    <g id="Group_18675" data-name="Group 18675" transform="translate(0 7.419)">
      <path id="Path_9409" data-name="Path 9409" class="cls-2" d="M1807.436,152.5c-.3,0-.436.223-.436.67v.446h.871v-.446C1807.871,152.723,1807.723,152.5,1807.436,152.5Z" transform="translate(-1795.351 -148.418)"/>
      <path id="Path_9410" data-name="Path 9410" class="cls-2" d="M1711.622,115.726a1.842,1.842,0,0,0-1.562-1.424,72.853,72.853,0,0,0-10.842,0,1.817,1.817,0,0,0-1.562,1.424,23.1,23.1,0,0,0,0,6.845,1.842,1.842,0,0,0,1.563,1.424,72.85,72.85,0,0,0,10.842,0,1.817,1.817,0,0,0,1.562-1.424,23.074,23.074,0,0,0,0-6.845Zm-10.1.989h-1.052v5.57h-.978v-5.57h-1.031V115.8h3.051v.914Zm2.647,5.57h-.872v-.531a1.4,1.4,0,0,1-1,.6.533.533,0,0,1-.563-.361,2.354,2.354,0,0,1-.074-.723v-3.816h.871v3.561a2.043,2.043,0,0,0,.011.34c.021.138.085.2.2.2.181,0,.361-.138.553-.415v-3.688h.872Zm3.316-1.446a4.263,4.263,0,0,1-.085.978.691.691,0,0,1-.7.542,1.182,1.182,0,0,1-.9-.531v.468h-.871v-6.484h.871v2.1a1.182,1.182,0,0,1,.9-.521.691.691,0,0,1,.7.542,3.968,3.968,0,0,1,.085.967Zm3.306-.808h-1.743v.861q0,.67.446.67a.382.382,0,0,0,.393-.351,4.618,4.618,0,0,0,.021-.6h.893v.128a5.365,5.365,0,0,1-.021.563,1.241,1.241,0,0,1-.2.521,1.219,1.219,0,0,1-1.063.521,1.268,1.268,0,0,1-1.063-.5,1.85,1.85,0,0,1-.276-1.137v-1.69a1.91,1.91,0,0,1,.266-1.137,1.262,1.262,0,0,1,1.052-.5,1.2,1.2,0,0,1,1.031.5,1.932,1.932,0,0,1,.266,1.137Z" transform="translate(-1697.4 -114.1)"/>
      <path id="Path_9411" data-name="Path 9411" class="cls-2" d="M1776.836,152.5a.6.6,0,0,0-.436.213v2.944a.623.623,0,0,0,.436.213c.255,0,.383-.213.383-.648v-2.062C1777.219,152.723,1777.091,152.5,1776.836,152.5Z" transform="translate(-1768.003 -148.418)"/>
    </g>
    <path id="Path_9412" data-name="Path 9412" class="cls-3" d="M1722.69,44.3h-.988l-.67,2.572-.7-2.572H1719.3c.2.606.425,1.222.627,1.828a14.847,14.847,0,0,1,.6,2.073v2.647h.978V48.2Zm2.615,4.964v-1.7a1.866,1.866,0,0,0-.276-1.148,1.209,1.209,0,0,0-1.031-.5,1.222,1.222,0,0,0-1.031.5,1.864,1.864,0,0,0-.276,1.148v1.7a1.864,1.864,0,0,0,.276,1.148,1.314,1.314,0,0,0,2.062,0A1.866,1.866,0,0,0,1725.305,49.264Zm-.882.17c0,.446-.138.68-.425.68s-.425-.223-.425-.68V47.382c0-.446.138-.68.425-.68s.425.223.425.68Zm4.156,1.414V45.969h-.882V49.7c-.191.276-.383.415-.564.415a.21.21,0,0,1-.212-.2,2.089,2.089,0,0,1-.011-.34v-3.6h-.882v3.858a2.755,2.755,0,0,0,.074.723.546.546,0,0,0,.574.361,1.415,1.415,0,0,0,1.01-.6v.531Z" transform="translate(-1716.972 -44.3)"/>
  </g>
</svg>
