<svg id="Group_18678" data-name="Group 18678" xmlns="http://www.w3.org/2000/svg" viewBox="0 0 26 26">
  <defs>
    <style>
      .cls-1 {
        fill: #768692;
      }

      .cls-2 {
        fill: #fff;
      }
    </style>
  </defs>
  <rect id="Rectangle_11831" data-name="Rectangle 11831" class="cls-1" width="26" height="26"/>
  <g id="linkedin_2_" transform="translate(5.155 5.206)">
    <path id="Path_9415" data-name="Path 9415" class="cls-2" d="M1363.955,57.9h3.252v10.47h-3.252Zm1.626-5.2a1.887,1.887,0,1,1-1.881,1.881,1.885,1.885,0,0,1,1.881-1.881" transform="translate(-1363.7 -52.7)"/>
    <path id="Path_9416" data-name="Path 9416" class="cls-2" d="M1416,99.366h3.125v1.424h.042a3.436,3.436,0,0,1,3.083-1.69c3.3,0,3.9,2.168,3.9,4.985v5.74H1422.9v-5.091c0-1.212-.021-2.774-1.69-2.774-1.69,0-1.956,1.318-1.956,2.689v5.176H1416Z" transform="translate(-1410.441 -94.168)"/>
  </g>
</svg>
