<svg id="Group_18672" data-name="Group 18672" xmlns="http://www.w3.org/2000/svg" viewBox="0 0 26 26">
  <defs>
    <style>
      .cls-1 {
        fill: #768692;
      }

      .cls-2 {
        fill: #fff;
      }
    </style>
  </defs>
  <rect id="Rectangle_11826" data-name="Rectangle 11826" class="cls-1" width="26" height="26"/>
  <path id="vk_1_" class="cls-2" d="M733.347,58.478a4.66,4.66,0,0,0-2.392-1.2v-.081a3.637,3.637,0,0,0,1.637-1.274,3.427,3.427,0,0,0,.6-1.982,3.362,3.362,0,0,0-.415-1.688,3.041,3.041,0,0,0-1.276-1.173,5.462,5.462,0,0,0-1.7-.546,21.208,21.208,0,0,0-2.657-.131H721.4V65.686h6.494a10.682,10.682,0,0,0,2.742-.334,5.787,5.787,0,0,0,1.977-.981,4.126,4.126,0,0,0,1.212-1.425,4.257,4.257,0,0,0,.436-1.992A3.462,3.462,0,0,0,733.347,58.478Zm-7.972-5.3h.383c.712,0,1.254.01,1.616.02a2.589,2.589,0,0,1,.935.182,1.139,1.139,0,0,1,.616.566,1.757,1.757,0,0,1,.2.758,2.075,2.075,0,0,1-.181.88,1.23,1.23,0,0,1-.659.586,2.367,2.367,0,0,1-.85.243c-.276.01-.755.051-1.446.051h-.606V53.18Zm4.507,8.674a1.581,1.581,0,0,1-.8.657,3.494,3.494,0,0,1-1.222.324c-.4.01-1.127.071-2.168.071h-.319V58.983h.84c.712,0,1.286.01,1.711.02a3.151,3.151,0,0,1,1,.152,1.753,1.753,0,0,1,.9.607,1.785,1.785,0,0,1,.3,1.1A2,2,0,0,1,729.882,61.854Z" transform="translate(-714.821 -45.043)"/>
</svg>
